<?xml version="1.0" encoding="UTF-8"?>
<svg xmlns="http://www.w3.org/2000/svg" id="Ebene_1" width="56" height="56" viewBox="0 0 142.097 142.097"><rect width="142.097" height="142.097" fill="#d00"/><path d="m13.759,85.625h13.634c6.817,0,14.77,2.954,14.77,12.214,0,4.829-3.124,8.578-8.01,8.578v.114c5.681.454,8.692,3.977,8.692,9.714,0,5.283-3.182,12.214-13.521,12.214h-15.565v-42.834Zm12.271,16.646c2.386,0,4.602-.966,4.602-3.75,0-2.556-1.761-3.636-4.147-3.636h-1.136v7.386h.681Zm.284,16.92799c2.556,0,4.829-1.25,4.829-4.147,0-2.896-2.216-4.09-4.886-4.09h-.909v8.237s.966,0,.966,0Z" fill="#fff"/><path d="m42.616,122.494c0-3.466,2.897-6.419,6.249-6.419,3.692,0,6.76,2.783,6.76,6.589,0,3.579-2.954,6.42-6.533,6.42-3.636,0-6.476-2.954-6.476-6.59Z" fill="#fff"/><path d="m56.59,85.625h21.53v10.112h-9.941v5.965h8.919v10.112h-8.919v6.532h9.941v10.112h-21.53v-42.83299Z" fill="#fff"/><path d="m79.085,122.494c0-3.466,2.897-6.419,6.249-6.419,3.692,0,6.761,2.783,6.761,6.589,0,3.579-2.954,6.42-6.533,6.42-3.636,0-6.47701-2.954-6.47701-6.59Z" fill="#fff"/><path d="m123.907,103.69l.057,1.818c0,10.566-2.045,23.688-15.452,23.688-12.611,0-16.701-11.077-16.701-21.928,0-10.623,4.033-22.383,16.588-22.383,6.931,0,12.1,4.374,14.6,10.566l-11.191,4.147c-.113-1.704-1.25-4.375-3.295-4.375-5.34,0-4.886,9.828-4.886,13.066.171,3.067-.057,10.566,4.432,10.566,3.067,0,4.033-3.636,3.977-6.136h-4.261v-9.032h16.13202v.003Z" fill="#fff"/><path d="m123.28,122.494c0-3.466,2.897-6.419,6.24899-6.419,3.692,0,6.761,2.783,6.761,6.589,0,3.579-2.95399,6.42-6.533,6.42-3.63599,0-6.47699-2.954-6.47699-6.59Z" fill="#fff"/></svg>
