<?xml version="1.0" encoding="utf-8"?>
<!-- Generator: Adobe Illustrator 25.3.0, SVG Export Plug-In . SVG Version: 6.00 Build 0)  -->
<svg version="1.1" id="Ebene_1" xmlns="http://www.w3.org/2000/svg" xmlns:xlink="http://www.w3.org/1999/xlink" x="0px" y="0px"
	 viewBox="0 0 198.3 127.3" style="enable-background:new 0 0 198.3 127.3;" xml:space="preserve">
<style type="text/css">
	.st0{fill:#FFED00;}
	.st1{stroke:#000000;stroke-width:0.6036;stroke-linejoin:round;stroke-miterlimit:3.8636;}
	.st2{stroke:#000000;stroke-width:0.6036;stroke-miterlimit:3.8636;}
</style>
<path class="st0" d="M152.5,19.3c-0.1-1.1-3.5,1-6.3,2.5c-0.7,0.4-4,2.4-4,2.4c-4.1,2.5-8.2,5.7-8.2,5.7
	c-5.9,4.6-11.2,9.6-16.7,14.9c-0.6,0.5-1.4,0.1-2-0.2c-0.5-0.5-0.8-1.1-0.7-1.9l0.3-0.7l3.3-3.4c0.1-0.2,8.1-7.5,12-10.8
	c0.5-0.5,2.4-1.9,3.1-2.4c0.6-0.4,1.1-0.8,1.7-1.3c0.6-0.5,3.4-2.3,4.4-3c0.7-0.6,5.2-3.2,5.3-3.2c1.4-0.8,6.3-2.8,6.3-2.8
	c0.9-0.5,2.2-0.9,2.9-1.1c0.7-0.2,1.8-0.3,2.3,0.3c0.8,0.6,1.2,1.7,0.8,2.8c-0.3,0.8-1.3,2.7-0.8,2.6c0.2,0.3,1.7-1,2.5-1.4
	c0,0,2.6-1.6,3.3-2.1c3.2-1.8,6.4-3.6,9.7-5.1c0.4-0.3,4-1.8,4.8-1.9c0.2-0.5-0.2-0.3-0.2-0.4L174.2,9c-0.7-0.2-1-0.5-1.2-0.9
	c-0.2-0.5-0.2-1.3,0.3-1.8c0.6-0.4,0.8-0.5,1.4-0.7c1.9-0.5,4.4-0.7,4-0.6c0,0,7.3-0.6,9-0.3c1,0.3,1.4,1,1.4,0.9
	c0.8,0.9,0.2,2,0.2,2c-0.6,1.3-2,2.2-3,3.3c-1.8,1.5-3.1,3.4-4.7,5.2c-0.8,0.6-1.5,0.5-2.1,0.2c-0.4-0.3-0.5-1.1-0.4-1.6
	c0.5-1.7,1.4-2.4,1.6-2.7c0.7-0.6-0.1-0.4-0.1-0.4c-1.7,0.2-5.9,2.4-6,2.4c-5.4,2.4-10.7,5.8-11.3,6.3c-0.5,0.2-7.9,5.5-7.9,5.5
	c-1,0.8-1.5,1-1.5,1c-0.5,0.3-1.1,0.4-1.6,0.2c-1.3-0.4-1.3-1.4-1.4-1.7C150.7,24.1,152.6,19.8,152.5,19.3z"/>
<path class="st1" d="M105.7,33.5L97,36.1c0,0.2,15.9,56,16.5,58l8.6-2.4C122.1,91.7,105.6,33.6,105.7,33.5z"/>
<polygon points="90.8,37.5 82.6,39.8 85.4,49.5 93.5,47.1 "/>
<path class="st2" d="M125.1,43.7c-8.4,2.1-8.4,10.2-8.4,10.3c0.2,4.9,5.6,22.9,7.2,27.3c0.5,1.7,3.1,9.5,13.9,7.3
	c10.6-2.8,8.5-11.8,8.5-11.8c-0.7-3.1-2.6-8.9-2.6-8.9l-8,2.3l2.2,7.9c0,0,0.5,2.7-1.8,3.5c-2.8,0.9-3.7-2.1-3.7-2.1l-3.1-10.9
	l13.6-3.9l-3.9-13.9C139.1,50.7,136.4,40.9,125.1,43.7z M130.4,51.9c1.2,2.6,1.7,5.5,2.6,8.2l-5.4,1.5l-2.1-7.6
	c-0.3-1.4,0.1-2.6,1.2-3.4c0.8-0.3,1.6-0.2,2.4,0.1C129.6,51,130,51.4,130.4,51.9z"/>
<path class="st2" d="M95,51.7l-8.2,2.5c0,0,11,38.5,12.5,44l8.3-2.4L95,51.7z"/>
<path class="st2" d="M63.8,45.7L55.4,48l16.2,58.2l8.6-2.5l-1-3.4c0.4,0.4,2.1,2.1,4.6,2.1c1.2,0,2.7-0.1,5.5-1.6
	c0.4-0.3,0.7-0.6,1-0.9c0.8-0.7,0.8-0.8,1.1-1.3c0.7-1.2,1-2.8,0.9-4.3c0.1-1.4,0-2.4-0.3-3.7l-7.5-26.4c-0.6-1.6-1.5-3.2-2.5-4.5
	c-2.2-2.8-6-2.8-9-1.8c-1.5,0.6-3.5,2.4-4.6,4L63.8,45.7z M76.1,68.2l0.2,0.4l6.8,23.9c0.3,1.1,0,1.9-0.8,2.5
	c-0.9,0.8-2.2,1-3.4,0.6c-1.1-0.4-1.4-1.6-1.4-1.6L71,70c-0.2-1.1,0.3-2.2,1.3-2.6C73.3,66.5,75.7,67.2,76.1,68.2z"/>
<path class="st2" d="M21,72.5c-3.4,0.2-6,2.8-7.6,5.5l-0.7-2.4l-8.2,2.3c0,0,8.5,31.1,12.2,43.9l8.4-2.4l-9.4-33.5
	c-0.4-1.6,0.2-2.9,2-3.5c1.6-0.5,3.3,0.3,3.7,2.1l9.4,33.5l8.5-2.4L29,78.7c-0.6-1.8-1.5-3.7-3.1-4.8C25.4,73.7,23.6,72.2,21,72.5z"
	/>
<path class="st2" d="M49.3,65.8c-5.7-0.7-11.5,1.5-14.5,6.5c-1.4,2.6-1.1,5.3-0.5,8.4c1.2,5.3,2.8,10.5,4.3,15.7
	c0.8,2.6,2.6,8.2,2.6,8.2c0.6,2.7,4.3,9.1,14.6,6.4c10-3.3,8.4-12.1,8.4-12.1l-6.7-24.4C57.5,74.5,55,66.7,49.3,65.8z M48.3,75.3
	l6.9,24.1c0.5,1.8-0.3,3.7-1.8,4c-1.2,0.5-3.4-0.3-3.9-2.2c-0.4-0.6-4.6-16.1-4.6-16.1c-0.8-2.7-2.2-8.2-2.2-8.2
	c-0.2-1.1,0.7-2.8,2.2-3.2C46.1,73.2,48,74,48.3,75.3z"/>
</svg>
