<?xml version="1.0" encoding="UTF-8" standalone="no"?>
<!-- Created with Inkscape (http://www.inkscape.org/) -->
<svg
   xmlns:svg="http://www.w3.org/2000/svg"
   xmlns="http://www.w3.org/2000/svg"
   version="1.0"
   width="798.81"
   height="200.30432"
   id="svg15450"
   xml:space="preserve"><defs
     id="defs15453"><clipPath
       id="clipPath15467"><path
         d="M 0,841 L 595,841 L 595,0 L 0,0 L 0,841 z"
         id="path15469" /></clipPath><clipPath
       id="clipPath15473"><path
         d="M 0,841.02 L 594.96,841.02 L 594.96,0.06 L 0,0.06 L 0,841.02 z"
         id="path15475" /></clipPath><clipPath
       id="clipPath15775"><path
         d="M 278.003,527.896 L 305.601,527.896 L 305.602,500.284 L 278.003,500.296 L 278.003,527.896"
         id="path15777" /></clipPath><clipPath
       id="clipPath15789"><path
         d="M 277.85,527.937 L 371.287,527.937 L 371.287,500.12 L 277.85,500.12 L 277.85,527.937 z"
         id="path15791" /></clipPath><clipPath
       id="clipPath15801"><path
         d="M 0,841 L 595,841 L 595,0 L 0,0 L 0,841 z"
         id="path15803" /></clipPath><clipPath
       id="clipPath15807"><path
         d="M 0,841.02 L 594.96,841.02 L 594.96,0.06 L 0,0.06 L 0,841.02 z"
         id="path15809" /></clipPath></defs><g
     transform="matrix(1.25,0,0,-1.25,-2.2408348,1048.5867)"
     id="g15459"><g
       transform="matrix(6.850564,0,0,5.7924906,-1915.1551,-3252.3085)"
       id="g21019"><g
         id="g20994"><g
           id="g20970"><g
             id="g20947"><g
               id="g20925"><g
                 id="g20904"><g
                   id="g20884"><g
                     id="g20865"><g
                       id="g20847"><g
                         id="g20830"><g
                           id="g20814"><g
                             id="g20799"><g
                               id="g18064"><path
                                 d="M 1.820347,1019.394 L 1.820347,1019.394"
                                 id="path15461"
                                 style="fill:#ffffff;fill-opacity:1;fill-rule:nonzero;stroke:none" /><path
                                 d="M 279.82335,706.28994 L 307.42135,706.28994 L 307.42235,678.67794 L 279.82335,678.68994 L 279.82335,706.28994"
                                 id="path15767"
                                 style="fill:#d0d2d4;fill-opacity:1;fill-rule:nonzero;stroke:none" /><path
                                 d="M 279.82335,706.28994 L 307.42135,706.28994 L 307.42235,678.67794 L 279.82335,678.68994 L 279.82335,706.28994"
                                 id="path15769"
                                 style="fill:#292526;fill-opacity:1;fill-rule:nonzero;stroke:none" /><g
                                 transform="translate(1.820347,178.39394)"
                                 id="g15771"><g
                                   clip-path="url(#clipPath15775)"
                                   id="g15773"><path
                                   d="M 278.743,501.057 L 278.741,527.121 L 304.822,527.117 L 304.801,501.048 L 278.743,501.057"
                                   id="path15779"
                                   style="fill:#fff200;fill-opacity:1;fill-rule:nonzero;stroke:none" /></g></g><path
                                 d="M 293.57935,689.16394 L 301.88735,680.87794 L 305.13835,684.12894 L 296.82235,692.43594 L 298.44435,694.04294 L 298.44435,697.27594 L 299.60035,698.42994 L 299.60235,695.74994 L 300.73135,694.63694 L 304.78735,698.69694 L 305.88435,697.61294 C 305.88435,698.31094 305.67835,700.71394 303.74935,702.59494 C 301.58835,704.70094 299.42535,703.46894 298.68035,702.72494 L 294.76435,698.80794 L 295.73735,697.83494 L 293.57935,695.68394 L 291.42435,697.83494 L 292.39735,698.80794 L 288.48135,702.72494 C 287.73635,703.46894 285.57335,704.70094 283.41235,702.59494 C 281.48335,700.71394 281.32135,698.30994 281.32135,697.61294 L 282.37435,698.69694 L 286.43035,694.63694 L 287.56035,695.76294 L 287.56135,698.42994 L 288.71735,697.27594 L 288.71435,694.05094 L 290.33835,692.43594 L 282.10535,684.21194 L 285.35335,680.96994 L 293.57935,689.16394"
                                 id="path15781"
                                 style="fill:#292526;fill-opacity:1;fill-rule:nonzero;stroke:none" /><path
                                 d="M 321.89435,698.83994 C 323.38735,698.83994 324.54235,697.76494 324.54235,696.38994 C 324.54235,695.01694 323.33235,693.90494 321.83935,693.90494 L 319.86435,693.90694 L 319.86435,698.83994 L 321.89435,698.83994 z M 318.33035,706.25694 L 310.46935,706.25694 L 310.46935,678.64494 L 319.88235,678.64494 L 319.88235,689.10394 L 325.09235,678.64494 L 335.58335,678.64494 L 328.91435,689.61994 C 328.91435,689.61994 334.35335,690.68194 334.34235,697.07394 C 334.32635,706.03294 328.48235,706.25094 323.06435,706.25694 L 318.33035,706.25694"
                                 id="path15783"
                                 style="fill:#292526;fill-opacity:1;fill-rule:evenodd;stroke:none" /><g
                                 transform="translate(1.820347,178.39394)"
                                 id="g15785"><g
                                   clip-path="url(#clipPath15789)"
                                   id="g15787"><path
                                   d="M 333.891,519.6 C 333.813,521.352 333.709,521.888 333.359,523.042 C 333.122,523.774 332.98,524.111 332.372,525.018 C 331,527.04 329.581,527.371 328.747,527.681 L 328.747,527.83 L 353.16,527.83 L 353.16,527.669 L 341.214,508.503 L 352.472,508.503 L 352.472,500.232 L 335.26,500.232 L 330.346,508.328 L 336.76,518.976 L 337.103,519.6 L 333.891,519.6"
                                   id="path15793"
                                   style="fill:#292526;fill-opacity:1;fill-rule:nonzero;stroke:none" /><path
                                   d="M 358.446,521.466 C 359.814,521.466 360.872,520.571 360.872,519.427 C 360.872,518.284 359.807,517.402 358.401,517.361 L 356.588,517.359 L 356.588,521.466 L 358.446,521.466 z M 359.488,511.477 C 360.76,511.477 361.741,510.483 361.741,509.213 C 361.741,507.801 360.403,506.913 359.135,506.913 L 356.592,506.917 L 356.592,511.477 L 359.488,511.477 z M 354.733,527.851 L 360.366,527.851 C 362.688,527.851 370.081,528.165 370.16,520.294 C 370.207,515.304 366.002,514.556 366.002,514.556 C 366.002,514.556 371.414,513.39 371.443,508.289 C 371.482,501.973 364.51,500.249 362.049,500.249 L 353.821,500.251 L 353.821,509.845 L 347.157,509.845 L 347.157,515.69 L 354.733,527.851"
                                   id="path15795"
                                   style="fill:#292526;fill-opacity:1;fill-rule:evenodd;stroke:none" /></g></g></g></g></g></g></g></g></g></g></g></g></g></g></g></g></svg>