<svg xmlns="http://www.w3.org/2000/svg" xmlns:xlink="http://www.w3.org/1999/xlink" width="49.68mm" height="11.88mm" viewBox="0 0 140.82 33.66"><defs><clipPath id="a" transform="translate(0 0)"><rect width="140.82" height="33.66" style="fill:none"/></clipPath></defs><title>logo</title><polygon points="5.95 0 0 33.59 17.19 33.59 23.14 0 5.95 0" style="fill:#fff"/><g style="clip-path:url(#a)"><path d="M32.19,21.58l-.1.59c-.51,2.84.48,4.27,3,4.27a4.08,4.08,0,0,0,4.11-3.39c.43-2.45-.61-3.52-2.58-4.14L34.29,18c-3.15-1.31-4.3-3.07-3.71-6.4C31.33,7.39,34.61,5,39,5c6,0,5.91,3.72,5.48,6.13l-.1.53h-3.7l.08-.49c.38-2.13-.34-3.36-2.65-3.36a3.66,3.66,0,0,0-3.72,3.36c-.35,2,.47,3,2.78,3.94l2.34.92c3.08,1.17,4.19,3,3.62,6.17-.88,5-4.23,7-8.92,7-5.75,0-6.37-3.85-5.79-7.11l.09-.56Z" transform="translate(0 0)" style="fill:#fff"/><path d="M60.69,20.44l-.09.49c-.74,4.21-3.16,8.32-8.63,8.32-5.85,0-7-3.78-5.53-12.11S50.41,5,56.3,5c6.6,0,6.12,4.89,5.7,7.31l-.08.42H58.21l.07-.39c.39-2.15.17-4.63-2.51-4.54s-4.27,1.7-5.6,9.21-.43,9.39,2.3,9.39c3.09,0,4.06-3.45,4.44-5.61l.07-.39Z" transform="translate(0 0)" style="fill:#fff"/></g><polygon points="65.94 5.5 69.65 5.5 68 14.83 74.83 14.83 76.48 5.5 80.19 5.5 76.06 28.79 72.35 28.79 74.27 17.96 67.44 17.96 65.52 28.79 61.81 28.79 65.94 5.5" style="fill:#fff"/>
    <g style="clip-path:url(#a)"><path d="M87.44,5.5l-3,16.7c-.52,2.94.41,4.24,2.66,4.24s3.61-1.3,4.13-4.24l3-16.7H98L95,21.91c-1,5.38-4,7.34-8.39,7.34s-6.77-2-5.82-7.34L83.73,5.5Z" transform="translate(0 0)" style="fill:#fff"/><path d="M113.12,20.44l-.09.49c-.75,4.21-3.17,8.32-8.63,8.32-5.86,0-7-3.78-5.53-12.11s4-12.1,9.86-12.1c6.6,0,6.12,4.89,5.69,7.31l-.07.42h-3.71l.07-.39c.38-2.15.17-4.63-2.51-4.54s-4.27,1.7-5.6,9.21-.44,9.39,2.3,9.39c3.09,0,4.06-3.45,4.44-5.61l.07-.39Z" transform="translate(0 0)" style="fill:#fff"/></g><polygon points="118.37 5.5 122.08 5.5 120.42 14.83 127.25 14.83 128.91 5.5 132.62 5.5 128.48 28.79 124.77 28.79 126.7 17.96 119.87 17.96 117.94 28.79 114.24 28.79 118.37 5.5" style="fill:#fff"/><g style="clip-path:url(#a)"><path d="M4.4,23.27,6.65,10.51S7.47,2.7,14.4,3.16c6,.4,4.52,6.83,4.52,6.83s-1.86,11.07-2.64,14.73A7,7,0,0,1,8.84,30c-6-.27-4.44-6.77-4.44-6.77" transform="translate(0 0)" style="fill:#fff"/></g><polygon points="25.61 0.04 19.71 33.66 20.43 33.65 26.23 0.77 85.78 0.77 85.78 0.04 25.61 0.04" style="fill:#fff"/><polygon points="134.25 32.93 74.66 32.93 74.66 33.66 134.86 33.66 140.82 0.05 140.09 0.05 134.25 32.93" style="fill:#fff"/><g style="clip-path:url(#a)"><path d="M18.9,4.35a5.69,5.69,0,0,0-4.44-2.16c-.21,0-.43,0-.64,0C8.1,2.17,6,7.51,5.69,10.37L3.45,23.07c-.09.4-.77,3.62.91,5.87A5.55,5.55,0,0,0,8.8,31h.45a7.91,7.91,0,0,0,8-6.09c.76-3.59,2.53-14,2.65-14.75C20,9.8,20.58,6.62,18.9,4.35Zm0,5.64s-1.86,11.07-2.64,14.73a7,7,0,0,1-7,5.33H8.84c-6-.27-4.43-6.77-4.43-6.77L6.65,10.51s.78-7.37,7.17-7.37l.58,0C20.42,3.55,18.92,10,18.92,10Z" transform="translate(0 0)" style="fill:#004077"/><path d="M13.78,4.33C8.72,4.24,7.89,8.59,8,10.69c.2,3.38,6.11,3.24,6.22,4.94a2.53,2.53,0,0,1-2.74,2.62c-2.81-.13-2.25-2.94-2.25-2.94H6.56S5,20.63,10.87,21s6.18-5.39,6.22-6.32c.16-3.89-6.21-3.58-6.34-5.39C10.67,8.16,11.32,7,13.34,7S15,9.43,15,9.43h2.61S18.83,4.42,13.78,4.33Z" transform="translate(0 0)" style="fill:#004077"/></g><polygon points="10.17 22.38 10.8 24.15 12.83 23.97 11.42 25.75 12.24 27.48 10.25 27.32 9.07 29.1 8.46 27.34 6.34 27.46 7.82 25.73 7 24.03 8.97 24.14 10.17 22.38" style="fill:#004077"/></svg>