<?xml version="1.0" encoding="UTF-8" standalone="no"?>
<!-- Created with Inkscape (http://www.inkscape.org/) -->
<svg
   xmlns:svg="http://www.w3.org/2000/svg"
   xmlns="http://www.w3.org/2000/svg"
   version="1.0"
   width="956.69287"
   height="290.19684"
   id="svg2">
  <defs
     id="defs4" />
  <g
     transform="translate(-30.973413,-27.913308)"
     id="layer1">
    <g
       transform="translate(35.433052,35.359063)"
       id="g2792">
      <path
         d="M 418.96377,135.19071 L 418.96377,104.35289 L 285.58818,104.35289 L 285.58818,135.19071 L 334.21485,135.19071 L 334.21485,244.74983 L 370.3371,244.74983 L 370.3371,135.19071 L 418.96377,135.19071"
         style="fill:#000000;fill-rule:nonzero;stroke:none"
         id="path80" />
      <path
         d="M 733.35543,240.72394 L 730.5734,210.43071 C 723.07369,214.32408 712.79195,216.26711 703.34187,216.26711 C 679.72404,216.26711 670.55364,200.14904 670.55364,176.5312 C 670.55364,150.41831 681.94672,133.74092 704.4532,133.74092 C 713.34393,133.74092 721.96234,135.9635 729.46205,138.74563 L 733.07575,107.90039 C 724.18502,105.40533 714.18296,104.01432 704.73288,104.01432 C 655.82653,104.01432 633.32005,137.07484 633.32005,180.14491 C 633.32005,227.1008 657.21755,247.11236 695.56248,247.11236 C 710.28959,247.11236 723.90535,244.33034 733.35543,240.72394"
         style="fill:#000000;fill-rule:nonzero;stroke:none"
         id="path84" />
      <path
         d="M 580.01985,165.14549 C 580.01985,130.9662 562.23104,103.455 521.9431,103.455 C 480.54383,103.455 457.19831,134.57991 457.19831,176.81087 C 457.19831,225.43755 481.65517,247.39202 525.55681,247.39202 C 542.78626,247.39202 560.28803,244.33034 575.01514,238.49394 L 571.68112,210.99004 C 559.73605,216.54677 545.00894,219.60115 531.39318,219.60115 C 505.82499,219.60115 493.04825,207.09667 493.32056,181.25626 L 578.90116,181.25626 C 579.74018,175.41986 580.01985,169.86312 580.01985,165.14549 z M 544.72927,157.0864 L 493.87991,157.0864 C 495.82292,140.41631 506.10466,129.57519 520.83177,129.57519 C 535.83855,129.57519 545.28126,139.85698 544.72927,157.0864"
         style="fill:#000000;fill-rule:evenodd;stroke:none"
         id="path88" />
      <path
         d="M 916.80018,172.9248 C 916.80018,125.40947 891.51167,103.73466 852.33509,103.73466 C 810.37648,103.73466 781.75394,134.85227 781.75394,177.92221 C 781.75394,227.1008 807.04246,247.39202 846.21903,247.39202 C 887.61831,247.39202 916.80018,216.26711 916.80018,172.9248 z M 880.11866,174.86784 C 880.11866,202.93106 866.78249,217.0988 849.27341,217.0988 C 828.70992,217.0988 818.42818,202.6514 818.42818,174.30851 C 818.42818,145.97293 833.99431,133.74092 849.83274,133.74092 C 870.66855,133.74092 880.11866,148.19562 880.11866,174.86784"
         style="fill:#000000;fill-rule:evenodd;stroke:none"
         id="path92" />
      <path
         d="M 233.0387,106.23702 C 212.47522,105.67769 191.08007,106.51668 173.57094,108.73938 L 173.57094,130.9662 C 181.63,131.51823 191.08007,132.62957 197.74811,133.74092 L 197.74811,244.61 L 233.0387,244.61 L 233.0387,106.23702"
         style="fill:#000000;fill-rule:nonzero;stroke:none"
         id="path96" />
      <path
         d="M 237.48406,49.30845 C 237.48406,37.35599 227.48199,27.913308 215.24989,27.913308 C 203.30481,27.913308 193.30275,37.635653 193.30275,49.30845 C 193.30275,61.25349 203.30481,70.983256 215.24989,70.983256 C 227.48199,70.983256 237.48406,61.25349 237.48406,49.30845"
         style="fill:#ec1b24;fill-rule:nonzero;stroke:none"
         id="path100" />
      <path
         d="M 124.33339,201.81971 C 124.33339,157.0864 67.64766,167.08841 67.64766,144.58192 C 67.64766,135.9635 74.323059,130.40688 88.211142,130.40688 C 96.822186,130.40688 105.99259,131.79789 113.77198,134.02058 L 114.89067,105.95736 C 106.55194,104.56635 97.66121,103.455 89.602152,103.455 C 50.697871,103.455 30.973413,123.46644 30.973413,147.63629 C 30.973413,194.59231 86.827483,180.70423 86.827483,205.15376 C 86.827483,214.32408 77.929401,219.88082 64.313642,219.88082 C 53.759577,219.88082 43.198162,217.93778 34.587117,215.71509 L 33.748094,244.88966 C 42.646176,246.27337 52.648242,247.39202 62.650308,247.39202 C 100.43589,247.39202 124.33339,229.05126 124.33339,201.81971"
         style="fill:#000000;fill-rule:nonzero;stroke:none"
         id="path104" />
    </g>
  </g>
</svg>
