<?xml version="1.0" encoding="utf-8"?>
<!-- Generator: Adobe Illustrator 19.2.1, SVG Export Plug-In . SVG Version: 6.00 Build 0)  -->
<svg version="1.1" id="layer" xmlns="http://www.w3.org/2000/svg" xmlns:xlink="http://www.w3.org/1999/xlink" x="0px" y="0px"
	 viewBox="0 0 652 652" style="enable-background:new 0 0 652 652;" xml:space="preserve">
<style type="text/css">
	.st0{fill:#F9C623;}
	.st1{fill:#414140;}
</style>
<path class="st0" d="M105.3,340.4l-13.8,0c-6.8,0-12.1-5.3-12.1-12.2v-63h46.3c6.8,0,12.1,5.2,12.1,11.9v13.3h-32.5V340.4
	 M79.5,265.2H33.2c-6.8,0-12.1-5.2-12.1-11.9V240h32.5v-50h13.8c6.8,0,12.1,5.3,12.1,12.2V265.2"/>
<path class="st1" d="M542.2,452.6h-9.8c-8.8,0-18.9-8.1-22.9-18.5l-54.8-142.8c-3.5-9.7,0.4-18.5,9.9-22.3l5.1-2.2
	c2.8-1.1,5.5-1.7,8-1.7c6.9,0,12.4,4.2,15,11.5l37.6,103.1c2.7,7.6,5,14.6,6.9,20.6c1.9-6,4.2-13,6.9-20.6L582,276.6
	c2.5-7.3,8-11.5,14.9-11.5c2.5,0,5.2,0.6,8,1.7l0.2,0.1l5,2.2c9.5,3.9,13.4,12.6,9.9,22.3l-0.1,0.2l-54.7,142.6
	C561.1,444.5,551,452.6,542.2,452.6 M459.5,452.6H339.4V282.9c0-9.9,7.7-17.8,17.6-17.8h22.7v149.4h97.4v21.1
	C477.1,445.3,469.5,452.6,459.5,452.6 M270.2,452.6h-90.1c-10,0-17.6-7.3-17.6-17v-21.1h102.6c8.6,0,9-11.8,9-14.2v-14.7
	c0-6-3-9-9-9h-59.8c-20.4,0-42.4-16.7-42.4-43.8v-22.8c0-18.4,17.2-44.9,48.3-44.9h71.8c10.3,0,18,7.3,18,17l0,21h-83.6
	c-6.4,0-14.1,2.1-14.1,12v13.6c0,4.5,3.6,11.6,13.4,11.6h58.7c23,0,39.1,16.4,39.1,39.8v24.6C314.4,433.9,297,452.6,270.2,452.6"/>
</svg>
