<?xml version="1.0" encoding="utf-8"?>
<!-- Generator: Adobe Illustrator 26.5.0, SVG Export Plug-In . SVG Version: 6.00 Build 0)  -->
<svg version="1.1" id="NEU" xmlns="http://www.w3.org/2000/svg" xmlns:xlink="http://www.w3.org/1999/xlink" x="0px" y="0px"
	 viewBox="0 0 1592.9 295.6" style="enable-background:new 0 0 1592.9 295.6;" xml:space="preserve">
<style type="text/css">
	.st0{fill:#D98918;}
</style>
<g>
	<path d="M590.2,156.2l-21.2-2.1c-31.9-3.1-38.4-12.7-38.4-26c0-16.5,13.8-26.4,37-26.4c21.1,0,41.6,8.4,53.9,16.3
		c3,1.8,6,1.4,8-1.2l14.4-18.2l0.1-0.2c1.9-3.1,1.3-6.5-1.3-8.1c-19.3-14.5-45.9-22.8-73-22.8c-48.3,0-77.1,23.8-77.1,63.6
		c0,34.2,21.5,54.6,62.1,58.9l21.6,2.1c24.6,2.6,38,7.7,38,26.8c0,18.4-16,29.4-42.9,29.4c-22,0-45-8.6-61.7-22.9
		c-1.1-1.1-2.6-1.7-4.1-1.7c-1.5,0-3,0.6-4.2,1.8L484.1,244c-1.1,1.1-1.7,2.6-1.7,4.1c0,1.5,0.6,3,1.7,4.1l0.1,0.1
		c13.3,11.6,41.9,30.9,85.1,30.9c25.9,0,47.3-6.5,61.9-18.7c14.1-11.9,21.6-29,21.6-49.5C652.7,180.3,631.1,160,590.2,156.2z"/>
	<path d="M761.2,72.2H729c-0.8,0-0.9-0.1-0.9-0.9V14c0-3.4-2.4-5.9-5.9-5.9H695c-3.4,0-5.9,2.4-5.9,5.9v207.5
		c0,41.6,16.8,59.3,56.3,59.3h15.7c3.4,0,5.9-2.4,5.9-5.9v-24.6c0-3.4-2.4-5.9-5.9-5.9h-8.9c-18.4,0-24.3-5.9-24.3-24.3v-115
		c0-0.8,0.1-0.9,0.9-0.9h32.2c3.4,0,5.9-2.4,5.9-5.9V78C767,74.6,764.6,72.2,761.2,72.2z"/>
	<path d="M880.7,67.5c-40.1,0-69.7,20.4-81.3,55.8c-4.5,12.9-6.5,28.9-6.5,51.9c0,21.4,2.1,36.9,6.9,51.8
		c11.2,35.8,41.5,56.3,83,56.3c33.4,0,62.8-12.9,80.6-35.4c2.3-2.9,2-6-0.6-8.1L945.4,224c-1.6-1.3-4.8-2.8-8.5,1l-0.1,0.1
		c-8.7,10-24.5,21.9-51,21.9c-24.9,0-42.1-11.8-49.8-34.1c-2-6.4-3.3-12.9-3.3-24.1c0-0.8,0.1-0.9,0.9-0.9h128.5
		c3.8,0,6.3-2.4,6.3-5.9c0-32.3-2.4-46-6.4-58.6C950.3,87.8,920.7,67.5,880.7,67.5z M835.6,132.8c6.5-19.5,23-30.7,45.1-30.7
		s38.6,11.2,45.1,30.7c2,6,2.9,12.9,2.9,22.4c0,0.8-0.1,0.9-0.9,0.9h-94.2c-0.8,0-0.9-0.1-0.9-0.9
		C832.7,145.7,833.6,138.8,835.6,132.8z"/>
	<path d="M1042.4,72.2h-27.2c-3.4,0-5.9,2.4-5.9,5.9v194.7c0,3.4,2.4,5.9,5.9,5.9h27.2c3.4,0,5.9-2.4,5.9-5.9V78
		C1048.3,74.6,1045.9,72.2,1042.4,72.2z"/>
	<path d="M1043.3-0.2h-28.8c-3.4,0-5.9,2.4-5.9,5.9v31c0,3.4,2.4,5.9,5.9,5.9h28.8c3.4,0,5.9-2.4,5.9-5.9v-31
		C1049.1,2.2,1046.7-0.2,1043.3-0.2z"/>
	<path d="M1190.2,67.5c-24,0-44,8.9-55.7,24.6V78c0-3.5-2.4-5.9-5.9-5.9h-27.1c-3.4,0-5.9,2.4-5.9,5.9v194.7c0,3.4,2.4,5.9,5.9,5.9
		h27.1c3.4,0,5.9-2.4,5.9-5.9V151.8c0-28.7,18.1-48,45.1-48c28.6,0,43.8,17.3,43.8,50.1v118.8c0,3.4,2.4,5.9,5.9,5.9h27.2
		c3.4,0,5.9-2.4,5.9-5.9V145.5C1262.2,97.4,1234.6,67.5,1190.2,67.5z"/>
	<path d="M1385.4,67.5c-40.1,0-69.7,20.4-81.3,55.8c-4.5,12.9-6.5,28.9-6.5,51.9c0,21.4,2.1,36.9,6.9,51.8
		c11.2,35.8,41.5,56.3,83,56.3c33.4,0,62.8-12.9,80.6-35.4c1.1-1.4,1.6-2.8,1.6-4.2c-0.1-1-0.5-2.6-2.2-3.9l-17.5-15.8
		c-1.6-1.3-4.8-2.8-8.5,1l-0.1,0.1c-8.7,10-24.5,21.9-51,21.9c-24.9,0-42.1-11.8-49.8-34.1c-2-6.4-3.3-12.9-3.3-24.1
		c0-0.8,0.1-0.9,0.9-0.9h128.5c3.8,0,6.3-2.4,6.3-5.9c0-32.3-2.4-46-6.4-58.6C1455,87.8,1425.4,67.5,1385.4,67.5z M1340.3,132.8
		c6.5-19.5,23-30.7,45.1-30.7c22.2,0,38.6,11.2,45.1,30.7c2,6,2.9,12.9,2.9,22.4c0,0.8-0.1,0.9-0.9,0.9h-94.2
		c-0.8,0-0.9-0.1-0.9-0.9C1337.4,145.7,1338.3,138.8,1340.3,132.8z"/>
	<path d="M1582,244.4h-8.9c-18.4,0-24.3-5.9-24.3-24.3V14c0-3.4-2.4-5.9-5.9-5.9h-27.2c-3.4,0-5.9,2.4-5.9,5.9v207.5
		c0,41.6,16.8,59.3,56.3,59.3h15.7c3.4,0,5.9-2.4,5.9-5.9v-24.6C1587.8,246.8,1585.4,244.4,1582,244.4z"/>
</g>
<g>
	<path class="st0" d="M323.2,17C254.4-20.3,168.3,5.2,131,74c-37.3,68.8-11.8,154.8,56.9,192.1c68.8,37.3,154.8,11.8,192.1-56.9
		C417.4,140.4,391.9,54.3,323.2,17"/>
	<path class="st0" d="M89.1,251.9c12.4-22.9,3.9-51.6-19-64c-22.9-12.4-51.5-4-64,18.9c-12.4,22.9-3.9,51.6,19,64
		C48,283.3,76.7,274.8,89.1,251.9"/>
</g>
</svg>
