<?xml version="1.0" encoding="utf-8"?>
<!-- Generator: Adobe Illustrator 19.0.0, SVG Export Plug-In . SVG Version: 6.00 Build 0)  -->
<svg version="1.1" id="TRILUX_x5F_Logo_x5F_Sonne_x5F_mit_x5F_claim_x5F_pos"
	 xmlns="http://www.w3.org/2000/svg" xmlns:xlink="http://www.w3.org/1999/xlink" x="0px" y="0px" viewBox="0 0 699.81 176.44"
	 enable-background="new 0 0 699.81 176.44" xml:space="preserve">
<g>
	<path d="M358.69,91.84h10.61c0.51,0,6.43-0.2,6.43-4.63V71.93c0-0.07-0.01-5.72-6.43-5.72h-77.97v44.1h32.21V90.67l18.66,19.65
		h33.53l-5.06-5.48L358.69,91.84z M344.94,84.75h-21.4l0-11.36h21.41V84.75z"/>
	<rect x="399.98" y="66.21" width="33.05" height="44.1"/>
	<polygon points="207.65,75.14 225.04,75.14 225.04,110.31 257.43,110.31 257.43,75.14 273.94,75.14 273.94,66.21 207.65,66.21 	"/>
	<polygon points="675.36,83.85 698.8,66.21 679.82,66.21 667.63,75.49 659.05,66.21 620.82,66.21 644.52,93.07 621.86,110.31 
		639.67,110.31 651.77,101.29 659.74,110.31 699.81,110.31 	"/>
	<polygon points="492.5,66.21 460.48,66.21 460.48,110.31 510.43,110.31 510.43,101.22 492.5,101.22 	"/>
	<path d="M573.8,101.22h-15.9v-35h-32.04v35.72c0,0.28,0.12,8.38,7.77,8.38h63.64c0,0,0.46,0,1.16-0.13
		c0.74-0.14,1.73-0.41,2.7-0.96c1.84-1.03,3.81-3.1,3.81-7.65V66.21H573.8V101.22z"/>
</g>
<g>
	<path d="M231.03,143.74c-3.13,0-5.51-0.67-7.54-2.73l2.61-2.61c1.31,1.3,3.07,1.74,4.99,1.74c2.38,0,3.65-0.9,3.65-2.55
		c0-0.72-0.2-1.33-0.64-1.74c-0.41-0.38-0.87-0.58-1.83-0.73l-2.49-0.35c-1.77-0.26-3.07-0.81-4-1.71
		c-0.99-0.99-1.48-2.32-1.48-4.06c0-3.68,2.73-6.27,7.19-6.27c2.84,0,4.9,0.7,6.67,2.41l-2.55,2.52c-1.31-1.25-2.87-1.42-4.24-1.42
		c-2.15,0-3.19,1.19-3.19,2.61c0,0.52,0.17,1.07,0.61,1.48c0.41,0.38,1.07,0.7,1.91,0.81l2.44,0.35c1.89,0.26,3.07,0.78,3.94,1.59
		c1.1,1.04,1.6,2.55,1.6,4.38C238.69,141.48,235.36,143.74,231.03,143.74z"/>
	<path d="M249.1,143.57v-20.65h4.03v20.65H249.1z"/>
	<path d="M279.23,143.57v-12.04l-3.94,7.83h-2.73l-3.97-7.83v12.04h-4.03v-20.65h3.97l5.4,11.17l5.37-11.17h3.97v20.65H279.23z"/>
	<path d="M302.69,135.79h-3.97v7.77h-4.03v-20.65h8.01c4.26,0,6.82,2.93,6.82,6.44C309.51,132.86,306.96,135.79,302.69,135.79z
		 M302.49,126.51h-3.77v5.66h3.77c1.83,0,2.99-1.13,2.99-2.81C305.48,127.67,304.32,126.51,302.49,126.51z"/>
	<path d="M319.51,143.57v-20.65h4.03v17.06h9.37v3.6H319.51z"/>
	<path d="M342.8,143.57v-20.65h4.03v20.65H342.8z"/>
	<path d="M362.29,126.51v5.08h8.15v3.6h-8.15v8.38h-4.03v-20.65h13.6v3.6H362.29z"/>
	<path d="M389.87,135.1v8.47h-4v-8.47l-6.21-12.18h4.38l3.86,8.33l3.8-8.33h4.38L389.87,135.1z"/>
	<path d="M426.41,135.1v8.47h-4v-8.47l-6.21-12.18h4.38l3.86,8.33l3.8-8.33h4.38L426.41,135.1z"/>
	<path d="M453.93,141.48c-1.45,1.45-3.22,2.26-5.57,2.26s-4.15-0.81-5.6-2.26c-2.09-2.09-2.03-4.67-2.03-8.24
		c0-3.57-0.06-6.15,2.03-8.24c1.45-1.45,3.25-2.26,5.6-2.26s4.12,0.81,5.57,2.26c2.09,2.09,2.06,4.67,2.06,8.24
		C455.99,136.81,456.02,139.39,453.93,141.48z M450.94,127.44c-0.58-0.67-1.48-1.1-2.58-1.1c-1.1,0-2.03,0.44-2.61,1.1
		c-0.78,0.87-0.99,1.83-0.99,5.8c0,3.97,0.2,4.93,0.99,5.8c0.58,0.67,1.51,1.1,2.61,1.1c1.1,0,2-0.44,2.58-1.1
		c0.78-0.87,1.02-1.83,1.02-5.8C451.96,129.27,451.72,128.31,450.94,127.44z"/>
	<path d="M473.99,143.74c-4.24,0-7.6-2.87-7.6-7.25v-13.58h4.03v13.43c0,2.38,1.39,3.8,3.57,3.8c2.18,0,3.6-1.42,3.6-3.8v-13.43h4
		v13.58C481.59,140.87,478.23,143.74,473.99,143.74z"/>
	<path d="M503.66,143.57l-4.03-8.24h-2.9v8.24h-4.03v-20.65h8.09c4.21,0,6.7,2.87,6.7,6.32c0,2.9-1.77,4.7-3.77,5.42l4.61,8.91
		H503.66z M500.53,126.51h-3.8v5.45h3.8c1.77,0,2.93-1.13,2.93-2.73C503.46,127.64,502.3,126.51,500.53,126.51z"/>
	<path d="M531.61,143.57v-20.65h4.03v17.06h9.37v3.6H531.61z"/>
	<path d="M554.9,143.57v-20.65h4.03v20.65H554.9z"/>
	<path d="M583.09,141.39c-1.65,1.71-3.63,2.35-5.83,2.35c-2.26,0-4.12-0.81-5.57-2.26c-2.09-2.09-2.03-4.67-2.03-8.24
		c0-3.57-0.06-6.15,2.03-8.24c1.45-1.45,3.25-2.26,5.57-2.26c4.79,0,7.22,3.13,7.77,6.61h-4.06c-0.46-1.94-1.65-3.02-3.71-3.02
		c-1.1,0-2,0.44-2.58,1.1c-0.78,0.87-0.99,1.83-0.99,5.8c0,3.97,0.2,4.96,0.99,5.83c0.58,0.67,1.48,1.07,2.58,1.07
		c1.22,0,2.2-0.44,2.87-1.16c0.67-0.75,0.93-1.68,0.93-2.76v-0.78h-3.8v-3.36h7.8v3.02C585.06,138.09,584.54,139.88,583.09,141.39z"
		/>
	<path d="M606.79,143.57v-8.64h-6.99v8.64h-4.03v-20.65h4.03v8.44h6.99v-8.44h4.03v20.65H606.79z"/>
	<path d="M630.13,126.51v17.06h-4.03v-17.06h-5.4v-3.6h14.82v3.6H630.13z"/>
</g>
<g>
	<path d="M639.93,143.56v-4.29h4.32v4.29H639.93z"/>
</g>
<linearGradient id="SVGID_1_" gradientUnits="userSpaceOnUse" x1="90.0409" y1="112.011" x2="90.0409" y2="93.5545">
	<stop  offset="0" style="stop-color:#F9F3B2"/>
	<stop  offset="0.044" style="stop-color:#F9F4B8"/>
	<stop  offset="0.2007" style="stop-color:#FAF5C8"/>
	<stop  offset="0.3812" style="stop-color:#FBF6D2"/>
	<stop  offset="0.6046" style="stop-color:#FBF7D9"/>
	<stop  offset="1" style="stop-color:#FBF7DA"/>
</linearGradient>
<path fill-rule="evenodd" clip-rule="evenodd" fill="url(#SVGID_1_)" d="M90.52,111.98c3.82-0.38,6.75-4.49,6.75-9.31
	c0-0.21,0-0.42-0.02-0.64c-0.15-2.84-1.3-5.37-3.15-6.95c-1.35-1.15-2.92-1.67-4.55-1.5c-3.99,0.4-7.01,4.86-6.73,9.95
	c0.15,2.84,1.3,5.37,3.14,6.94C87.32,111.63,88.89,112.15,90.52,111.98z"/>
<linearGradient id="SVGID_2_" gradientUnits="userSpaceOnUse" x1="101.0687" y1="108.2151" x2="101.0687" y2="127.3736">
	<stop  offset="0" style="stop-color:#FEF9D1"/>
	<stop  offset="0.2101" style="stop-color:#FFF5BA"/>
	<stop  offset="0.5573" style="stop-color:#FFEF96"/>
	<stop  offset="0.8327" style="stop-color:#FFEC7C"/>
	<stop  offset="1" style="stop-color:#FFEB72"/>
</linearGradient>
<path fill-rule="evenodd" clip-rule="evenodd" fill="url(#SVGID_2_)" d="M93.73,120.73c0,1.38,0.25,2.67,0.77,3.75
	c0.64,1.34,1.63,2.27,2.87,2.67c3.51,1.13,8.02-2.16,10.06-7.33c1.23-3.14,1.32-6.41,0.22-8.72c-0.64-1.34-1.63-2.26-2.87-2.66
	c-3.51-1.13-8.02,2.16-10.05,7.33C94.06,117.44,93.73,119.15,93.73,120.73z"/>
<linearGradient id="SVGID_3_" gradientUnits="userSpaceOnUse" x1="120.3544" y1="135.2946" x2="120.3544" y2="118.0951">
	<stop  offset="0" style="stop-color:#FAC18A"/>
	<stop  offset="0.1775" style="stop-color:#FACC91"/>
	<stop  offset="0.7231" style="stop-color:#F8E8A4"/>
	<stop  offset="1" style="stop-color:#F7F2AB"/>
</linearGradient>
<path fill-rule="evenodd" clip-rule="evenodd" fill="url(#SVGID_3_)" d="M117.77,135.22c2.8,0.61,6.22-2.74,7.63-7.47
	c0.9-3.02,0.78-6.05-0.32-7.92c-0.54-0.91-1.28-1.48-2.15-1.67c-2.79-0.61-6.22,2.74-7.64,7.46c-0.9,3.02-0.78,6.05,0.32,7.92
	C116.16,134.46,116.9,135.03,117.77,135.22z"/>
<linearGradient id="SVGID_4_" gradientUnits="userSpaceOnUse" x1="126.8643" y1="144.179" x2="134.0427" y2="144.179">
	<stop  offset="0" style="stop-color:#E789A6"/>
	<stop  offset="0.7827" style="stop-color:#BF85B1"/>
	<stop  offset="1" style="stop-color:#B283B4"/>
</linearGradient>
<path fill-rule="evenodd" clip-rule="evenodd" fill="url(#SVGID_4_)" d="M127.64,148.65L127.64,148.65c0.35,0.22,0.78,0.28,1.3,0.17
	c1.27-0.28,2.71-1.49,3.77-3.16c1.53-2.42,1.79-5.14,0.56-5.94c-0.35-0.23-0.79-0.29-1.3-0.17c-1.26,0.27-2.71,1.49-3.76,3.16
	C126.67,145.13,126.41,147.85,127.64,148.65z"/>
<linearGradient id="SVGID_5_" gradientUnits="userSpaceOnUse" x1="132.1735" y1="157.1881" x2="136.5698" y2="159.7263">
	<stop  offset="0" style="stop-color:#8681B1"/>
	<stop  offset="0.5627" style="stop-color:#6F77B0"/>
	<stop  offset="1" style="stop-color:#6071AF"/>
</linearGradient>
<path fill-rule="evenodd" clip-rule="evenodd" fill="url(#SVGID_5_)" d="M137.97,154.87c-0.82-0.71-3.15-0.02-5.3,2.15
	c-1.41,1.41-2.29,3.05-2.25,4.18c0.01,0.37,0.13,0.66,0.34,0.84c0.82,0.71,3.15,0.02,5.31-2.15c1.41-1.41,2.29-3.06,2.25-4.19
	C138.31,155.33,138.19,155.06,137.97,154.87L137.97,154.87z"/>
<linearGradient id="SVGID_6_" gradientUnits="userSpaceOnUse" x1="141.1986" y1="155.3157" x2="147.2699" y2="155.3157">
	<stop  offset="0" style="stop-color:#6071AF"/>
	<stop  offset="1" style="stop-color:#007FBD"/>
</linearGradient>
<path fill-rule="evenodd" clip-rule="evenodd" fill="url(#SVGID_6_)" d="M142.92,154.41c-1.51,1.73-2.14,3.53-1.42,4.03
	c0.72,0.5,2.54-0.5,4.05-2.23c1.51-1.72,2.15-3.52,1.42-4.03C146.24,151.69,144.43,152.69,142.92,154.41z"/>
<linearGradient id="SVGID_7_" gradientUnits="userSpaceOnUse" x1="124.1043" y1="166.3779" x2="128.8556" y2="169.121">
	<stop  offset="0" style="stop-color:#95609F"/>
	<stop  offset="0.4225" style="stop-color:#8467A6"/>
	<stop  offset="1" style="stop-color:#6071AF"/>
</linearGradient>
<path fill-rule="evenodd" clip-rule="evenodd" fill="url(#SVGID_7_)" d="M126.58,166.62c-2.41,1.18-4.4,2.65-4.46,3.27
	c-0.06,0.62,1.84,0.17,4.25-1.01c2.4-1.18,4.4-2.65,4.46-3.26C130.89,164.99,128.99,165.44,126.58,166.62z"/>
<linearGradient id="SVGID_8_" gradientUnits="userSpaceOnUse" x1="108.0346" y1="171.9754" x2="118.8035" y2="171.9754">
	<stop  offset="0" style="stop-color:#DA428C"/>
	<stop  offset="0.1225" style="stop-color:#D3478F"/>
	<stop  offset="0.4718" style="stop-color:#C15296"/>
	<stop  offset="0.7762" style="stop-color:#B6589A"/>
	<stop  offset="1" style="stop-color:#B1599B"/>
</linearGradient>
<path fill-rule="evenodd" clip-rule="evenodd" fill="url(#SVGID_8_)" d="M113.58,170.26c-2.97,0.87-5.45,2.35-5.54,3.3
	c-0.09,0.95,2.25,1.01,5.22,0.13c2.97-0.87,5.45-2.36,5.55-3.3C118.89,169.45,116.55,169.38,113.58,170.26z"/>
<linearGradient id="SVGID_9_" gradientUnits="userSpaceOnUse" x1="93.8554" y1="173.8235" x2="104.3063" y2="173.8235">
	<stop  offset="0" style="stop-color:#E83278"/>
	<stop  offset="0.3104" style="stop-color:#E5327A"/>
	<stop  offset="0.7318" style="stop-color:#DF3381"/>
	<stop  offset="1" style="stop-color:#D93386"/>
</linearGradient>
<path fill-rule="evenodd" clip-rule="evenodd" fill="url(#SVGID_9_)" d="M99.39,171.93c-2.88,0.5-5.36,1.75-5.53,2.79
	c-0.17,1.04,2.02,1.49,4.91,0.99c2.88-0.5,5.35-1.74,5.53-2.79C104.47,171.88,102.27,171.44,99.39,171.93z"/>
<path fill-rule="evenodd" clip-rule="evenodd" fill="#E83278" d="M84.26,172.59c-3.09-0.01-5.88,0.84-6.23,1.91
	c-0.36,1.07,1.86,1.94,4.95,1.95c3.09,0.01,5.88-0.85,6.24-1.91C89.55,173.46,87.35,172.59,84.26,172.59z"/>
<path fill-rule="evenodd" clip-rule="evenodd" fill="#E83270" d="M68.01,171.41c-2.88-0.51-5.6-0.3-6.07,0.47
	c-0.47,0.76,1.47,1.8,4.35,2.3c2.88,0.5,5.6,0.29,6.07-0.47C72.84,172.94,70.89,171.92,68.01,171.41z"/>
<path fill-rule="evenodd" clip-rule="evenodd" fill="#E83270" d="M53.58,168.77c-2.21-0.98-4.25-1.58-4.56-1.34
	c-0.31,0.24,1.23,1.24,3.44,2.22c2.21,0.98,4.25,1.58,4.56,1.34C57.32,170.75,55.78,169.76,53.58,168.77z"/>
<linearGradient id="SVGID_10_" gradientUnits="userSpaceOnUse" x1="119.2325" y1="160.4727" x2="124.2069" y2="163.3447">
	<stop  offset="0" style="stop-color:#B1599B"/>
	<stop  offset="0.2605" style="stop-color:#A360A0"/>
	<stop  offset="0.7856" style="stop-color:#796EAB"/>
	<stop  offset="1" style="stop-color:#6071AF"/>
</linearGradient>
<path fill-rule="evenodd" clip-rule="evenodd" fill="url(#SVGID_10_)" d="M123.45,163.55c1.55-1.35,2.58-2.98,2.61-4.16
	c0.01-0.4-0.1-0.72-0.32-0.93l0,0c-0.83-0.81-3.34-0.28-5.74,1.82c-1.55,1.35-2.58,2.99-2.61,4.17c-0.01,0.4,0.1,0.71,0.32,0.93
	C118.54,166.18,121.04,165.65,123.45,163.55z"/>
<linearGradient id="SVGID_11_" gradientUnits="userSpaceOnUse" x1="112.2897" y1="146.522" x2="118.9887" y2="150.3897">
	<stop  offset="0" style="stop-color:#F08597"/>
	<stop  offset="0.0957" style="stop-color:#EB879B"/>
	<stop  offset="0.3569" style="stop-color:#E08AA3"/>
	<stop  offset="0.6433" style="stop-color:#DA8BA8"/>
	<stop  offset="1" style="stop-color:#D88BA9"/>
</linearGradient>
<path fill-rule="evenodd" clip-rule="evenodd" fill="url(#SVGID_11_)" d="M119.48,149.47c1.19-1.77,1.85-3.54,1.85-4.92
	c0-0.41-0.06-0.78-0.18-1.11c-0.21-0.6-0.62-0.98-1.21-1.16c-2.11-0.62-5.83,1.74-8.14,5.15c-1.55,2.29-2.19,4.6-1.68,6.03
	c0.21,0.6,0.62,0.98,1.21,1.16C113.48,155.25,117.13,152.94,119.48,149.47z"/>
<linearGradient id="SVGID_12_" gradientUnits="userSpaceOnUse" x1="103.1748" y1="162.3958" x2="110.5279" y2="166.6411">
	<stop  offset="0" style="stop-color:#DA428C"/>
	<stop  offset="0.2279" style="stop-color:#D7458D"/>
	<stop  offset="0.5089" style="stop-color:#CD4B91"/>
	<stop  offset="0.8166" style="stop-color:#BE5497"/>
	<stop  offset="1" style="stop-color:#B1599B"/>
</linearGradient>
<path fill-rule="evenodd" clip-rule="evenodd" fill="url(#SVGID_12_)" d="M101.64,168.33c1.55,1.11,5.24,0.25,8.06-1.88
	c1.88-1.42,3.03-3.12,3.01-4.44c-0.01-0.55-0.23-0.99-0.66-1.3c-1.55-1.12-5.24-0.25-8.07,1.88c-1.86,1.41-3.01,3.1-3.01,4.41v0.02
	C100.99,167.58,101.21,168.02,101.64,168.33z"/>
<path fill-rule="evenodd" clip-rule="evenodd" fill="#E83278" d="M96.38,165.49c0.03-0.14,0.05-0.29,0.05-0.43
	c0-0.42-0.14-0.79-0.44-1.12c-1.39-1.58-5.62-1.57-9.24,0.02c-2.43,1.06-4.13,2.61-4.44,4.02c-0.13,0.59,0,1.11,0.39,1.55
	c1.39,1.58,5.62,1.57,9.24-0.02C94.36,168.45,96.06,166.91,96.38,165.49z"/>
<path fill-rule="evenodd" clip-rule="evenodd" fill="#E83270" d="M70.01,164c-3.01,0.03-5.65,0.79-6.57,1.89
	c-0.25,0.3-0.35,0.61-0.3,0.91c0.23,1.37,3.46,2.8,7.9,2.75c3-0.03,5.65-0.78,6.57-1.89c0.21-0.25,0.32-0.5,0.32-0.76
	c0-0.05,0-0.1-0.01-0.15C77.68,165.39,74.46,163.95,70.01,164z"/>
<path fill-rule="evenodd" clip-rule="evenodd" fill="#E8336A" d="M52.87,161.82c-3.36-0.96-6.25-0.56-6.74,0.39
	c-0.1,0.2-0.1,0.42,0.01,0.68c0.37,0.84,1.92,2.02,4.59,2.78c3.37,0.96,6.25,0.57,6.74-0.38c0.05-0.1,0.07-0.2,0.07-0.31
	c0-0.12-0.03-0.24-0.09-0.37C57.1,163.77,55.54,162.58,52.87,161.82z"/>
<linearGradient id="SVGID_13_" gradientUnits="userSpaceOnUse" x1="105.012" y1="150.9953" x2="89.0414" y2="156.8081">
	<stop  offset="0" style="stop-color:#ED6C84"/>
	<stop  offset="0.9351" style="stop-color:#EA4E6A"/>
	<stop  offset="1" style="stop-color:#EA4B68"/>
</linearGradient>
<path fill-rule="evenodd" clip-rule="evenodd" fill="url(#SVGID_13_)" d="M90.36,159.19c2.12,1.38,6.83,0.07,10.5-2.92
	c2.42-1.97,3.86-4.27,3.77-5.99c-0.04-0.73-0.36-1.29-0.95-1.68c-2.12-1.38-6.83-0.07-10.51,2.93c-2.35,1.91-3.78,4.13-3.78,5.83
	c0,0.05,0,0.11,0,0.16C89.45,158.25,89.77,158.81,90.36,159.19z"/>
<linearGradient id="SVGID_14_" gradientUnits="userSpaceOnUse" x1="75.8938" y1="152.9178" x2="75.8938" y2="161.7799">
	<stop  offset="0" style="stop-color:#EB5A6B"/>
	<stop  offset="0.2431" style="stop-color:#E94B64"/>
	<stop  offset="0.5633" style="stop-color:#E8405F"/>
	<stop  offset="1" style="stop-color:#E83C5E"/>
</linearGradient>
<path fill-rule="evenodd" clip-rule="evenodd" fill="url(#SVGID_14_)" d="M78.32,161.11c3.32-0.9,5.91-2.57,6.58-4.25
	c0.26-0.64,0.22-1.25-0.12-1.8c-1.29-2.1-6.46-2.78-11.3-1.47c-3.32,0.89-5.9,2.56-6.58,4.25c-0.26,0.65-0.22,1.25,0.12,1.81
	C68.3,161.75,73.48,162.42,78.32,161.11z"/>
<linearGradient id="SVGID_15_" gradientUnits="userSpaceOnUse" x1="56.0864" y1="152.4226" x2="51.65" y2="160.1066">
	<stop  offset="0" style="stop-color:#EA4B68"/>
	<stop  offset="0.0997" style="stop-color:#E94769"/>
	<stop  offset="0.5852" style="stop-color:#E8386A"/>
	<stop  offset="1" style="stop-color:#E8336A"/>
</linearGradient>
<path fill-rule="evenodd" clip-rule="evenodd" fill="url(#SVGID_15_)" d="M53.77,152.61c-3.09-0.35-5.91,0.18-7.19,1.34
	c-0.45,0.41-0.67,0.87-0.67,1.36c0.03,2.01,3.72,4.11,8.06,4.6c3.08,0.35,5.9-0.17,7.19-1.34c0.45-0.4,0.67-0.86,0.67-1.34v-0.02
	C61.79,155.21,58.11,153.1,53.77,152.61z"/>
<path fill-rule="evenodd" clip-rule="evenodd" fill="#E83270" d="M38.86,153.69c0.1-0.11,0.15-0.25,0.15-0.43
	c0-0.05,0-0.1-0.01-0.16c-0.12-0.8-1.16-2.17-3.2-3.42c-2.6-1.58-5.11-1.9-5.73-1.2c-0.13,0.14-0.17,0.33-0.14,0.58
	c0.12,0.8,1.16,2.17,3.21,3.41C35.73,154.06,38.24,154.38,38.86,153.69z"/>
<path fill-rule="evenodd" clip-rule="evenodd" fill="#E83270" d="M18.12,140.24c-0.63,0.28-0.07,1.88,1.23,3.59
	c1.31,1.71,2.88,2.88,3.51,2.6c0.63-0.27,0.08-1.88-1.23-3.59C20.32,141.12,18.75,139.96,18.12,140.24z"/>
<path fill-rule="evenodd" clip-rule="evenodd" fill="#E83270" d="M19.21,135.44c0.8-0.44,0.34-2.16-1.02-3.83
	c-1.36-1.68-3.11-2.67-3.91-2.22c-0.8,0.44-0.34,2.17,1.02,3.83C16.66,134.9,18.42,135.9,19.21,135.44z"/>
<path fill-rule="evenodd" clip-rule="evenodd" fill="#E83270" d="M7.45,122.51c-0.32,0.1-0.08,1.34,0.52,2.77
	c0.6,1.43,1.35,2.49,1.66,2.39c0.32-0.11,0.08-1.34-0.52-2.77C8.51,123.48,7.77,122.41,7.45,122.51z"/>
<path fill-rule="evenodd" clip-rule="evenodd" fill="#E83270" d="M3.56,109.34c-0.62,0.15-0.69,1.77-0.15,3.59
	c0.53,1.83,1.47,3.19,2.08,3.03c0.62-0.15,0.69-1.77,0.16-3.6C5.11,110.54,4.18,109.19,3.56,109.34z"/>
<path fill-rule="evenodd" clip-rule="evenodd" fill="#E83270" d="M3.55,97.83c-0.46-2.34-1.4-4.16-2.09-4.06
	c-0.7,0.1-0.88,2.08-0.43,4.42c0.46,2.34,1.4,4.16,2.09,4.07C3.82,102.15,4.01,100.18,3.55,97.83z"/>
<path fill-rule="evenodd" clip-rule="evenodd" fill="#E83270" d="M1.58,87.86c0.84,0.14,1.51-2.06,1.48-4.91
	c-0.02-2.85-0.73-5.27-1.58-5.41C0.64,77.4-0.03,79.6,0,82.45C0.03,85.3,0.73,87.72,1.58,87.86z"/>
<path fill-rule="evenodd" clip-rule="evenodd" fill="#E83270" d="M4.79,67.09c0.59-2.86,0.6-5.45,0.02-5.77
	C4.22,61,3.28,63.07,2.69,65.93c-0.59,2.87-0.6,5.46-0.02,5.77C3.25,72.03,4.19,69.96,4.79,67.09z"/>
<path fill-rule="evenodd" clip-rule="evenodd" fill="#E83270" d="M9.45,63.14L9.45,63.14c-0.24-0.04-0.48,0.05-0.72,0.25
	c-0.92,0.8-1.54,3.05-1.55,5.6c-0.02,3.7,1.2,6.45,2.31,6.6c0.24,0.03,0.48-0.05,0.72-0.26c0.92-0.8,1.54-3.05,1.55-5.6
	C11.78,66.03,10.56,63.29,9.45,63.14z"/>
<path fill-rule="evenodd" clip-rule="evenodd" fill="#E83270" d="M10.86,94.63L10.86,94.63c0.43-0.03,0.8-0.26,1.11-0.67
	c0.86-1.17,1.03-3.58,0.42-6.13c-0.86-3.62-3.05-6.56-4.78-6.42c-0.43,0.03-0.81,0.27-1.12,0.69c-0.86,1.18-1.02,3.58-0.41,6.12
	C6.94,91.82,9.13,94.76,10.86,94.63z"/>
<path fill-rule="evenodd" clip-rule="evenodd" fill="#E83270" d="M37.32,157.2c-2.06-1.47-4.22-2.25-4.84-1.72
	c-0.61,0.53,0.56,2.15,2.63,3.62c2.05,1.47,4.22,2.24,4.83,1.72C40.55,160.28,39.38,158.67,37.32,157.2z"/>
<linearGradient id="SVGID_16_" gradientUnits="userSpaceOnUse" x1="58.0427" y1="142.0892" x2="53.1328" y2="150.5933">
	<stop  offset="0" style="stop-color:#EE7676"/>
	<stop  offset="1" style="stop-color:#EA4B68"/>
</linearGradient>
<path fill-rule="evenodd" clip-rule="evenodd" fill="url(#SVGID_16_)" d="M55.86,150.49c2.98,0.2,5.64-0.49,6.95-1.78
	c0.54-0.54,0.8-1.14,0.77-1.79c-0.12-2.27-3.91-4.44-8.26-4.73c-2.98-0.2-5.64,0.49-6.95,1.78c-0.51,0.51-0.77,1.07-0.77,1.67
	c0,0.04,0,0.08,0,0.12C47.72,148.03,51.5,150.2,55.86,150.49z"/>
<path fill-rule="evenodd" clip-rule="evenodd" fill="#E8336A" d="M38.48,143.82L38.48,143.82c0.24-0.36,0.3-0.8,0.17-1.3
	c-0.33-1.25-1.7-2.63-3.59-3.59c-2.75-1.4-5.82-1.47-6.7-0.16c-0.24,0.36-0.3,0.8-0.17,1.31c0.33,1.25,1.7,2.63,3.59,3.59
	C34.54,145.06,37.6,145.14,38.48,143.82z"/>
<linearGradient id="SVGID_17_" gradientUnits="userSpaceOnUse" x1="35.193" y1="128.5705" x2="26.4677" y2="130.109">
	<stop  offset="0" style="stop-color:#EA4B68"/>
	<stop  offset="0.4213" style="stop-color:#E94869"/>
	<stop  offset="0.8214" style="stop-color:#E83B6A"/>
	<stop  offset="1" style="stop-color:#E8336A"/>
</linearGradient>
<path fill-rule="evenodd" clip-rule="evenodd" fill="url(#SVGID_17_)" d="M35.3,132.41c0.29-0.35,0.4-0.81,0.33-1.36
	c-0.17-1.27-1.29-2.76-2.93-3.89c-2.42-1.69-5.33-2.1-6.34-0.88c-0.29,0.35-0.4,0.8-0.33,1.34c0.17,1.27,1.29,2.77,2.93,3.91
	C31.38,133.22,34.29,133.62,35.3,132.41z"/>
<path fill-rule="evenodd" clip-rule="evenodd" fill="#E8336A" d="M16.64,124.22c0.26-0.15,0.43-0.41,0.5-0.77
	c0.03-0.14,0.04-0.3,0.04-0.46c0-0.95-0.5-2.21-1.35-3.37c-1.59-2.17-3.63-3.07-4.54-2.55c-0.26,0.15-0.43,0.4-0.5,0.76
	c-0.21,0.97,0.3,2.48,1.3,3.84C13.69,123.84,15.73,124.74,16.64,124.22z"/>
<path fill-rule="evenodd" clip-rule="evenodd" fill="#0084BC" d="M158.48,137.78c-1.51,2.27-2.43,4.43-1.79,5.02
	c0.65,0.59,2.39-0.78,3.9-3.04c1.5-2.28,2.33-4.4,1.68-4.99C161.63,134.19,159.99,135.51,158.48,137.78z"/>
<linearGradient id="SVGID_18_" gradientUnits="userSpaceOnUse" x1="149.7603" y1="140.1818" x2="154.5082" y2="140.1818">
	<stop  offset="0" style="stop-color:#6071AF"/>
	<stop  offset="1" style="stop-color:#007FBD"/>
</linearGradient>
<path fill-rule="evenodd" clip-rule="evenodd" fill="url(#SVGID_18_)" d="M153.75,135.95c-0.87-0.22-2.48,1.3-3.42,3.82
	c-0.63,1.68-0.75,3.37-0.31,4.2c0.13,0.24,0.3,0.4,0.5,0.45c0.86,0.22,2.48-1.29,3.41-3.82c0.63-1.68,0.76-3.37,0.32-4.2
	C154.12,136.15,153.95,136,153.75,135.95z"/>
<linearGradient id="SVGID_19_" gradientUnits="userSpaceOnUse" x1="139.8141" y1="142.0949" x2="145.0967" y2="142.0949">
	<stop  offset="0" style="stop-color:#95609F"/>
	<stop  offset="0.3556" style="stop-color:#9C69A4"/>
	<stop  offset="0.953" style="stop-color:#B081B2"/>
	<stop  offset="1" style="stop-color:#B283B4"/>
</linearGradient>
<path fill-rule="evenodd" clip-rule="evenodd" fill="url(#SVGID_19_)" d="M144.53,142.78c0.61-1.45,0.74-2.93,0.33-3.85
	c-0.17-0.38-0.42-0.63-0.73-0.74c-1.13-0.39-2.85,1.09-3.75,3.22c-0.61,1.46-0.73,2.93-0.32,3.86c0.17,0.38,0.41,0.62,0.73,0.73
	C141.92,146.38,143.64,144.91,144.53,142.78z"/>
<path fill-rule="evenodd" clip-rule="evenodd" fill="#E83270" d="M23.18,38.01c0.9,0.48,2.64-1.07,3.88-3.44
	c1.24-2.38,1.51-4.7,0.61-5.17c-0.9-0.48-2.64,1.06-3.88,3.44C22.54,35.22,22.28,37.53,23.18,38.01z"/>
<path fill-rule="evenodd" clip-rule="evenodd" fill="#E83270" d="M19.06,36.52c1.57-2.24,2.51-4.43,2.09-4.89
	c-0.42-0.45-2.04,1-3.61,3.24c-1.58,2.25-2.52,4.44-2.1,4.89C15.87,40.22,17.49,38.77,19.06,36.52z"/>
<path fill-rule="evenodd" clip-rule="evenodd" fill="#E83270" d="M34.08,20.72c1.8-1.76,2.91-3.4,2.49-3.66
	c-0.42-0.27-2.21,0.93-4,2.68c-1.79,1.75-2.91,3.39-2.49,3.66C30.49,23.67,32.29,22.47,34.08,20.72z"/>
<path fill-rule="evenodd" clip-rule="evenodd" fill="#E83270" d="M44.29,17.73c1.76-1.67,2.67-3.5,2.02-4.07
	c-0.65-0.58-2.6,0.3-4.36,1.98c-1.76,1.67-2.67,3.5-2.02,4.08C40.58,20.28,42.53,19.4,44.29,17.73z"/>
<linearGradient id="SVGID_20_" gradientUnits="userSpaceOnUse" x1="36.8554" y1="34.2928" x2="32.6962" y2="30.8028">
	<stop  offset="0.1739" style="stop-color:#EF7B42"/>
	<stop  offset="0.3789" style="stop-color:#EC6458"/>
	<stop  offset="0.5991" style="stop-color:#EA4C64"/>
	<stop  offset="0.7759" style="stop-color:#E83A69"/>
	<stop  offset="0.8859" style="stop-color:#E8336A"/>
</linearGradient>
<path fill-rule="evenodd" clip-rule="evenodd" fill="url(#SVGID_20_)" d="M32.38,31.48c-1.27,2.37-1.22,4.77,0.11,5.36
	c1.32,0.59,3.42-0.85,4.68-3.23c1.27-2.37,1.22-4.77-0.1-5.36C35.74,27.66,33.65,29.11,32.38,31.48z"/>
<linearGradient id="SVGID_21_" gradientUnits="userSpaceOnUse" x1="49.0518" y1="32.1084" x2="44.884" y2="28.6112">
	<stop  offset="0" style="stop-color:#FDC533"/>
	<stop  offset="0.2148" style="stop-color:#FCC134"/>
	<stop  offset="0.493" style="stop-color:#FAB536"/>
	<stop  offset="0.8048" style="stop-color:#F6A139"/>
	<stop  offset="1" style="stop-color:#F3903A"/>
</linearGradient>
<path fill-rule="evenodd" clip-rule="evenodd" fill="url(#SVGID_21_)" d="M49.9,26.02c-1.19-0.86-3.48,0.38-5.1,2.77
	c-1.62,2.39-1.96,5.04-0.76,5.9c1.2,0.87,3.48-0.38,5.1-2.77C50.75,29.53,51.09,26.89,49.9,26.02z"/>
<linearGradient id="SVGID_22_" gradientUnits="userSpaceOnUse" x1="38.6812" y1="51.7449" x2="44.3676" y2="55.0279">
	<stop  offset="0" style="stop-color:#FFCD1C"/>
	<stop  offset="0.0352" style="stop-color:#FFCF23"/>
	<stop  offset="0.2181" style="stop-color:#FFD736"/>
	<stop  offset="0.4607" style="stop-color:#FFDB41"/>
	<stop  offset="1" style="stop-color:#FFDC44"/>
</linearGradient>
<path fill-rule="evenodd" clip-rule="evenodd" fill="url(#SVGID_22_)" d="M40.73,58.57c1.59,0.2,3.22-1.94,3.66-4.81
	c0.44-2.86-0.49-5.35-2.08-5.56c-1.58-0.21-3.22,1.94-3.65,4.81C38.22,55.87,39.15,58.36,40.73,58.57z"/>
<linearGradient id="SVGID_23_" gradientUnits="userSpaceOnUse" x1="52.2089" y1="46.7501" x2="58.4571" y2="49.0242">
	<stop  offset="0" style="stop-color:#FBEE75"/>
	<stop  offset="0.2682" style="stop-color:#FAF084"/>
	<stop  offset="0.6896" style="stop-color:#FAF195"/>
	<stop  offset="1" style="stop-color:#FAF19B"/>
</linearGradient>
<path fill-rule="evenodd" clip-rule="evenodd" fill="url(#SVGID_23_)" d="M52.07,47.18c-0.88,2.97-0.14,5.68,1.66,6.07
	c1.8,0.39,3.98-1.7,4.87-4.66c0.88-2.97,0.14-5.68-1.66-6.08C55.14,42.13,52.96,44.22,52.07,47.18z"/>
<linearGradient id="SVGID_24_" gradientUnits="userSpaceOnUse" x1="32.7604" y1="55.7877" x2="26.1484" y2="53.3812">
	<stop  offset="0" style="stop-color:#FBBB21"/>
	<stop  offset="0.1847" style="stop-color:#FAB52F"/>
	<stop  offset="0.4886" style="stop-color:#F6A449"/>
	<stop  offset="0.8721" style="stop-color:#F18562"/>
	<stop  offset="1" style="stop-color:#EF7967"/>
</linearGradient>
<path fill-rule="evenodd" clip-rule="evenodd" fill="url(#SVGID_24_)" d="M26.21,54.9c-0.02,3.17,1.41,5.6,3.21,5.42
	c1.79-0.17,3.25-2.87,3.28-6.05c0.01-3.18-1.42-5.6-3.21-5.44C27.7,49.01,26.23,51.72,26.21,54.9z"/>
<path fill-rule="evenodd" clip-rule="evenodd" fill="#E83270" d="M14.49,52.36c0.99-3.03,0.96-6.04-0.07-6.72
	c-1.03-0.67-2.68,1.24-3.67,4.27c-0.99,3.04-0.96,6.05,0.07,6.72C11.85,57.31,13.5,55.4,14.49,52.36z"/>
<linearGradient id="SVGID_25_" gradientUnits="userSpaceOnUse" x1="23.1976" y1="54.1877" x2="16.4525" y2="51.7327">
	<stop  offset="0" style="stop-color:#EF7B42"/>
	<stop  offset="0.1264" style="stop-color:#ED6955"/>
	<stop  offset="0.2614" style="stop-color:#EB585F"/>
	<stop  offset="0.4066" style="stop-color:#E94865"/>
	<stop  offset="0.5649" style="stop-color:#E83C68"/>
	<stop  offset="0.7458" style="stop-color:#E8356A"/>
	<stop  offset="1" style="stop-color:#E8336A"/>
</linearGradient>
<path fill-rule="evenodd" clip-rule="evenodd" fill="url(#SVGID_25_)" d="M16.4,52.85c-0.52,3.84,0.6,7,2.49,7.06
	c1.89,0.07,3.84-3,4.36-6.83c0.51-3.84-0.6-7.01-2.49-7.07C18.86,45.95,16.91,49.01,16.4,52.85z"/>
<path fill-rule="evenodd" clip-rule="evenodd" fill="#E83270" d="M8.36,52.46c0.9-2.22,1.47-4.26,1.28-4.58
	c-0.19-0.31-1.09,1.24-1.99,3.46c-0.9,2.22-1.47,4.27-1.28,4.58C6.56,56.23,7.45,54.68,8.36,52.46z"/>
<linearGradient id="SVGID_26_" gradientUnits="userSpaceOnUse" x1="68.4623" y1="39.0782" x2="77.5516" y2="39.0782">
	<stop  offset="0" style="stop-color:#FBEF82"/>
	<stop  offset="0.051" style="stop-color:#FAF084"/>
	<stop  offset="0.5975" style="stop-color:#FAF195"/>
	<stop  offset="1" style="stop-color:#FAF19B"/>
</linearGradient>
<path fill-rule="evenodd" clip-rule="evenodd" fill="url(#SVGID_26_)" d="M69.29,43.22c1.44,1.08,4.27,0.11,6.33-2.17
	c2.06-2.29,2.56-5.02,1.12-6.11c-1.43-1.09-4.27-0.11-6.33,2.17C68.34,39.4,67.84,42.13,69.29,43.22z"/>
<path fill-rule="evenodd" clip-rule="evenodd" fill="#E83270" d="M50.6,8.95c2.14-1,4-2.12,4.15-2.49c0.15-0.37-1.47,0.14-3.61,1.15
	c-2.14,1-4,2.11-4.15,2.49C46.84,10.47,48.46,9.97,50.6,8.95z"/>
<linearGradient id="SVGID_27_" gradientUnits="userSpaceOnUse" x1="56.6131" y1="15.9031" x2="54.0301" y2="11.4294">
	<stop  offset="0" style="stop-color:#EF7B42"/>
	<stop  offset="0.2879" style="stop-color:#EC6458"/>
	<stop  offset="0.5972" style="stop-color:#EA4C64"/>
	<stop  offset="0.8455" style="stop-color:#E83A69"/>
	<stop  offset="1" style="stop-color:#E8336A"/>
</linearGradient>
<path fill-rule="evenodd" clip-rule="evenodd" fill="url(#SVGID_27_)" d="M51.59,17.03c0.95,0.96,3.38,0.23,5.44-1.63
	c2.06-1.86,2.96-4.14,2.02-5.11c-0.95-0.96-3.39-0.22-5.44,1.64C51.55,13.79,50.65,16.07,51.59,17.03z"/>
<linearGradient id="SVGID_28_" gradientUnits="userSpaceOnUse" x1="58.8271" y1="25.177" x2="63.1243" y2="27.658">
	<stop  offset="0" style="stop-color:#FFCD1C"/>
	<stop  offset="1" style="stop-color:#FAE55C"/>
</linearGradient>
<path fill-rule="evenodd" clip-rule="evenodd" fill="url(#SVGID_28_)" d="M63.34,22.91c-1.31-0.45-3.43,0.75-4.74,2.69
	c-1.3,1.93-1.3,3.87,0.01,4.32c1.3,0.45,3.43-0.75,4.73-2.68C64.65,25.3,64.65,23.37,63.34,22.91z"/>
<linearGradient id="SVGID_29_" gradientUnits="userSpaceOnUse" x1="24.8618" y1="94.5379" x2="17.8604" y2="97.0862">
	<stop  offset="0" style="stop-color:#EF7B42"/>
	<stop  offset="0.164" style="stop-color:#EE7549"/>
	<stop  offset="0.4534" style="stop-color:#EC6558"/>
	<stop  offset="0.8316" style="stop-color:#E94566"/>
	<stop  offset="1" style="stop-color:#E8336A"/>
</linearGradient>
<path fill-rule="evenodd" clip-rule="evenodd" fill="url(#SVGID_29_)" d="M23.69,102.28c0.64,0.1,1.17-0.02,1.58-0.36
	c0.59-0.48,0.87-1.35,0.87-2.43c0-1.71-0.71-3.95-2.02-5.98c-1.47-2.28-3.47-3.92-5.08-4.17c-0.64-0.1-1.17,0.02-1.58,0.36
	c-1.52,1.24-0.99,5.09,1.16,8.41C20.08,100.39,22.08,102.02,23.69,102.28z"/>
<linearGradient id="SVGID_30_" gradientUnits="userSpaceOnUse" x1="30.4663" y1="113.0361" x2="22.6741" y2="115.8722">
	<stop  offset="0" style="stop-color:#EA4B68"/>
	<stop  offset="0.4213" style="stop-color:#E94869"/>
	<stop  offset="0.8214" style="stop-color:#E83B6A"/>
	<stop  offset="1" style="stop-color:#E8336A"/>
</linearGradient>
<path fill-rule="evenodd" clip-rule="evenodd" fill="url(#SVGID_30_)" d="M31.01,119.09L31.01,119.09c0.43-0.34,0.68-0.85,0.73-1.52
	c0.11-1.52-0.83-3.52-2.46-5.23c-2.4-2.54-5.68-3.7-7.16-2.53c-0.43,0.34-0.67,0.85-0.72,1.52c-0.1,1.52,0.84,3.52,2.46,5.23
	C26.26,119.1,29.54,120.26,31.01,119.09z"/>
<linearGradient id="SVGID_31_" gradientUnits="userSpaceOnUse" x1="22.1079" y1="74.7055" x2="14.9206" y2="74.7055">
	<stop  offset="0" style="stop-color:#EF7B42"/>
	<stop  offset="0.4071" style="stop-color:#EC6459"/>
	<stop  offset="1" style="stop-color:#E8336A"/>
</linearGradient>
<path fill-rule="evenodd" clip-rule="evenodd" fill="url(#SVGID_31_)" d="M18.27,81.44c0.54,0.32,1.07,0.41,1.56,0.25
	c1.84-0.57,2.76-4.26,2.02-8.07c-0.5-2.61-1.72-4.83-3.09-5.65c-0.54-0.33-1.07-0.41-1.56-0.26c-1.83,0.57-2.76,4.27-2.02,8.08
	C15.68,78.4,16.89,80.62,18.27,81.44z"/>
<path fill-rule="evenodd" clip-rule="evenodd" fill="#E83270" d="M13.71,110.33c0.36-0.14,0.63-0.43,0.8-0.87
	c0.13-0.34,0.19-0.75,0.19-1.21c0-1.08-0.36-2.43-1.02-3.72c-1.38-2.68-3.7-4.5-5.08-3.99c-0.36,0.14-0.63,0.43-0.8,0.87
	c-0.44,1.15-0.12,3.09,0.83,4.94C10,109.02,12.33,110.85,13.71,110.33z"/>
<path fill-rule="evenodd" clip-rule="evenodd" fill="#00A1C6" d="M167.87,124.27c-0.77,1.84-1.65,4.82-1.36,5.12
	c0.3,0.31,1.66-2.18,2.44-4.02c0.77-1.84,1.82-4.82,1.52-5.12C170.17,119.95,168.65,122.43,167.87,124.27z"/>
<linearGradient id="SVGID_32_" gradientUnits="userSpaceOnUse" x1="154.4785" y1="119.2241" x2="159.5607" y2="122.1584">
	<stop  offset="0" style="stop-color:#00ACA9"/>
	<stop  offset="0.2743" style="stop-color:#00A9AB"/>
	<stop  offset="0.714" style="stop-color:#00A2B0"/>
	<stop  offset="1" style="stop-color:#009CB4"/>
</linearGradient>
<path fill-rule="evenodd" clip-rule="evenodd" fill="url(#SVGID_32_)" d="M159.36,120.71L159.36,120.71
	c0.28-2.19-0.03-4.19-0.81-5.09c-0.24-0.28-0.51-0.42-0.79-0.43c-1.15-0.02-2.67,2.18-3.09,5.5c-0.28,2.2,0.04,4.2,0.82,5.1
	c0.24,0.27,0.5,0.41,0.79,0.42C157.42,126.22,158.94,124.02,159.36,120.71z"/>
<path fill-rule="evenodd" clip-rule="evenodd" fill="#00A1C6" d="M165.04,118.26c-0.75,0.28-1.87,1.56-2.67,3.8
	c-1.02,2.86-0.84,5.37-0.04,5.84c0.17,0.1,0.36,0.11,0.59,0.02c0.75-0.27,1.87-1.56,2.67-3.81c0.49-1.37,0.7-2.66,0.7-3.68
	c0-1.11-0.25-1.9-0.67-2.15C165.46,118.19,165.27,118.18,165.04,118.26z"/>
<linearGradient id="SVGID_33_" gradientUnits="userSpaceOnUse" x1="143.8625" y1="117.9119" x2="149.8998" y2="120.1093">
	<stop  offset="0" style="stop-color:#9FC582"/>
	<stop  offset="0.1991" style="stop-color:#98C384"/>
	<stop  offset="0.47" style="stop-color:#84BE86"/>
	<stop  offset="0.7807" style="stop-color:#5AB68B"/>
	<stop  offset="1" style="stop-color:#1DAF8E"/>
</linearGradient>
<path fill-rule="evenodd" clip-rule="evenodd" fill="url(#SVGID_33_)" d="M148.3,114.04c-0.42-0.39-0.87-0.56-1.35-0.52
	c-1.61,0.16-2.98,2.82-3,5.8v0.07c0,1.97,0.58,3.72,1.52,4.58c0.42,0.38,0.87,0.55,1.35,0.51c1.61-0.15,2.98-2.8,3-5.79
	C149.83,116.7,149.25,114.92,148.3,114.04z"/>
<linearGradient id="SVGID_34_" gradientUnits="userSpaceOnUse" x1="130.8549" y1="118.0585" x2="138.3597" y2="122.3915">
	<stop  offset="0" style="stop-color:#F2E747"/>
	<stop  offset="0.515" style="stop-color:#DDE168"/>
	<stop  offset="1" style="stop-color:#C5D984"/>
</linearGradient>
<path fill-rule="evenodd" clip-rule="evenodd" fill="url(#SVGID_34_)" d="M138.13,120.32c0.12-2.46-0.51-4.74-1.62-5.94
	c-0.48-0.52-1.01-0.79-1.58-0.8c-1.95-0.05-3.67,2.89-3.84,6.57c-0.11,2.46,0.51,4.73,1.62,5.93c0.48,0.52,1.02,0.79,1.58,0.81
	C136.21,126.94,137.96,123.93,138.13,120.32z"/>
<linearGradient id="SVGID_35_" gradientUnits="userSpaceOnUse" x1="81.2182" y1="138.264" x2="78.9533" y2="151.109">
	<stop  offset="0.163" style="stop-color:#F39476"/>
	<stop  offset="0.5132" style="stop-color:#EF7B72"/>
	<stop  offset="1" style="stop-color:#EA4B68"/>
</linearGradient>
<path fill-rule="evenodd" clip-rule="evenodd" fill="url(#SVGID_35_)" d="M89.09,143.53c0.31-0.95,0.24-1.81-0.21-2.56
	c-1.49-2.5-6.66-2.83-11.53-0.75c-3.19,1.37-5.6,3.52-6.28,5.62c-0.31,0.96-0.24,1.81,0.21,2.55c1.49,2.5,6.66,2.83,11.53,0.75
	C86,147.78,88.41,145.63,89.09,143.53z"/>
<linearGradient id="SVGID_36_" gradientUnits="userSpaceOnUse" x1="103.739" y1="143.6375" x2="101.2377" y2="129.4522">
	<stop  offset="0" style="stop-color:#EE7676"/>
	<stop  offset="0.3913" style="stop-color:#F8B887"/>
	<stop  offset="0.5795" style="stop-color:#FBC27A"/>
	<stop  offset="0.9629" style="stop-color:#FFDA4B"/>
	<stop  offset="1" style="stop-color:#FFDC44"/>
</linearGradient>
<path fill-rule="evenodd" clip-rule="evenodd" fill="url(#SVGID_36_)" d="M95.98,143.73c2.45,1.85,7.36,0.11,10.95-3.87
	c2.31-2.57,3.61-5.61,3.38-7.94c-0.11-1.11-0.56-2-1.31-2.57c-2.45-1.85-7.37-0.11-10.95,3.88c-2.14,2.38-3.41,5.16-3.41,7.4
	c0,0.18,0.01,0.36,0.02,0.53C94.77,142.27,95.22,143.16,95.98,143.73z"/>
<linearGradient id="SVGID_37_" gradientUnits="userSpaceOnUse" x1="77.2218" y1="136.5374" x2="82.2965" y2="122.5949">
	<stop  offset="0" style="stop-color:#F8B887"/>
	<stop  offset="0.0585" style="stop-color:#F9BC88"/>
	<stop  offset="0.4677" style="stop-color:#FED892"/>
	<stop  offset="0.7958" style="stop-color:#FFE897"/>
	<stop  offset="1" style="stop-color:#FFED99"/>
</linearGradient>
<path fill-rule="evenodd" clip-rule="evenodd" fill="url(#SVGID_37_)" d="M77.06,124.28c-3.05,1.17-5.38,3.17-6.23,5.36
	c-0.45,1.17-0.43,2.31,0.06,3.3c1.48,2.94,6.66,3.81,11.56,1.92c3.06-1.17,5.39-3.18,6.24-5.37c0.45-1.17,0.43-2.31-0.06-3.29
	C87.15,123.26,81.96,122.39,77.06,124.28L77.06,124.28z"/>
<linearGradient id="SVGID_38_" gradientUnits="userSpaceOnUse" x1="50.9104" y1="101.8164" x2="64.8689" y2="101.8164">
	<stop  offset="0" style="stop-color:#FFEB72"/>
	<stop  offset="0.8469" style="stop-color:#FFF7C4"/>
	<stop  offset="1" style="stop-color:#FEF9D1"/>
</linearGradient>
<path fill-rule="evenodd" clip-rule="evenodd" fill="url(#SVGID_38_)" d="M51.06,100.91c0.5,1.91,2.12,3.82,4.34,5.1
	c3.6,2.08,7.64,1.89,9.01-0.43c0.47-0.81,0.58-1.8,0.3-2.87c-0.5-1.91-2.12-3.82-4.34-5.1c-3.6-2.08-7.64-1.89-9.01,0.43
	C50.89,98.85,50.79,99.84,51.06,100.91z"/>
<linearGradient id="SVGID_39_" gradientUnits="userSpaceOnUse" x1="51.6991" y1="138.6439" x2="56.5943" y2="130.1652">
	<stop  offset="0" style="stop-color:#F08372"/>
	<stop  offset="0.2176" style="stop-color:#F18774"/>
	<stop  offset="0.4538" style="stop-color:#F2927A"/>
	<stop  offset="0.6989" style="stop-color:#F5A584"/>
	<stop  offset="0.9486" style="stop-color:#F9BD91"/>
	<stop  offset="1" style="stop-color:#FAC294"/>
</linearGradient>
<path fill-rule="evenodd" clip-rule="evenodd" fill="url(#SVGID_39_)" d="M47.52,131.57c-0.64,0.59-0.96,1.31-0.94,2.07
	c0.07,2.46,3.54,4.79,7.74,5.18c2.67,0.25,5.14-0.35,6.46-1.58c0.64-0.6,0.97-1.31,0.94-2.07c-0.07-2.46-3.54-4.79-7.73-5.19
	C51.31,129.73,48.83,130.34,47.52,131.57z"/>
<linearGradient id="SVGID_40_" gradientUnits="userSpaceOnUse" x1="67.5115" y1="121.7699" x2="74.484" y2="109.6932">
	<stop  offset="0" style="stop-color:#FFED99"/>
	<stop  offset="0.5767" style="stop-color:#FFF5BD"/>
	<stop  offset="1" style="stop-color:#FEF9D1"/>
</linearGradient>
<path fill-rule="evenodd" clip-rule="evenodd" fill="url(#SVGID_40_)" d="M72.35,121.33c3.18-0.4,5.84-1.76,7.14-3.63
	c0.51-0.74,0.77-1.52,0.77-2.3c0-0.27-0.03-0.53-0.09-0.8c-0.73-3.11-5.46-5.11-10.53-4.47c-3.17,0.41-5.84,1.76-7.14,3.64
	c-0.69,0.99-0.92,2.06-0.68,3.09C62.55,119.97,67.27,121.97,72.35,121.33z"/>
<linearGradient id="SVGID_41_" gradientUnits="userSpaceOnUse" x1="42.9699" y1="123.1419" x2="53.0122" y2="117.344">
	<stop  offset="0" style="stop-color:#F08372"/>
	<stop  offset="0.0595" style="stop-color:#F18C75"/>
	<stop  offset="0.3152" style="stop-color:#F6AC7E"/>
	<stop  offset="0.5495" style="stop-color:#FAC283"/>
	<stop  offset="0.7528" style="stop-color:#FDCF85"/>
	<stop  offset="0.9022" style="stop-color:#FED386"/>
</linearGradient>
<path fill-rule="evenodd" clip-rule="evenodd" fill="url(#SVGID_41_)" d="M53.72,124.1c0.74-0.5,1.19-1.18,1.29-1.96
	c0.02-0.12,0.03-0.25,0.03-0.37c0-2.35-2.81-4.94-6.51-5.91c-2.46-0.65-4.8-0.45-6.26,0.53c-0.74,0.5-1.19,1.18-1.3,1.96
	c-0.32,2.44,2.59,5.26,6.49,6.29C49.92,125.28,52.26,125.08,53.72,124.1z"/>
<linearGradient id="SVGID_42_" gradientUnits="userSpaceOnUse" x1="41.4667" y1="99.5667" x2="35.4849" y2="104.586">
	<stop  offset="0" style="stop-color:#FED061"/>
	<stop  offset="0.1947" style="stop-color:#FDCA5D"/>
	<stop  offset="0.5079" style="stop-color:#FAB851"/>
	<stop  offset="0.8982" style="stop-color:#F49A3E"/>
	<stop  offset="1" style="stop-color:#F3903A"/>
</linearGradient>
<path fill-rule="evenodd" clip-rule="evenodd" fill="url(#SVGID_42_)" d="M44.03,104.91c0-0.04,0-0.07,0-0.1
	c0-1.63-1.01-3.65-2.67-5.3c-2.58-2.58-6.08-3.56-7.65-2.15c-0.49,0.44-0.76,1.09-0.79,1.89c-0.04,1.65,0.98,3.72,2.66,5.4
	c2.63,2.62,6.06,3.58,7.65,2.16C43.73,106.36,44.01,105.7,44.03,104.91z"/>
<linearGradient id="SVGID_43_" gradientUnits="userSpaceOnUse" x1="40.9392" y1="77.7417" x2="48.9685" y2="81.4858">
	<stop  offset="0" style="stop-color:#FFE63B"/>
	<stop  offset="0.0475" style="stop-color:#FFE742"/>
	<stop  offset="0.4267" style="stop-color:#FFEC67"/>
	<stop  offset="0.7571" style="stop-color:#FCEF7B"/>
	<stop  offset="1" style="stop-color:#FBEF82"/>
</linearGradient>
<path fill-rule="evenodd" clip-rule="evenodd" fill="url(#SVGID_43_)" d="M44.96,74.68c-0.66-0.3-1.3-0.34-1.85-0.12
	c-1.69,0.67-2.24,3.47-1.22,6.26c0.64,1.76,1.78,3.15,3.05,3.72c0.66,0.29,1.3,0.34,1.85,0.12c1.12-0.44,1.74-1.81,1.74-3.49
	c0-0.87-0.17-1.83-0.51-2.78C47.37,76.64,46.23,75.25,44.96,74.68z"/>
<linearGradient id="SVGID_44_" gradientUnits="userSpaceOnUse" x1="26.9049" y1="79.1572" x2="34.3285" y2="79.1572">
	<stop  offset="0" style="stop-color:#F7A941"/>
	<stop  offset="0.2549" style="stop-color:#F9B14D"/>
	<stop  offset="0.7031" style="stop-color:#FCC46D"/>
	<stop  offset="1" style="stop-color:#FED386"/>
</linearGradient>
<path fill-rule="evenodd" clip-rule="evenodd" fill="url(#SVGID_44_)" d="M28.82,73.35c-0.54,0.15-1,0.54-1.33,1.15
	c-0.73,1.32-0.78,3.44-0.14,5.54c0.99,3.21,3.26,5.41,5.06,4.92c0.54-0.14,1-0.54,1.33-1.14c0.73-1.32,0.78-3.44,0.13-5.54
	C32.91,75.12,30.59,72.87,28.82,73.35z"/>
<path fill-rule="evenodd" clip-rule="evenodd" fill="#FBF7DA" d="M77.57,73.1c-0.06,0.5-0.09,0.99-0.09,1.47
	c0,2.29,0.67,4.4,1.91,5.96c1.04,1.3,2.37,2.06,3.86,2.21c3.75,0.37,7.3-3.36,7.91-8.31c0.35-2.83-0.31-5.54-1.82-7.43
	c-1.04-1.3-2.37-2.06-3.86-2.21C81.73,64.42,78.18,68.15,77.57,73.1z"/>
<linearGradient id="SVGID_45_" gradientUnits="userSpaceOnUse" x1="65.5654" y1="91.1536" x2="80.3863" y2="91.1536">
	<stop  offset="0" style="stop-color:#F9F3B2"/>
	<stop  offset="0.1243" style="stop-color:#FAF5BD"/>
	<stop  offset="0.337" style="stop-color:#FCF7C8"/>
	<stop  offset="0.5923" style="stop-color:#FDF8CF"/>
	<stop  offset="1" style="stop-color:#FEF9D1"/>
</linearGradient>
<path fill-rule="evenodd" clip-rule="evenodd" fill="url(#SVGID_45_)" d="M68.74,95.85c1.92,1.83,4.31,2.82,6.55,2.73
	c1.54-0.06,2.84-0.63,3.77-1.66c2.34-2.58,1.52-7.28-1.84-10.47c-1.92-1.83-4.31-2.82-6.54-2.74c-1.54,0.06-2.85,0.63-3.78,1.66
	C64.56,87.97,65.38,92.67,68.74,95.85z"/>
<linearGradient id="SVGID_46_" gradientUnits="userSpaceOnUse" x1="54.7095" y1="72.3956" x2="63.0151" y2="72.3956">
	<stop  offset="0" style="stop-color:#FBEF82"/>
	<stop  offset="1" style="stop-color:#F9F3B2"/>
</linearGradient>
<path fill-rule="evenodd" clip-rule="evenodd" fill="url(#SVGID_46_)" d="M60.14,66.67c-0.77-0.5-1.58-0.66-2.35-0.48
	c-1.85,0.45-3.07,2.77-3.07,5.51c0,0.55,0.05,1.11,0.15,1.68c0.37,2.08,1.39,3.85,2.73,4.73c0.77,0.5,1.58,0.66,2.35,0.48
	c2.22-0.54,3.54-3.77,2.93-7.2C62.49,69.31,61.47,67.55,60.14,66.67z"/>
<linearGradient id="SVGID_47_" gradientUnits="userSpaceOnUse" x1="109.6954" y1="102.946" x2="122.5555" y2="102.946">
	<stop  offset="0" style="stop-color:#FBF7DA"/>
	<stop  offset="0.5874" style="stop-color:#F4F3C4"/>
	<stop  offset="1" style="stop-color:#EEEFB2"/>
</linearGradient>
<path fill-rule="evenodd" clip-rule="evenodd" fill="url(#SVGID_47_)" d="M114.11,111.71c1.19,0.78,2.47,1.04,3.68,0.74
	c3.44-0.83,5.47-5.79,4.54-11.04c-0.57-3.19-2.13-5.9-4.19-7.24c-1.19-0.78-2.46-1.03-3.68-0.74c-3.44,0.84-5.47,5.79-4.54,11.04
	C110.48,107.66,112.05,110.37,114.11,111.71z"/>
<linearGradient id="SVGID_48_" gradientUnits="userSpaceOnUse" x1="77.9267" y1="61.6744" x2="70.4474" y2="55.3986">
	<stop  offset="0" style="stop-color:#FEF9D1"/>
	<stop  offset="1" style="stop-color:#F9F3B2"/>
</linearGradient>
<path fill-rule="evenodd" clip-rule="evenodd" fill="url(#SVGID_48_)" d="M79.43,54.19c-0.35-1.01-0.99-1.74-1.84-2.12
	c-2.44-1.09-5.94,0.95-7.81,4.54c-0.75,1.44-1.14,2.96-1.14,4.33c0,0.7,0.1,1.36,0.31,1.95c0.35,1.01,0.99,1.74,1.84,2.12
	c2.44,1.08,5.94-0.96,7.81-4.54C79.73,58.29,80.05,55.94,79.43,54.19z"/>
<path fill-rule="evenodd" clip-rule="evenodd" fill="#FBF7DA" d="M108.57,91.97c2.98-2.76,2.44-8.25-1.2-12.24
	c-2.09-2.29-4.79-3.66-7.42-3.77c-1.81-0.07-3.38,0.47-4.56,1.56c-2.98,2.77-2.44,8.27,1.2,12.25c2.09,2.29,4.79,3.66,7.41,3.77
	C105.81,93.61,107.39,93.07,108.57,91.97z"/>
<linearGradient id="SVGID_49_" gradientUnits="userSpaceOnUse" x1="68.2069" y1="8.8409" x2="71.7127" y2="13.019">
	<stop  offset="0" style="stop-color:#ED6B62"/>
	<stop  offset="0.1506" style="stop-color:#F0825F"/>
	<stop  offset="0.4044" style="stop-color:#F5A153"/>
	<stop  offset="0.639" style="stop-color:#FAB545"/>
	<stop  offset="0.8449" style="stop-color:#FCC138"/>
	<stop  offset="1" style="stop-color:#FDC533"/>
</linearGradient>
<path fill-rule="evenodd" clip-rule="evenodd" fill="url(#SVGID_49_)" d="M65.9,13.67c1.17,0.95,3.95,0.49,6.19-1.03
	c2.24-1.51,3.11-3.5,1.94-4.46c-1.18-0.94-3.95-0.48-6.19,1.03C65.59,10.74,64.72,12.73,65.9,13.67z"/>
<linearGradient id="SVGID_50_" gradientUnits="userSpaceOnUse" x1="67.7371" y1="4.3096" x2="59.1325" y2="4.3096">
	<stop  offset="0" style="stop-color:#EF7B42"/>
	<stop  offset="0.2139" style="stop-color:#EE714D"/>
	<stop  offset="0.6444" style="stop-color:#EA5461"/>
	<stop  offset="1" style="stop-color:#E8336A"/>
</linearGradient>
<path fill-rule="evenodd" clip-rule="evenodd" fill="url(#SVGID_50_)" d="M63.39,5.53c2.38-0.79,4.33-1.98,4.35-2.65
	c0.03-0.68-1.88-0.59-4.25,0.2c-2.38,0.79-4.33,1.98-4.35,2.66C59.1,6.41,61.01,6.32,63.39,5.53z"/>
<linearGradient id="SVGID_51_" gradientUnits="userSpaceOnUse" x1="75.0306" y1="21.2604" x2="83.4079" y2="21.2604">
	<stop  offset="0" style="stop-color:#FCEB30"/>
	<stop  offset="0.515" style="stop-color:#FCED55"/>
	<stop  offset="1" style="stop-color:#FBEE75"/>
</linearGradient>
<path fill-rule="evenodd" clip-rule="evenodd" fill="url(#SVGID_51_)" d="M82.89,18.39L82.89,18.39c-1.16-0.81-3.82-0.12-5.81,1.5
	c-1.3,1.06-2.08,2.31-2.05,3.28c0.02,0.42,0.19,0.74,0.51,0.97c1.16,0.81,3.83,0.12,5.82-1.5c1.3-1.06,2.08-2.32,2.05-3.29
	C83.39,18.94,83.22,18.61,82.89,18.39z"/>
<linearGradient id="SVGID_52_" gradientUnits="userSpaceOnUse" x1="98.602" y1="1.6342" x2="88.0101" y2="1.6342">
	<stop  offset="0" style="stop-color:#009879"/>
	<stop  offset="0.0678" style="stop-color:#009D76"/>
	<stop  offset="0.4097" style="stop-color:#73BA60"/>
	<stop  offset="0.6895" style="stop-color:#B9D047"/>
	<stop  offset="0.8933" style="stop-color:#DCDD2E"/>
	<stop  offset="1" style="stop-color:#E8E221"/>
</linearGradient>
<path fill-rule="evenodd" clip-rule="evenodd" fill="url(#SVGID_52_)" d="M92.7,3.27c2.91,0.01,5.53-0.72,5.87-1.62
	C98.9,0.74,96.82,0.01,93.91,0c-2.91-0.01-5.53,0.71-5.87,1.62C87.71,2.53,89.8,3.26,92.7,3.27z"/>
<path fill-rule="evenodd" clip-rule="evenodd" fill="#009BA4" d="M108.18,4.32c2.86,0.58,5.58,0.49,6.08-0.2
	c0.51-0.69-1.4-1.72-4.25-2.3c-2.86-0.59-5.58-0.5-6.08,0.2C103.42,2.7,105.33,3.74,108.18,4.32z"/>
<linearGradient id="SVGID_53_" gradientUnits="userSpaceOnUse" x1="72.8048" y1="2.1633" x2="82.3685" y2="2.1633">
	<stop  offset="0.1441" style="stop-color:#EF7B42"/>
	<stop  offset="1" style="stop-color:#FDC533"/>
</linearGradient>
<path fill-rule="evenodd" clip-rule="evenodd" fill="url(#SVGID_53_)" d="M77.3,3.82c2.64-0.43,4.9-1.53,5.06-2.44
	c0.16-0.92-1.85-1.31-4.49-0.87c-2.64,0.44-4.9,1.53-5.06,2.45C72.66,3.87,74.66,4.26,77.3,3.82z"/>
<linearGradient id="SVGID_54_" gradientUnits="userSpaceOnUse" x1="102.6901" y1="14.2045" x2="98.1954" y2="21.9895">
	<stop  offset="0" style="stop-color:#BCCF00"/>
	<stop  offset="0.3894" style="stop-color:#DBD902"/>
	<stop  offset="0.7789" style="stop-color:#F2E011"/>
	<stop  offset="1" style="stop-color:#FBE216"/>
</linearGradient>
<path fill-rule="evenodd" clip-rule="evenodd" fill="url(#SVGID_54_)" d="M94.59,18.43c-0.08,0.2-0.12,0.39-0.12,0.58
	c0,0.23,0.06,0.44,0.18,0.65c0.83,1.43,4.21,1.88,7.37,0.98c2.14-0.61,3.82-1.74,4.28-2.88c0.18-0.44,0.16-0.85-0.06-1.22
	c-0.83-1.44-4.21-1.88-7.37-0.98C96.73,16.17,95.05,17.3,94.59,18.43z"/>
<linearGradient id="SVGID_55_" gradientUnits="userSpaceOnUse" x1="88.5899" y1="5.0796" x2="85.9294" y2="12.3892">
	<stop  offset="0" style="stop-color:#76B458"/>
	<stop  offset="0.1243" style="stop-color:#9BC14E"/>
	<stop  offset="0.2694" style="stop-color:#B9CD42"/>
	<stop  offset="0.4229" style="stop-color:#CFD636"/>
	<stop  offset="0.5867" style="stop-color:#DDDD2B"/>
	<stop  offset="0.7678" style="stop-color:#E6E023"/>
	<stop  offset="1" style="stop-color:#E8E221"/>
</linearGradient>
<path fill-rule="evenodd" clip-rule="evenodd" fill="url(#SVGID_55_)" d="M82.27,10.8c1.04,1.17,4.21,1.16,6.93-0.03
	c1.8-0.79,3.1-1.97,3.33-3c0.09-0.42,0-0.79-0.28-1.1c-1.03-1.17-4.21-1.16-6.93,0.04c-1.79,0.79-3.1,1.97-3.33,3.01
	C81.9,10.13,81.99,10.49,82.27,10.8z"/>
<linearGradient id="SVGID_56_" gradientUnits="userSpaceOnUse" x1="100.1655" y1="66.1653" x2="105.2491" y2="52.1984">
	<stop  offset="0" style="stop-color:#FBF7DA"/>
	<stop  offset="0.3988" style="stop-color:#F6F2B5"/>
	<stop  offset="0.7952" style="stop-color:#F2ED92"/>
	<stop  offset="1" style="stop-color:#F0EB83"/>
</linearGradient>
<path fill-rule="evenodd" clip-rule="evenodd" fill="url(#SVGID_56_)" d="M100.58,53.19c-3.43,0.81-6.2,2.6-7.41,4.8
	c-0.64,1.17-0.78,2.38-0.39,3.49c1.16,3.32,6.57,4.98,12.06,3.69c3.44-0.81,6.21-2.61,7.42-4.81c0.64-1.17,0.78-2.37,0.39-3.48
	C111.48,53.55,106.07,51.89,100.58,53.19z"/>
<linearGradient id="SVGID_57_" gradientUnits="userSpaceOnUse" x1="101.8061" y1="31.154" x2="89.4412" y2="31.154">
	<stop  offset="0" style="stop-color:#F2E747"/>
	<stop  offset="1" style="stop-color:#FCEA10"/>
</linearGradient>
<path fill-rule="evenodd" clip-rule="evenodd" fill="url(#SVGID_57_)" d="M97.47,33.98c2.17-0.9,3.79-2.32,4.23-3.69
	c0.07-0.23,0.11-0.45,0.11-0.66c0-0.32-0.09-0.62-0.26-0.89c-0.98-1.57-4.54-1.76-7.77-0.42c-2.18,0.91-3.8,2.32-4.23,3.69
	c-0.18,0.58-0.14,1.1,0.15,1.55C90.68,35.13,94.24,35.32,97.47,33.98z"/>
<linearGradient id="SVGID_58_" gradientUnits="userSpaceOnUse" x1="99.569" y1="39.2098" x2="92.0882" y2="52.167">
	<stop  offset="0" style="stop-color:#F2E747"/>
	<stop  offset="0.8469" style="stop-color:#F8F1A4"/>
	<stop  offset="1" style="stop-color:#F9F3B2"/>
</linearGradient>
<path fill-rule="evenodd" clip-rule="evenodd" fill="url(#SVGID_58_)" d="M88.03,49.26c1.51,2.56,6.24,3.03,10.55,1.03
	c2.69-1.25,4.67-3.2,5.31-5.22c0.34-1.08,0.25-2.1-0.25-2.96c-1.52-2.56-6.25-3.03-10.55-1.03c-2.69,1.25-4.68,3.2-5.31,5.23
	C87.43,47.39,87.53,48.41,88.03,49.26L88.03,49.26z"/>
<path fill-rule="evenodd" clip-rule="evenodd" fill="#009BA4" d="M123.05,7.57c2.33,0.98,4.49,1.57,4.82,1.34
	c0.33-0.25-1.3-1.24-3.63-2.21c-2.33-0.98-4.49-1.58-4.82-1.33C119.09,5.6,120.72,6.59,123.05,7.57z"/>
<path fill-rule="evenodd" clip-rule="evenodd" fill="#00998B" d="M123,13.27c3.39,1.11,6.31,0.99,6.81,0.18
	c0.05-0.09,0.11-0.22,0.02-0.47c-0.28-0.77-1.85-2.01-4.64-2.92c-3.39-1.11-6.31-0.98-6.8-0.18c-0.05,0.09-0.11,0.22-0.03,0.47
	C118.64,11.12,120.21,12.36,123,13.27z"/>
<linearGradient id="SVGID_59_" gradientUnits="userSpaceOnUse" x1="105.1766" y1="11.4123" x2="107.148" y2="5.9959">
	<stop  offset="0" style="stop-color:#86BC25"/>
	<stop  offset="0.1611" style="stop-color:#78B833"/>
	<stop  offset="0.4455" style="stop-color:#4AAE4C"/>
	<stop  offset="0.8172" style="stop-color:#009F6B"/>
	<stop  offset="1" style="stop-color:#009879"/>
</linearGradient>
<path fill-rule="evenodd" clip-rule="evenodd" fill="url(#SVGID_59_)" d="M106.59,10.97c2.5-0.03,4.69-0.65,5.45-1.56
	c0.2-0.24,0.28-0.47,0.24-0.71c-0.18-1.1-2.91-2.3-6.54-2.26c-2.49,0.02-4.68,0.65-5.45,1.56c-0.2,0.24-0.28,0.47-0.24,0.71
	C100.23,9.81,102.96,11,106.59,10.97z"/>
<linearGradient id="SVGID_60_" gradientUnits="userSpaceOnUse" x1="119.1618" y1="22.2605" x2="124.4935" y2="15.9064">
	<stop  offset="0" style="stop-color:#86BC25"/>
	<stop  offset="0.1551" style="stop-color:#7FBA2D"/>
	<stop  offset="0.361" style="stop-color:#68B53E"/>
	<stop  offset="0.5956" style="stop-color:#36AB53"/>
	<stop  offset="0.8494" style="stop-color:#009F6B"/>
	<stop  offset="1" style="stop-color:#009879"/>
</linearGradient>
<path fill-rule="evenodd" clip-rule="evenodd" fill="url(#SVGID_60_)" d="M122.01,21.89c2.43,0.19,4.62-0.3,5.59-1.24
	c0.33-0.32,0.49-0.67,0.47-1.04c-0.08-1.55-3.03-3.08-6.43-3.34c-2.42-0.19-4.62,0.3-5.59,1.24c-0.31,0.31-0.47,0.64-0.47,0.99
	c0,0.02,0,0.04,0,0.06C115.66,20.1,118.61,21.63,122.01,21.89z"/>
<path fill-rule="evenodd" clip-rule="evenodd" fill="#009BA4" d="M138.62,18.46c2.41,1.68,4.96,2.59,5.69,2.03
	c0.73-0.54-0.63-2.35-3.05-4.03c-2.41-1.68-4.96-2.59-5.68-2.04C134.85,14.97,136.22,16.78,138.62,18.46z"/>
<path fill-rule="evenodd" clip-rule="evenodd" fill="#009BA4" d="M136.76,21.74c-0.11,0.12-0.16,0.27-0.16,0.45
	c0,0.05,0.01,0.11,0.01,0.17c0.13,0.85,1.27,2.29,3.49,3.59c2.83,1.65,5.56,1.97,6.23,1.22c0.14-0.16,0.19-0.36,0.15-0.62
	c-0.13-0.85-1.27-2.28-3.5-3.59C140.16,21.3,137.43,20.99,136.76,21.74z"/>
<linearGradient id="SVGID_61_" gradientUnits="userSpaceOnUse" x1="113.0867" y1="44.2424" x2="128.6658" y2="38.572">
	<stop  offset="0" style="stop-color:#E8E221"/>
	<stop  offset="0.1429" style="stop-color:#E4E024"/>
	<stop  offset="0.3191" style="stop-color:#D7DB2C"/>
	<stop  offset="0.5128" style="stop-color:#C1D237"/>
	<stop  offset="0.7192" style="stop-color:#9EC543"/>
	<stop  offset="0.9335" style="stop-color:#67B54E"/>
	<stop  offset="1" style="stop-color:#4EB051"/>
</linearGradient>
<path fill-rule="evenodd" clip-rule="evenodd" fill="url(#SVGID_61_)" d="M111.98,40.9c0.19,2.59,4.36,4.89,9.29,5.15
	c3.3,0.17,6.24-0.63,7.68-2.1c0.61-0.62,0.89-1.31,0.84-2.05c-0.19-2.54-4.44-4.9-9.29-5.14c-3.3-0.17-6.25,0.63-7.68,2.09
	C112.21,39.48,111.92,40.17,111.98,40.9z"/>
<linearGradient id="SVGID_62_" gradientUnits="userSpaceOnUse" x1="113.8376" y1="31.3557" x2="126.4158" y2="26.7776">
	<stop  offset="0" style="stop-color:#E8E221"/>
	<stop  offset="0.1294" style="stop-color:#E4E023"/>
	<stop  offset="0.2891" style="stop-color:#D7DB29"/>
	<stop  offset="0.4646" style="stop-color:#C1D232"/>
	<stop  offset="0.6516" style="stop-color:#9EC53B"/>
	<stop  offset="0.8455" style="stop-color:#67B545"/>
	<stop  offset="1" style="stop-color:#04A64B"/>
</linearGradient>
<path fill-rule="evenodd" clip-rule="evenodd" fill="url(#SVGID_62_)" d="M126.68,30.76c0.44-0.48,0.63-1,0.57-1.53
	c-0.21-1.96-3.67-3.66-7.55-3.73c-2.68-0.04-5.03,0.68-6.12,1.88c-0.44,0.48-0.63,0.99-0.57,1.53c0.21,1.96,3.67,3.66,7.55,3.72
	C123.24,32.67,125.59,31.95,126.68,30.76z"/>
<linearGradient id="SVGID_63_" gradientUnits="userSpaceOnUse" x1="114.9587" y1="80.1846" x2="119.3905" y2="68.0083">
	<stop  offset="0" style="stop-color:#FBF7DA"/>
	<stop  offset="0.5874" style="stop-color:#F4F3C4"/>
	<stop  offset="1" style="stop-color:#EEEFB2"/>
</linearGradient>
<path fill-rule="evenodd" clip-rule="evenodd" fill="url(#SVGID_63_)" d="M125.64,78.98c0.62-1.06,0.76-2.35,0.39-3.76
	c-0.65-2.48-2.75-4.94-5.62-6.6c-4.67-2.7-9.91-2.44-11.7,0.58c-0.62,1.06-0.76,2.36-0.39,3.76c0.65,2.48,2.75,4.95,5.61,6.6
	C118.6,82.26,123.85,82,125.64,78.98z"/>
<linearGradient id="SVGID_64_" gradientUnits="userSpaceOnUse" x1="118.2048" y1="57.9134" x2="134.5187" y2="51.9756">
	<stop  offset="0" style="stop-color:#E8E221"/>
	<stop  offset="0.1321" style="stop-color:#E0DF28"/>
	<stop  offset="0.3496" style="stop-color:#CBD637"/>
	<stop  offset="0.6256" style="stop-color:#A4C848"/>
	<stop  offset="0.9463" style="stop-color:#5EB459"/>
	<stop  offset="1" style="stop-color:#4DB05B"/>
</linearGradient>
<path fill-rule="evenodd" clip-rule="evenodd" fill="url(#SVGID_64_)" d="M118.08,50.38c-0.85,0.6-1.33,1.36-1.43,2.24
	c-0.01,0.11-0.02,0.23-0.02,0.34c0,2.91,4,6.16,9.18,7.37c3.55,0.83,6.94,0.51,8.84-0.83c0.85-0.6,1.33-1.36,1.43-2.24
	c0.33-2.99-3.79-6.45-9.17-7.71C123.36,48.72,119.97,49.04,118.08,50.38z"/>
<linearGradient id="SVGID_65_" gradientUnits="userSpaceOnUse" x1="153.6856" y1="98.0007" x2="161.1689" y2="98.0007">
	<stop  offset="0" style="stop-color:#6CBE99"/>
	<stop  offset="1" style="stop-color:#00ACA9"/>
</linearGradient>
<path fill-rule="evenodd" clip-rule="evenodd" fill="url(#SVGID_65_)" d="M158.05,104.51c0.56,0.24,1.07,0.26,1.52,0.04
	c1.69-0.78,2.11-4.44,0.92-8.01c-0.81-2.45-2.26-4.44-3.68-5.05c-0.56-0.24-1.07-0.26-1.52-0.05v0c-1.69,0.78-2.12,4.45-0.93,8.01
	C155.18,101.91,156.63,103.89,158.05,104.51z"/>
<linearGradient id="SVGID_66_" gradientUnits="userSpaceOnUse" x1="138.3136" y1="92.6207" x2="150.4883" y2="94.7674">
	<stop  offset="0" style="stop-color:#C4D68C"/>
	<stop  offset="0.2583" style="stop-color:#C0D48C"/>
	<stop  offset="0.5039" style="stop-color:#B5D08C"/>
	<stop  offset="0.7444" style="stop-color:#A2C88D"/>
	<stop  offset="0.9805" style="stop-color:#84BD8D"/>
	<stop  offset="1" style="stop-color:#81BC8D"/>
</linearGradient>
<path fill-rule="evenodd" clip-rule="evenodd" fill="url(#SVGID_66_)" d="M147.6,101.47c0.8-0.28,1.44-0.91,1.85-1.83
	c0.36-0.8,0.54-1.77,0.54-2.84c0-1.46-0.33-3.09-0.98-4.68c-1.76-4.3-5.26-7.08-7.81-6.2c-0.8,0.28-1.44,0.91-1.86,1.83
	c-0.85,1.88-0.68,4.76,0.44,7.51C141.54,99.56,145.05,102.34,147.6,101.47z"/>
<linearGradient id="SVGID_67_" gradientUnits="userSpaceOnUse" x1="123.9761" y1="94.7697" x2="135.9033" y2="94.7697">
	<stop  offset="0" style="stop-color:#EEEFB2"/>
	<stop  offset="0.3567" style="stop-color:#ECEDAF"/>
	<stop  offset="0.6431" style="stop-color:#E6E9A5"/>
	<stop  offset="0.9043" style="stop-color:#DBE196"/>
	<stop  offset="1" style="stop-color:#D6DD8E"/>
</linearGradient>
<path fill-rule="evenodd" clip-rule="evenodd" fill="url(#SVGID_67_)" d="M129.83,102.9c1.11,0.5,2.19,0.57,3.14,0.2
	c1.88-0.74,2.93-3.03,2.93-5.83c0-1.42-0.27-2.97-0.83-4.52c-1.06-2.89-2.94-5.18-5.03-6.11c-1.11-0.5-2.19-0.56-3.14-0.19
	c-2.83,1.11-3.77,5.75-2.09,10.34C125.87,99.68,127.75,101.96,129.83,102.9z"/>
<path fill-rule="evenodd" clip-rule="evenodd" fill="#009CB4" d="M174.37,104.6c-0.7-0.29-1.7,1.23-2.24,3.4
	c-0.55,2.18-0.42,4.19,0.28,4.48c0.7,0.29,1.6-1.46,2.14-3.64C175.09,106.66,175.07,104.89,174.37,104.6z"/>
<path fill-rule="evenodd" clip-rule="evenodd" fill="#00A1C6" d="M167.49,100.04c-0.31-0.03-0.62,0.09-0.91,0.36
	c-0.77,0.71-1.24,2.32-1.2,4.09c0.05,2.56,1.13,4.83,2.37,4.95c0.32,0.03,0.62-0.09,0.91-0.36c0.74-0.69,1.21-2.21,1.21-3.91
	c0-0.06,0-0.12,0-0.18C169.81,102.41,168.72,100.15,167.49,100.04z"/>
<linearGradient id="SVGID_68_" gradientUnits="userSpaceOnUse" x1="143.7077" y1="62.1734" x2="152.2217" y2="57.2578">
	<stop  offset="0" style="stop-color:#76B458"/>
	<stop  offset="0.2048" style="stop-color:#6AB366"/>
	<stop  offset="0.6012" style="stop-color:#41B087"/>
	<stop  offset="1" style="stop-color:#00ACA9"/>
</linearGradient>
<path fill-rule="evenodd" clip-rule="evenodd" fill="url(#SVGID_68_)" d="M141.6,54.02c-0.47,0.43-0.71,1.04-0.71,1.82v0.01
	c0.01,1.97,1.51,4.54,3.91,6.71c3.45,3.11,7.81,4.43,9.53,2.86c0.47-0.43,0.71-1.04,0.71-1.82c0-1.97-1.5-4.54-3.91-6.71
	C147.68,53.77,143.32,52.45,141.6,54.02z"/>
<linearGradient id="SVGID_69_" gradientUnits="userSpaceOnUse" x1="128.0996" y1="72.3235" x2="144.3911" y2="72.3235">
	<stop  offset="0" style="stop-color:#C5D984"/>
	<stop  offset="0.2209" style="stop-color:#C1D885"/>
	<stop  offset="0.4547" style="stop-color:#B4D389"/>
	<stop  offset="0.6944" style="stop-color:#9ECC8F"/>
	<stop  offset="0.9367" style="stop-color:#79C197"/>
	<stop  offset="1" style="stop-color:#6CBE99"/>
</linearGradient>
<path fill-rule="evenodd" clip-rule="evenodd" fill="url(#SVGID_69_)" d="M143.21,79.23c0.74-0.67,1.15-1.64,1.18-2.83
	c0-0.05,0-0.1,0-0.15c0-2.39-1.48-5.34-3.88-7.73c-3.84-3.83-8.88-5.23-11.23-3.12c-0.74,0.67-1.15,1.64-1.18,2.83
	c-0.06,2.42,1.42,5.43,3.88,7.88C135.82,79.95,140.86,81.34,143.21,79.23z"/>
<linearGradient id="SVGID_70_" gradientUnits="userSpaceOnUse" x1="136.0624" y1="33.7147" x2="148.7718" y2="33.7147">
	<stop  offset="0" style="stop-color:#4EB051"/>
	<stop  offset="0.7552" style="stop-color:#00A092"/>
	<stop  offset="1" style="stop-color:#009BA4"/>
</linearGradient>
<path fill-rule="evenodd" clip-rule="evenodd" fill="url(#SVGID_70_)" d="M136.35,30.68c-0.3,0.44-0.37,0.98-0.21,1.6
	c0.39,1.51,2.04,3.16,4.3,4.31c3.3,1.67,6.98,1.74,8.04,0.16c0.3-0.44,0.37-0.98,0.21-1.6c-0.39-1.51-2.04-3.16-4.3-4.3
	C141.09,29.17,137.41,29.09,136.35,30.68z"/>
<linearGradient id="SVGID_71_" gradientUnits="userSpaceOnUse" x1="138.6095" y1="47.255" x2="149.3681" y2="43.3392">
	<stop  offset="0" style="stop-color:#4EB051"/>
	<stop  offset="0.2604" style="stop-color:#2AAB5E"/>
	<stop  offset="0.7623" style="stop-color:#009F7D"/>
	<stop  offset="1" style="stop-color:#00998B"/>
</linearGradient>
<path fill-rule="evenodd" clip-rule="evenodd" fill="url(#SVGID_71_)" d="M146.31,42.09c-3.52-2.06-7.42-2.27-8.69-0.47
	c-0.26,0.37-0.39,0.79-0.39,1.27c0,0.21,0.02,0.43,0.07,0.66c0.36,1.71,2.04,3.61,4.37,4.97c3.46,2.02,7.44,2.23,8.7,0.47
	c0.37-0.52,0.48-1.17,0.32-1.92C150.31,45.36,148.64,43.45,146.31,42.09z"/>
<path fill-rule="evenodd" clip-rule="evenodd" fill="#009CB4" d="M159.11,35.95c0.81-0.44-0.12-2.52-2.07-4.65
	c-1.94-2.14-4.18-3.52-4.98-3.08c-0.81,0.44,0.11,2.53,2.07,4.66C156.07,35.01,158.3,36.39,159.11,35.95z"/>
<path fill-rule="evenodd" clip-rule="evenodd" fill="#00A1C6" d="M170.47,54.42c0.32-0.1-0.36-2.07-1.53-4.41
	c-1.16-2.34-2.37-4.17-2.7-4.07c-0.32,0.09,0.36,2.06,1.53,4.41C168.94,52.69,170.14,54.52,170.47,54.42z"/>
<path fill-rule="evenodd" clip-rule="evenodd" fill="#009CB4" d="M154.98,37.74c-0.15,0.09-0.24,0.25-0.27,0.47
	c-0.01,0.06-0.01,0.13-0.01,0.19c0,0.87,0.69,2.45,2.3,4.22c2.16,2.38,4.54,3.5,5.33,3.02c0.15-0.09,0.24-0.25,0.27-0.47
	c0.12-0.81-0.55-2.5-2.29-4.42C158.16,38.38,155.78,37.26,154.98,37.74z"/>
<path fill-rule="evenodd" clip-rule="evenodd" fill="#009CB4" d="M158.19,49.2c-0.33,0.19-0.54,0.52-0.64,0.98
	c-0.03,0.16-0.05,0.35-0.05,0.54c0,1.18,0.63,2.75,1.7,4.17c1.79,2.4,4.38,3.8,5.66,3.06c0.33-0.19,0.54-0.52,0.64-0.98
	c0.24-1.21-0.4-3.06-1.64-4.71C162.06,49.86,159.47,48.46,158.19,49.2z"/>
<path fill-rule="evenodd" clip-rule="evenodd" fill="#00A1C6" d="M167.6,73.29c0.38-0.17,0.64-0.49,0.8-0.97
	c0.1-0.3,0.14-0.64,0.14-1.02c0-1.18-0.46-2.69-1.29-4.11c-1.6-2.73-4.14-4.52-5.56-3.89c-0.37,0.16-0.64,0.49-0.8,0.96
	c-0.4,1.24,0.05,3.25,1.15,5.13C163.64,72.13,166.18,73.91,167.6,73.29z"/>
<linearGradient id="SVGID_72_" gradientUnits="userSpaceOnUse" x1="149.9355" y1="79.4635" x2="157.2664" y2="75.2309">
	<stop  offset="0" style="stop-color:#6CBE99"/>
	<stop  offset="0.2743" style="stop-color:#5EBB9C"/>
	<stop  offset="0.714" style="stop-color:#28B3A3"/>
	<stop  offset="1" style="stop-color:#00ACA9"/>
</linearGradient>
<path fill-rule="evenodd" clip-rule="evenodd" fill="url(#SVGID_72_)" d="M158.62,84.24c0.59-0.54,0.87-1.44,0.87-2.53
	c0-2.06-1-4.82-2.79-7.27c-1.92-2.61-4.32-4.34-6.26-4.53c-0.76-0.07-1.39,0.11-1.86,0.54c-1.71,1.56-0.82,6.05,1.92,9.79
	c1.92,2.61,4.32,4.34,6.26,4.53C157.53,84.85,158.15,84.67,158.62,84.24z"/>
<path fill-rule="evenodd" clip-rule="evenodd" fill="#00A1C6" d="M173.91,66.53c0.61-0.19,0.37-2.32-0.53-4.74
	c-0.9-2.43-2.13-4.26-2.74-4.06c-0.61,0.19-0.38,2.31,0.53,4.75C172.07,64.9,173.3,66.72,173.91,66.53z"/>
<path fill-rule="evenodd" clip-rule="evenodd" fill="#00A1C6" d="M173.57,72.27c-0.69,0.1-0.88,2.08-0.43,4.42
	c0.46,2.34,1.4,4.16,2.1,4.06c0.7-0.1,0.89-2.08,0.43-4.42C175.21,73.99,174.27,72.17,173.57,72.27z"/>
<path fill-rule="evenodd" clip-rule="evenodd" fill="#00A1C6" d="M175.02,87.79c-0.83-0.12-1.48,1.8-1.45,4.28
	c0.03,2.49,0.73,4.6,1.57,4.72c0.83,0.12,1.48-1.8,1.44-4.29C176.55,90.02,175.85,87.9,175.02,87.79z"/>
<path fill-rule="evenodd" clip-rule="evenodd" fill="#00A4B7" d="M169.62,85.03c-1.02-2.84-3.09-4.95-4.52-4.6
	c-0.38,0.09-0.68,0.34-0.9,0.76c-0.59,1.09-0.51,3.05,0.19,5c1.01,2.83,3.08,4.94,4.52,4.6c0.37-0.09,0.67-0.34,0.9-0.75
	C170.4,88.96,170.32,86.99,169.62,85.03z"/>
<g>
</g>
<g>
</g>
<g>
</g>
<g>
</g>
<g>
</g>
<g>
</g>
</svg>
