<?xml version="1.0" encoding="UTF-8" standalone="no"?>
<!-- Created with Inkscape (http://www.inkscape.org/) -->
<svg
   xmlns:svg="http://www.w3.org/2000/svg"
   xmlns="http://www.w3.org/2000/svg"
   version="1.0"
   width="1488.189"
   height="235.27559"
   id="svg2">
  <defs
     id="defs4">
    <clipPath
       id="clipPath2492">
      <path
         d="M 0,32.854 L 283,32.854 L 283,0.059 L 0,0.059 L 0,32.854 z"
         id="path2494" />
    </clipPath>
    <clipPath
       id="clipPath2468">
      <path
         d="M 0,32.854 L 283,32.854 L 283,0.059 L 0,0.059 L 0,32.854 z"
         id="path2470" />
    </clipPath>
  </defs>
  <g
     transform="translate(-217.41072,-265.75335)"
     id="layer1">
    <g
       transform="matrix(5.0082079,0,0,-5.0082079,252.84378,465.81122)"
       id="g2432">
      <g
         transform="translate(6.9341,11.173)"
         id="g2434">
        <path
           d="M 0,0 L 10.805,0 L 10.805,-2.8868 L -6.9341,-2.8868 L 3.781,10.402 L -6.4819,10.402 L -6.4819,13.289 L 10.761,13.289 L 0,0"
           id="path2436"
           style="fill:#808285;fill-opacity:1;fill-rule:nonzero;stroke:none" />
      </g>
      <g
         transform="translate(33.955,8.2861)"
         id="g2438">
        <path
           d="M 0,0 L 0,2.056 C -1.67,0.6143 -4.01,-0.3242 -5.991,-0.3242 C -10.09,-0.3242 -12.972,2.017 -12.972,6.125 L -12.972,16.175 L -8.962,16.175 L -8.962,5.907 C -8.962,3.641 -7.567,2.441 -4.824,2.441 C -3.021,2.441 -1.312,3.233 0,4.707 L 0,16.175 L 4.002,16.175 L 4.002,0 L 0,0"
           id="path2440"
           style="fill:#808285;fill-opacity:1;fill-rule:nonzero;stroke:none" />
      </g>
      <g
         transform="translate(47.462,24.461)"
         id="g2442">
        <path
           d="M 0,0 L 0,-2.126 C 2.066,-0.469 4.004,0.325 5.896,0.325 C 8.459,0.325 10.575,-0.686 11.926,-2.596 C 13.685,-1.01 15.801,0.325 18.683,0.325 C 22.781,0.325 25.394,-2.2 25.394,-6.013 L 25.394,-16.175 L 21.386,-16.175 L 21.386,-6.164 C 21.386,-3.711 19.493,-2.473 17.198,-2.473 C 15.891,-2.434 14.138,-3.333 12.691,-4.528 L 12.691,-16.175 L 8.688,-16.175 L 8.688,-6.125 C 8.688,-3.495 7.024,-2.473 5.042,-2.473 C 3.015,-2.473 1.664,-2.975 0,-4.528 L 0,-16.175 L -4.009,-16.175 L -4.009,0 L 0,0"
           id="path2444"
           style="fill:#808285;fill-opacity:1;fill-rule:nonzero;stroke:none" />
      </g>
      <g
         transform="translate(83.03,24.461)"
         id="g2446">
        <path
           d="M 0,0 L 6.394,0 L 6.394,-2.886 L 0,-2.886 L 0,-11.167 C 0,-13.071 1.713,-13.618 2.881,-13.618 C 4.322,-13.618 5.808,-13.221 7.432,-12.429 L 7.432,-15.417 C 6.037,-16.03 3.876,-16.5 2.568,-16.5 C -1.798,-16.5 -4.009,-14.333 -4.009,-11.418 L -4.009,-2.886 L -7.522,-2.886 L -7.522,-2.517 L 0,3.351 L 0,0"
           id="path2448"
           style="fill:#808285;fill-opacity:1;fill-rule:nonzero;stroke:none" />
      </g>
      <g
         transform="translate(113.733,16.533)"
         id="g2450">
        <path
           d="M 0,0 C 0,-5.109 -4.454,-8.5713 -10.937,-8.5713 C -17.152,-8.5713 -21.606,-4.97 -21.606,0 C -21.606,4.651 -16.968,8.253 -10.937,8.253 C -4.587,8.253 0,4.791 0,0 z M -17.509,0 C -17.509,-3.417 -14.85,-5.689 -10.982,-5.689 C -6.749,-5.689 -4.091,-3.529 -4.091,-0.033 C -4.091,3.105 -6.972,5.371 -10.982,5.371 C -14.767,5.371 -17.509,3.105 -17.509,0"
           id="path2452"
           style="fill:#808285;fill-opacity:1;fill-rule:nonzero;stroke:none" />
      </g>
      <g
         transform="translate(122.021,23.307)"
         id="g2454">
        <path
           d="M 0,0 C 1.76,1.011 3.557,1.479 5.583,1.479 C 10.632,1.479 14.322,-1.943 14.322,-6.588 C 14.322,-12.066 10.269,-15.345 3.518,-15.345 C 0.853,-15.345 -2.028,-14.875 -4.004,-14.116 L -4.004,9.548 L 0,9.548 L 0,0 z M 0,-11.815 C 1.171,-12.101 2.887,-12.318 4.055,-12.318 C 7.656,-12.318 10.224,-10.118 10.224,-7.059 C 10.224,-3.636 7.974,-1.469 4.595,-1.469 C 2.932,-1.469 1.715,-1.904 0,-3.133 L 0,-11.815"
           id="path2456"
           style="fill:#808285;fill-opacity:1;fill-rule:nonzero;stroke:none" />
      </g>
      <g
         transform="translate(157.603,9.877)"
         id="g2458">
        <path
           d="M 0,0 C -2.432,-1.3008 -4.642,-1.9151 -8.057,-1.9151 C -14.368,-1.9151 -17.879,2.229 -17.879,6.695 C -17.879,11.598 -14.006,14.909 -8.421,14.909 C -3.065,14.909 0.361,11.988 0.361,6.014 L -13.87,6.014 C -13.239,2.809 -10.948,1.146 -7.071,1.146 C -4.642,1.146 -2.347,1.871 0,3.094 L 0,0 z M -3.602,8.214 C -3.739,10.665 -5.495,12.135 -8.331,12.135 C -11.39,12.135 -13.239,10.771 -13.783,8.214 L -3.602,8.214"
           id="path2460"
           style="fill:#808285;fill-opacity:1;fill-rule:nonzero;stroke:none" />
      </g>
      <path
         d="M 162.378,8.2861 L 166.38,8.2861 L 166.38,32.8541 L 162.378,32.8541 L 162.378,8.2861 z"
         id="path2462"
         style="fill:#808285;fill-opacity:1;fill-rule:nonzero;stroke:none" />
      <g
         id="g2464">
        <g
           clip-path="url(#clipPath2468)"
           id="g2466">
          <g
             transform="translate(198.281,21.977)"
             id="g2472">
            <path
               d="M 0,0 L -4.142,0 C -2.569,-1.262 -2.026,-2.167 -2.026,-3.529 C -2.026,-4.863 -2.97,-6.416 -3.916,-7.17 C -6.618,-9.476 -12.111,-8.32 -12.111,-10.229 C -12.111,-11.134 -9.992,-11.675 -5.942,-12.318 C -1.618,-13.005 -0.092,-14.769 -0.092,-16.824 C -0.092,-20.029 -3.646,-21.977 -9.634,-21.977 C -15.08,-21.977 -18.957,-19.923 -18.957,-17.075 C -18.957,-14.702 -17.378,-13.295 -13.862,-12.608 C -15.259,-11.927 -15.889,-11.273 -15.889,-10.554 C -15.889,-9.51 -14.629,-8.61 -12.696,-8.253 L -12.696,-8.181 C -14.184,-7.678 -15.312,-6.991 -16.076,-6.126 C -16.794,-5.294 -17.15,-4.288 -17.15,-3.1 C -17.15,0.358 -13.776,2.484 -8.332,2.484 L 0,2.484 L 0,0 z M -10.583,-14.484 C -13.282,-14.484 -15.176,-15.489 -15.176,-16.935 C -15.176,-18.55 -13.195,-19.421 -9.542,-19.421 C -6.032,-19.421 -3.96,-18.55 -3.96,-17.075 C -3.96,-15.021 -8.1,-14.484 -10.583,-14.484 z M -9.542,-0.29 C -11.749,-0.29 -13.554,-1.625 -13.554,-3.21 C -13.554,-4.975 -11.934,-6.165 -9.499,-6.165 C -7.248,-6.165 -5.63,-4.902 -5.63,-3.132 C -5.63,-1.586 -7.428,-0.29 -9.542,-0.29"
               id="path2474"
               style="fill:#231f20;fill-opacity:1;fill-rule:nonzero;stroke:none" />
          </g>
        </g>
      </g>
      <g
         transform="translate(205.66,24.461)"
         id="g2476">
        <path
           d="M 0,0 L 0,-3.711 L 0.097,-3.711 C 2.118,-0.865 4.057,0.325 5.95,0.325 C 7.569,0.325 9.096,-0.284 10.766,-1.546 L 8.653,-4.321 C 7.432,-3.387 5.859,-2.735 4.915,-2.735 C 2.167,-2.735 0,-5.327 0,-8.101 L 0,-16.175 L -4.004,-16.175 L -4.004,0 L 0,0"
           id="path2478"
           style="fill:#231f20;fill-opacity:1;fill-rule:nonzero;stroke:none" />
      </g>
      <g
         transform="translate(238.438,16.533)"
         id="g2480">
        <path
           d="M 0,0 C 0,-5.109 -4.458,-8.5713 -10.935,-8.5713 C -17.154,-8.5713 -21.609,-4.97 -21.609,0 C -21.609,4.651 -16.974,8.253 -10.935,8.253 C -4.588,8.253 0,4.791 0,0 z M -17.514,0 C -17.514,-3.417 -14.855,-5.689 -10.985,-5.689 C -6.752,-5.689 -4.1,-3.529 -4.1,-0.033 C -4.1,3.105 -6.981,5.371 -10.985,5.371 C -14.77,5.371 -17.514,3.105 -17.514,0"
           id="path2482"
           style="fill:#231f20;fill-opacity:1;fill-rule:nonzero;stroke:none" />
      </g>
      <g
         transform="translate(255.732,8.2861)"
         id="g2484">
        <path
           d="M 0,0 L 0,2.056 C -1.669,0.6143 -4.011,-0.3242 -5.99,-0.3242 C -10.088,-0.3242 -12.969,2.017 -12.969,6.125 L -12.969,16.175 L -8.964,16.175 L -8.964,5.907 C -8.964,3.641 -7.566,2.345 -4.819,2.345 C -3.015,2.345 -1.308,3.255 0,4.729 L 0,16.175 L 4.004,16.175 L 4.004,0 L 0,0"
           id="path2486"
           style="fill:#231f20;fill-opacity:1;fill-rule:nonzero;stroke:none" />
      </g>
      <g
         id="g2488">
        <g
           clip-path="url(#clipPath2492)"
           id="g2490">
          <g
             transform="translate(269.148,0)"
             id="g2496">
            <path
               d="M 0,0 L -4.006,0 L -4.006,24.461 L 2.928,24.461 C 10.316,24.461 14.317,21.575 14.317,16.248 C 14.317,11.391 10.04,7.9619 4.047,7.9619 C 2.751,7.9619 1.532,8.1797 0,8.6826 L 0,0 z M 0,11.658 C 1.218,11.189 2.518,10.844 3.78,10.844 C 7.517,10.844 10.218,13.155 10.218,16.282 C 10.218,19.639 8.016,21.575 3.647,21.575 L 0,21.575 L 0,11.658"
               id="path2498"
               style="fill:#231f20;fill-opacity:1;fill-rule:nonzero;stroke:none" />
          </g>
        </g>
      </g>
    </g>
  </g>
</svg>
