<?xml version="1.0" encoding="utf-8"?>
<!-- Generator: Adobe Illustrator 19.0.0, SVG Export Plug-In . SVG Version: 6.00 Build 0)  -->
<svg version="1.1" id="layer" xmlns="http://www.w3.org/2000/svg" xmlns:xlink="http://www.w3.org/1999/xlink" x="0px" y="0px"
	 viewBox="-153 -46 652 652" style="enable-background:new -153 -46 652 652;" xml:space="preserve">
<style type="text/css">
	.st0{fill:#0364AE;}
	.st1{fill:#FFFFFF;}
</style>
<rect x="-81.3" y="24.8" class="st0" width="500" height="500"/>
<path class="st1" d="M355.1,416.4c-2.2-8-9-12.9-15.7-13.9c-15.5-1.1-27.7,10.4-34.8,21.6c-2.8,4.5-3.2,4.7-7.2,13.4
	c-3.5,7.5-18.8,10.9-23.4,10.9c-7.7,0-12.2-4.8-14.9-10.6c-0.1-0.3,20.7-1.7,31-15c3.2-4.1,5.9-9.4,2.7-16c-2-4.2-7.3-7.6-13.7-7.1
	c0,0-7.1,0.2-11.2,1l14.3-28h-17.8c0,0-8.3,17.6-19.6,37.3c-5.2,9-10.2,16.3-15.5,22.8c-5.8,7.1-11.5,10.7-15.1,10.8
	c-1.2,0.1-2.4,0.2-3.5-1.2c-3.4-4.3,1.3-12.6,4.3-18.9c2.5-5.4,5.7-10.7,7.9-15.5c2.1-4.5-2.7-4.3-5-4.2c-9,0.6-17.3-0.4-26.6,0
	c-9.9,1.1-15.8,7-21.8,13.3c-9.4,9.9-23,25.2-30.1,26.7c-2.2,0.5-3.3,0.4-4.6-0.7c-0.8-0.7-1.5-2.7-1-4.3C137,428,144,418,149,408.2
	h10.7l6-10.4h-12c3.3-6.5,12.7-24.9,12.7-24.9h-16.6c-3.7,7.5-9.4,17.7-13.1,24.9h-10.8l-5.9,10.5h12.7l-1.5,1.9
	c-30.1,37.1-52.6,36.6-52.6,36.6s-5-0.1-5.8-5.6c-0.6-4.5-0.6-7.9,7.1-12.4c15.5-9,28-17.1,34.4-36.5c2.1-6.4,1.4-15.8-4.5-18.8
	c-5.9-3-12-2.7-18.6,0.7c-16,7.3-24.6,28-28,42.6c-1.5,6.7-2.6,7.4-6.7,10.1c-2.6,1.7-15.6,8.3-28.3,13.2
	C16.6,444.6,7.1,447,2,447.2c-1.7,0.1-5.8-0.9-5.5-4.8c0.4-5.3,1.1-7.4,2.3-11.6c1.2-4.3,3.9-10.1,7.2-10.1h27.2c1,0,3,0,3,0
	l6.3-11.6l1.9-3.7H14.9c-1.3,0-2.4-1.3-1.1-3.3c3.6-5.5,7.6-10.2,12.7-14.7c6.5-5.6,33-3.8,33-3.8c1.5-2.9,7.4-14.9,7.4-14.9h-33
	c-11.3,0-21.5,9.1-28,16.6c-11,14.3-20,32.4-24,50.6c-1.3,6-2,12.9,2,18.4c4.3,5.8,12.7,8,19.3,7.3c20.8-2.1,37-11,54.6-19
	c0.8-0.4,1.3-0.7,1.3-0.7c0,3.8,0,8.2,1.3,12c1.8,5.3,8.4,7.7,12.6,7.9c12.7,0.4,23-5.1,32.6-10.9c5.9-3.6,12.3-8.3,12.3-8.3
	c0,1.9-0.3,6,2.2,11.3c2.3,5,6.9,8.3,14.8,7.7c10.2-0.7,18.4-10,24-15.5c0,0,2.3,12.8,9.9,15c8.9,3,22.8-7.7,28-12
	c0,0-0.2,6,2.1,9.4c2.3,3.4,4.2,3.1,5.4,3.1c5.7,0,17-8.7,18.6-10.2c-0.5,1-4.7,10.2-4.7,10.2h17.8l9.8-19.4
	c3.1,5.7,6,13.3,17.9,18.1c13.8,5.5,35.4-7.3,34.7-7.3c3.1,5.1,10.7,8.4,17,8.6c14.5,0.4,26.7-11.3,33.3-21.7
	C352.8,434.3,357.5,424.7,355.1,416.4 M83.6,395.8c10.8-14.9,15.8-12.5,17.5-11.4c0,0,6.5,5.1-7.6,19.4
	c-8.5,8.7-16.3,12.6-17.4,11.6C73.1,412.7,82.1,397.8,83.6,395.8 M176.4,442.6c-7.3-4.4,13.2-29.3,19.9-24.7
	C203.9,421.6,184.1,447.2,176.4,442.6 M260.6,415.3c0.6-1.1,12.4-5.1,15.1-1.9c6.3,7.5-21.2,12.3-21.1,12.2L260.6,415.3z
	 M316.7,443.7c-7.3-3.7,13.2-29.3,19.9-24.7C344.2,422.7,324,449,316.7,443.7"/>
</svg>
