<svg xmlns="http://www.w3.org/2000/svg" viewBox="0 0 164.35 16.44">
  <g id="aa1f1791-b8e8-4153-a47d-b16a378fd75a" data-name="Ebene 2">
    <g id="f2bf11c2-f4f4-46e5-a970-05babf39650c" data-name="Ebene 1">
      <g id="a404ebb6-20d0-4291-a60b-8771003a3320" data-name="a7425553-b10b-46ea-b2b8-c714052c3a90">
        <g id="ec2671c9-4bde-4b71-9b30-267ddbbfa395" data-name="fc8af252-c2f4-47cd-9da8-e619c21b862e">
          <path d="M90.69,0V16.42h8V9.82h3.93v6.6h8V10.88a2.65,2.65,0,0,0-1.8-2.53A2.74,2.74,0,0,0,110.61,6V2.75A2.68,2.68,0,0,0,108,0H90.69Zm12,6.61h-4V3.24h3.92V6.62ZM31.15,9.82h3.71V3.23H31.15Zm9-9.82H25.75a2.66,2.66,0,0,0-2.67,2.65V16.44h8.05V13.21h3.73v3.23h8V2.67A2.68,2.68,0,0,0,40.19,0h0ZM144.5,16.44h8V3.23h3.85V16.44h8V2.65A2.57,2.57,0,0,0,161.88,0H144.5Zm-11.74,0h8.06V0h-8.06Zm-3.42,0V13.2h-7.06V9.82h7.06V6.59h-7V3.23h7V0h-15.1V16.44Zm-54,0V9.82h3.54v6.61h8V0h-8V6.61H75.32V0H67.26V16.44ZM59,16.44V3.25h5.46V0H45.55V3.25H51V16.44Zm-59,0H8V9.82h3.41v6.59h8V9a2.58,2.58,0,0,0-2.49-2.67H15.08L19.89,0h-7L8,5.58V0H0Z" style="fill: red;fill-rule: evenodd"/>
        </g>
      </g>
    </g>
  </g>
</svg>