<?xml version="1.0" encoding="utf-8"?>
<!-- Generator: Adobe Illustrator 19.0.0, SVG Export Plug-In . SVG Version: 6.00 Build 0)  -->
<svg version="1.1" id="layer" xmlns="http://www.w3.org/2000/svg" xmlns:xlink="http://www.w3.org/1999/xlink" x="0px" y="0px"
	 viewBox="-153 -46 652 652" style="enable-background:new -153 -46 652 652;" xml:space="preserve">
<style type="text/css">
	.st0{fill:#009FE8;}
	.st1{fill:#FFFFFF;}
</style>
<rect x="-81.7" y="25.5" class="st0" width="500" height="500"/>
<path class="st1" d="M-61,275.1C-61,148.2,42,45.4,169.2,45.4c127.2,0,230.2,102.9,230.2,229.7c0,126.9-103.1,229.7-230.2,229.7
	C42,504.8-61,402-61,275.1"/>
<path class="st0" d="M-56,275.1C-56,151,44.8,50.4,169.1,50.4c124.3,0,225.1,100.6,225.1,224.7c0,124.1-100.8,224.7-225.1,224.7
	C44.8,499.8-56,399.2-56,275.1"/>
<path class="st1" d="M-43.6,275.5c0-117,95-211.9,212.2-211.9s212.2,94.9,212.2,211.9c0,117-95,211.9-212.2,211.9
	S-43.6,392.5-43.6,275.5"/>
<path class="st0" d="M-33.3,275.6c0-111.3,90.4-201.5,202-201.5c111.6,0,202,90.2,202,201.5c0,111.3-90.4,201.5-202,201.5
	C57.2,477.1-33.3,386.9-33.3,275.6"/>
<path class="st1" d="M-19.5,275c0-104.1,84.5-188.5,188.7-188.5C273.5,86.5,358,170.9,358,275c0,104.1-84.5,188.5-188.7,188.5
	C65,463.5-19.5,379.1-19.5,275"/>
<path class="st0" d="M29.1,312.6c0.1,2.4,1.6,3.3,3.5,3.8c5.5,0.3,12,0.4,17.8,0.2c1.9-0.1,4.5-0.9,4.5-4v-4.4v-100h26.3l0.2,104.6
	c0,1.7,1.6,3.3,3.1,3.6c4.4,0.4,13.8,0.4,18.2,0c2.1,0,3.8-1,3.8-3.6c0-6.5,0.1-16.5,0.1-16.5v-88.2h25.9l-0.2,112.8
	c-0.7,6.7-4,13.5-10.2,17.3c-9.3,6-27.8,4-33.9,3.5c-6.4-1.1-12.8-3.5-16.6-9.5c-2.6-3.6-3.3-8.2-3.8-12.8l-0.2,0.2
	c-0.4,8.2-4.4,17-12.8,20.2c-9.1,3.5-20.2,2.3-30.8,2c-6.4-0.7-12.6-3.8-16.4-9.7c-2.7-4.4-3.6-9.5-3.8-14.8V208.1h25.4l0.2,100
	L29.1,312.6z M158.7,342.1h25.7v-134h-25.7V342.1z M266.7,208.3c-9.1-0.9-20.7-1.2-31.2-0.5c-5.3,0.6-10.3,2-14.6,4.5
	c-6.4,4-9.3,10.6-10,17.7c0,10.7,0,21.1-0.2,31.3c0.4,5.9,1.5,11.4,4.2,16.3c5,7.8,12.8,9.9,21.3,10.3c7.2,0.4,15,0.1,22,0.1
	c3.2,0,3.6,1.4,3.6,3.3c0,7.7,0,13.4,0,21.6c0,2.7-0.7,4-2.5,4c-5.2,0-13.8,0.2-20.3,0c-2.1,0-2.7-2.1-2.7-4c0-4.1,0-8.3,0.1-11.9
	l-25.4-0.1c0,5.1,0,10.7-0.2,16c0.1,3.3,0.5,6.5,1.4,9.5c2.6,9.1,12,14.9,21.2,15.7c9.1,0,19.4,0.5,28.4,0.2
	c5.7-0.4,11.2-1.5,15.9-4.2c6.4-3.6,10.8-9.9,10.8-16.8l-0.2-33.6c0.2-5.3-0.9-10.2-3.5-14.6c-5.3-8.7-13.9-10.5-23.2-10.7
	c-7.2-0.2-14.8-0.2-21.9-0.2c-2.4,0-3.6-1.3-3.6-3.6l0.1-21.2c-0.1-1.9,0.6-3.8,3.1-3.8l19.6,0.1c2.1-0.3,2.9,1.3,3.1,2.9l-0.1,12.4
	h26.3c0.2-6.1,0.2-11.5,0-17.1c-0.2-4.2-0.9-8.3-2.9-11.7C281.5,213,274,209.6,266.7,208.3 M313.8,342.1h25.9v-134h-25.9V342.1z"/>
<path class="st0" d="M318.7,187H307c-38.1-58-102.4-84.8-170.8-72.2c-41.8,8-81.2,33.9-105.8,72.2L20,187.1
	c22.5-37.1,55.4-63.3,93.5-76.1c27.2-9.1,57-11.5,87.7-6.3c18.9,3.9,36.7,10.4,52.8,19.2C280.5,138.6,302.7,159.8,318.7,187
	 M284.7,187c-18.6-24.4-43.6-41-70.4-49.9c-26.8-8.5-54.3-9.3-80-3.2c-31.6,7.6-60.4,25.7-81.5,53.1h7.7
	c19-22.6,42.9-37.7,68.6-45.4c54.9-15.5,111.3,1.6,147.8,45.4H284.7 M20,363c25.9,44.5,71.3,74.2,119.2,82.4
	c73,11.7,141.1-19.5,179.6-82.4l-11.1,0.4c-24.6,38.8-64.4,64.5-106.6,72.9c-68.6,12.8-133-14.9-171.2-73.1L20,363z M52.3,363.2
	c22.1,28.8,52.9,48,85.7,55.3c57.7,11.7,111.2-9,147.3-55.1h-7.8c-20.1,24.2-45.4,39.9-73.4,47.4c-54.6,13.3-108.4-4.4-144.2-47.6
	H52.3z"/>
</svg>
