<?xml version="1.0" encoding="utf-8"?>
<!-- Generator: Adobe Illustrator 27.8.0, SVG Export Plug-In . SVG Version: 6.00 Build 0)  -->
<svg version="1.1" id="Ebene_1" xmlns="http://www.w3.org/2000/svg" xmlns:xlink="http://www.w3.org/1999/xlink" x="0px" y="0px"
	 viewBox="0 0 600.2 155.6" style="enable-background:new 0 0 600.2 155.6;" xml:space="preserve">
<style type="text/css">
	.st0{fill:#FFFFFF;}
	.st1{fill:none;}
</style>
<polygon id="k_00000024706787670468473530000010548073524786022802_" class="st0" points="65.6,51.5 51.5,51.5 51.5,103 65.6,84.6 
	"/>
<path id="ontron_00000154407651936324213510000001338523896760135822_" class="st0" d="M95.5,65.6l-14.8,19L95.2,103H78.5L65.6,84.6
	l14.5-18.9L95.5,65.6z M117.1,64.5c-11.7,0-21.7,6-21.7,19.8s10,19.8,21.7,19.8s21.7-6,21.7-19.8C138.9,70.6,128.8,64.5,117.1,64.5z
	 M109.9,84.3c0-5.3,1.3-11.6,7.2-11.6s7.2,6.3,7.2,11.6s-1.3,11.6-7.2,11.6S109.9,89.6,109.9,84.3z M169.6,64.5
	c-4.8,0-8.5,1.5-11.7,5.2l-0.2-4.1h-13.9v37.3h14.1V81.5c0-0.4-0.9-8.1,6.1-8.1c4.4,0,5.3,3.9,5.4,7.6v21.9h14.1v-25
	C183.5,69.7,177.6,64.5,169.6,64.5L169.6,64.5z M189.7,91.2c-0.7,11.5,5.1,12.8,14.7,12.8c2.1,0,4.4-0.1,7.6-0.7v-8.4
	c-1.6,0.2-3.6,0.2-5.4,0.2c-3.3,0-2.7-4.8-2.7-5.8V74.5h8.2v-8.8h-8.2V51.5l-14.1,18.4L189.7,91.2z M232.6,65.6h-13.9v37.3h14.1v-15
	c-0.2-7.1,2.3-11.5,9.7-11.6c1,0,1.9,0,3,0.1V64.5c-6.2-0.1-10.9,1.9-12.5,8.1h-0.1L232.6,65.6L232.6,65.6z M269.2,64.5
	c-11.7,0-21.7,6-21.7,19.8s10,19.8,21.7,19.8s21.7-6,21.7-19.8S280.8,64.5,269.2,64.5z M262,84.3c0-5.3,1.3-11.6,7.2-11.6
	s7.2,6.3,7.2,11.6s-1.3,11.6-7.2,11.6S262,89.6,262,84.3z M321,64.5c-4.8,0-8.5,1.5-11.7,5.2l-0.2-4.1h-13.9v37.3h14.1V81.6
	c0-0.4-0.9-8.1,6.1-8.1c4.4,0,5.3,3.9,5.4,7.6V103h14.1V78C335,69.7,329,64.5,321,64.5L321,64.5z"/>
<path class="st0" d="M455.3,102.7V69.9l13.8-18.4v51.2H455.3z"/>
<path class="st0" d="M501.3,102.7c-0.2-1-0.4-1.9-0.5-2.8s-0.2-2-0.3-3.3c-1.3,2.5-2.9,4.3-4.9,5.3c-2,1-4.4,1.5-7.4,1.5
	c-3.8,0-6.8-1-9-2.9c-2.2-1.9-3.3-4.8-3.3-8.7c0-2.6,0.5-4.6,1.6-6.3c1.1-1.6,2.5-3,4.4-3.9c1.9-1,4.1-1.6,6.7-2s5.3-0.6,8.3-0.6
	h3.5v-2.3c0-1.6-0.4-2.9-1.1-4.2s-1.9-1.9-3.7-1.9s-2.9,0.5-3.7,1.4c-0.8,0.9-1.1,2.1-1.1,3.7h-13.1c0.1-2.5,0.7-4.6,1.9-6.1
	s2.7-2.7,4.4-3.5s3.6-1.4,5.7-1.7c2-0.3,3.9-0.4,5.7-0.4c3.3,0,6.1,0.3,8.5,0.8s4.3,1.6,5.8,3c1.3,1.2,2.2,2.7,2.8,4.4
	s0.9,4,0.9,6.9v12.6c0,2.2,0,4.2,0.1,5.8c0,1.6,0.2,3.4,0.5,5.3L501.3,102.7L501.3,102.7z M500.4,84.9c-0.8-0.1-1.5-0.1-2.2-0.1
	h-1.4c-1,0-2,0.1-3,0.3s-1.9,0.6-2.7,1.1s-1.4,1.1-1.9,1.9c-0.5,0.8-0.7,1.7-0.7,2.8c0,1.5,0.5,2.7,1.4,3.6c0.9,0.9,2,1.4,3.4,1.4
	s2.5-0.3,3.5-0.9c0.9-0.6,1.7-1.4,2.2-2.5c0.6-1,1-2.2,1.2-3.5C500.3,87.7,500.4,86.3,500.4,84.9L500.4,84.9z"/>
<path class="st0" d="M535.8,65.7h-13.9V103H536V88c-0.2-7.1,2.3-11.5,9.7-11.6c1,0,1.9,0,3,0.1V64.6c-6.2-0.1-10.9,1.9-12.5,8.1
	h-0.1L535.8,65.7L535.8,65.7z"/>
<path class="st0" d="M427.6,64c-11.7,0-21.7,6-21.7,19.8s10,19.8,21.7,19.8s21.7-6,21.7-19.8S439.2,64,427.6,64z M427.6,95.4
	c-6,0-7.2-6.3-7.2-11.6s1.3-11.6,7.2-11.6s7.2,6.3,7.2,11.6S433.5,95.4,427.6,95.4z"/>
<path class="st0" d="M364.4,102.7V89l2.6-0.1c5.7-0.2,8.5-2.4,15-15.9c2.6-5.5,5-9.4,7.6-12.5c3.4-4,7.1-6.6,11.5-7.9
	c2.1-0.6,4.5-1.2,7.2-1.1l2.7,0.1v13.3l-2.7,0.1c-1.7,0-3.3,0.6-5,1.6l0,0c-3.4,2.1-6.5,6.6-9.6,13.8c-6.4,15-15.1,22.3-26.5,22.4
	L364.4,102.7L364.4,102.7z"/>
<rect class="st1" width="600.2" height="155.6"/>
</svg>
