<svg id="Ebene_1" data-name="Ebene 1" xmlns="http://www.w3.org/2000/svg" viewBox="0 0 74.91 30"><defs><style>.cls-1{fill:#100c08;}</style></defs><title>ABL_logo</title><path class="cls-1" d="M74.91,28.71V26.41a1.29,1.29,0,0,0-1.29-1.29H64a0.87,0.87,0,0,1-.87-0.87v-23A1.29,1.29,0,0,0,61.88,0H58.82a1.29,1.29,0,0,0-1.29,1.29V28.71A1.29,1.29,0,0,0,58.82,30h14.8a1.29,1.29,0,0,0,1.29-1.29h0Z"/><path class="cls-1" d="M16.19,28.71V25.78a1.29,1.29,0,0,0-1.29-1.29H11.77a1.29,1.29,0,0,0-1.29,1.29v2.92A1.29,1.29,0,0,0,11.77,30H14.9a1.29,1.29,0,0,0,1.29-1.29h0Z"/><path class="cls-1" d="M26.78,29.13a0.86,0.86,0,0,0,0-.28l-10-27.75h0A1.74,1.74,0,0,0,15.13,0H11.64A1.74,1.74,0,0,0,10,1.1h0L0,28.85a0.86,0.86,0,0,0,0,.28A0.87,0.87,0,0,0,.87,30H4.41a1.75,1.75,0,0,0,1.64-1.16S9.58,18,10.89,14.07c0.86-2.58,2.2-7.08,2.34-7.8h0a0.16,0.16,0,0,1,.16-0.14h0a0.16,0.16,0,0,1,.16.14h0C13.68,7,15,11.49,15.89,14.07c1.3,3.91,4.84,14.78,4.84,14.78A1.75,1.75,0,0,0,22.37,30h3.54a0.87,0.87,0,0,0,.87-0.87h0ZM15.14,3.49h0Z"/><path class="cls-1" d="M41.62,30h-9.7a1.29,1.29,0,0,1-1.29-1.29V1.29A1.29,1.29,0,0,1,31.92,0h9.7c6.45,0,8.88,3.27,9,7.5,0.14,3.74-1,5.52-3.12,6.34h0a0.15,0.15,0,0,0-.1.14,0.15,0.15,0,0,0,.09.14h0c3.3,0.88,4.59,4.33,4.46,7.74C51.8,27.22,48.26,30,41.62,30h0M37.14,16.79h0a0.87,0.87,0,0,0-.87.87v6.76a0.87,0.87,0,0,0,.87.87h3.92c2.27,0,4.68-.5,4.68-4.12,0-2.93-1-4.38-4.68-4.38H37.14m0-12.08a0.87,0.87,0,0,0-.87.87V11.3a0.87,0.87,0,0,0,.87.87h3.55c2.41,0,4-.42,4-3.73,0-2.48-.9-3.73-4-3.73H37.14"/></svg>