<?xml version="1.0" encoding="UTF-8"?>
<svg id="Logo" xmlns="http://www.w3.org/2000/svg" version="1.1" viewBox="0 0 226.77 110.95">
  <defs>
    <style>
      .cls-1, .cls-2 {
        fill: #1d1d1b;
      }

      .cls-1, .cls-2, .cls-3 {
        stroke-width: 0px;
      }

      .cls-2, .cls-3 {
        fill-rule: evenodd;
      }

      .cls-3 {
        fill: #009ee2;
      }
    </style>
  </defs>
  <g>
    <path class="cls-2" d="M70.63,53.62c0-1.3-.76-2.56-2.29-2.88v-.04c1.22-.48,2.04-1.61,2.04-2.88,0-2.06-1.55-3.19-4.34-3.19-1.59,0-3.27.04-4.36.1v12.88c1.62,0,2.98.04,3.76.04,3.9,0,5.18-2.14,5.18-4.01h0ZM67.77,48.21c0,1.15-.88,1.83-2.58,1.83-.4,0-.71,0-1.01-.02v-3.36c.44-.02.94-.04,1.45-.04,1.57,0,2.14.63,2.14,1.59h0ZM67.98,53.67c0,1.17-.82,1.93-2.45,1.93-.57,0-1.05-.04-1.36-.08v-3.61c.27-.02.9-.02,1.09-.02,1.62,0,2.71.52,2.71,1.78h0Z"/>
    <path class="cls-1" d="M83.89,52.58v-7.89h-2.46v8.04c0,2.2-.8,3-2.71,3-2.14,0-2.67-1.15-2.67-2.77v-8.27h-2.48v8.43c0,2.46.92,4.68,4.99,4.68,3.4,0,5.35-1.68,5.35-5.22h0Z"/>
    <path class="cls-1" d="M94.83,53.6c0-4.03-5.43-3.17-5.43-5.48,0-.92.73-1.57,2.16-1.57.78,0,1.7.16,2.42.37l.02-2.21c-.76-.13-1.6-.23-2.33-.23-3.09,0-4.91,1.59-4.91,3.88,0,4.24,5.41,3.11,5.41,5.58,0,1.18-.97,1.7-2.24,1.7-.94,0-2.08-.24-2.81-.49l-.04,2.34c.8.21,1.72.31,2.64.31,3.17,0,5.1-1.78,5.1-4.2h0Z"/>
    <path class="cls-1" d="M106.41,57.19l-.29-2.22c-.67.31-1.72.53-2.5.53-2.6,0-3.76-1.57-3.76-4.38,0-2.5,1.18-4.32,3.59-4.32.88,0,1.76.13,2.6.38l.27-2.25c-.84-.23-1.81-.34-2.73-.34-4.32,0-6.46,2.87-6.46,6.95,0,3.21,1.45,6.21,5.96,6.21,1.2,0,2.37-.23,3.32-.57h0Z"/>
    <polygon class="cls-1" points="119.76 57.59 119.76 44.69 117.27 44.69 117.27 49.85 111.81 49.85 111.81 44.69 109.33 44.69 109.33 57.59 111.81 57.59 111.81 51.99 117.27 51.99 117.27 57.59 119.76 57.59 119.76 57.59"/>
    <polygon class="cls-1" points="127.82 51.97 127.82 50.02 123.12 50.02 123.12 51.97 127.82 51.97 127.82 51.97"/>
    <path class="cls-1" d="M134.14,53.98v-9.28h-2.48v9.19c0,1.39-.52,1.78-1.41,1.78-.46,0-.88-.08-1.18-.19v2.14c.44.08.92.15,1.61.15,2.62,0,3.48-1.66,3.48-3.78h0Z"/>
    <path class="cls-2" d="M148.18,57.59l-4.6-12.9h-2.81l-4.51,12.9h2.5l.9-2.64h4.87l.9,2.64h2.75ZM143.88,52.98h-3.59l1.16-3.29c.25-.75.46-1.49.61-2.16h.02c.15.73.34,1.36.59,2.06l1.2,3.38h0Z"/>
    <polygon class="cls-1" points="157.33 57.59 157.33 55.47 152.8 55.47 152.8 51.97 157.1 51.97 157.1 49.95 152.8 49.95 152.8 46.78 157.33 46.78 157.33 44.69 150.31 44.69 150.31 57.59 157.33 57.59 157.33 57.59"/>
    <path class="cls-1" d="M170.74,45.06c-1.11-.32-2.37-.55-3.65-.55-4.47,0-7.22,2.88-7.22,6.93s2.43,6.34,6.51,6.34c1.55,0,3.13-.29,4.41-.8v-6.15h-2.48v4.49c-.5.15-1.03.23-1.64.23-2.62,0-4.11-1.6-4.11-4.34,0-2.88,1.83-4.49,4.37-4.49,1.2,0,2.39.25,3.42.65l.38-2.31h0Z"/>
    <polygon class="cls-1" points="181.2 57.59 181.2 55.47 176.67 55.47 176.67 51.97 180.97 51.97 180.97 49.95 176.67 49.95 176.67 46.78 181.2 46.78 181.2 44.69 174.19 44.69 174.19 57.59 181.2 57.59 181.2 57.59"/>
    <path class="cls-2" d="M193.63,57.59l-3.1-4.34c-.32-.44-.69-.94-1.05-1.41,1.95-.31,3.29-1.68,3.29-3.59,0-2.64-1.83-3.63-4.68-3.63-1.49,0-2.69.02-3.71.08v12.9h2.48v-5.33h.1l3.59,5.33h3.08ZM190.18,48.49c0,1.2-.92,1.97-2.41,1.97-.38,0-.73-.02-.9-.04v-3.73c.25-.04.61-.06.97-.06,1.57,0,2.33.61,2.33,1.85h0Z"/>
  </g>
  <path class="cls-3" d="M34.73,66.63c-1.04-1.86-1.47-2.18-1.6-3.52,0-1.68,1.36-3.02,3.05-3.02h3.25c1.13,0,2.05.92,2.05,2.05s-.92,2.02-2.05,2.02h-1.46l4.25,7.33,4.5-7.33h-1.46c-1.13,0-2.05-.89-2.05-2.02s.92-2.05,2.05-2.05h3.25c1.68,0,3.05,1.34,3.05,3.02,0,.52-.13.99-.36,1.42l-7.31,12.46c-.7,1.09-2.37,1.15-3.18-.04-1.77-3.09-4.37-7.46-5.97-10.32M44.57,47.15c1.74-.84,2.99-2.65,2.99-4.7,0-2.84-2.38-5.1-5.22-5.1s-5.07,2.26-5.07,5.1c0,2.05,1.29,3.77,2.84,4.7,2.52,1.3.69,4.92-1.86,3.51-2.98-1.51-5.11-4.63-5.11-8.22,0-5.08,4.12-9.2,9.2-9.2s9.2,4.12,9.2,9.2c0,3.65-2.13,6.81-5.21,8.29-2.12,1.28-4.46-2.07-1.77-3.59M49.33,53.08c1.23,0,2.23,1.01,2.23,2.25s-1,2.25-2.23,2.25h-13.98c-1.23,0-2.23-1.01-2.23-2.25s1-2.25,2.23-2.25h13.98Z"/>
</svg>