<?xml version="1.0" encoding="utf-8"?>
<!-- Generator: Adobe Illustrator 28.3.0, SVG Export Plug-In . SVG Version: 6.00 Build 0)  -->
<svg version="1.1" id="Ebene_1" xmlns="http://www.w3.org/2000/svg" xmlns:xlink="http://www.w3.org/1999/xlink" x="0px" y="0px"
	 viewBox="0 0 277.4 94.2" style="enable-background:new 0 0 277.4 94.2;" xml:space="preserve">
<style type="text/css">
	.st0{fill:#1E1D1F;}
	.st1{fill:#E40A22;}
</style>
<g>
	<path class="st0" d="M41.5,34.4v17.4h-6.3c-11.5,0-14,6.4-14,11.7c0,5.3,2.4,11.7,14,11.7h6.3v17.4H28.3C11.4,92.7,0,77.6,0,63.5
		c0-7.4,3-14.8,8.1-20.3c5.4-5.7,12.5-8.9,20.2-8.9H41.5"/>
</g>
<g>
	<path class="st1" d="M58,0c6.9,0,12.7,5.8,12.7,12.7c0,6.9-5.8,12.7-12.7,12.7c-6.9,0-12.7-5.8-12.7-12.7C45.3,5.8,51.1,0,58,0
		 M68.5,34.4v58.3H47.5V34.4H68.5"/>
</g>
<g>
	<path class="st0" d="M139.2,32.9c14.1,0,24.8,9.7,24.8,22.7v37.1H143V62.4c0-3,0-11.1-6.5-11.1c-6.6,0-6.6,8.3-6.6,11.1v30.3H109
		V62.4c0-2.7,0-11.1-6.6-11.1c-6.5,0-6.5,8.1-6.5,11.1v30.3H75V55.6c0-12.9,10.7-22.7,24.8-22.7c7.1,0,13.7,2.6,18.3,7.1l1.4,1.4
		l1.4-1.4C125.4,35.5,132.1,32.9,139.2,32.9"/>
</g>
<g>
	<path class="st0" d="M210.5,34.4v17.4h-6.3c-11.5,0-14,6.4-14,11.7c0,5.3,2.4,11.7,14,11.7h6.3v17.4h-13.2
		c-16.9,0-28.3-15.1-28.3-29.2c0-7.4,3-14.8,8.1-20.3c5.4-5.7,12.5-8.9,20.2-8.9H210.5"/>
</g>
<g>
	<path class="st0" d="M246.6,32.9c17,0,30.8,13.7,30.8,30.6c0,16.9-13.8,30.6-30.8,30.6c-17,0-30.8-13.7-30.8-30.6
		C215.9,46.6,229.7,32.9,246.6,32.9 M246.6,76c6.8,0,12.5-5.7,12.5-12.5c0-6.8-5.7-12.5-12.5-12.5c-6.8,0-12.5,5.7-12.5,12.5
		C234.1,70.3,239.9,76,246.6,76"/>
</g>
</svg>
