<svg xmlns="http://www.w3.org/2000/svg" viewBox="0 0 441.37 188.23"><defs><style>.a{font-size:22.22px;font-family:ArialMT, Arial;}.a,.b{fill:#fff;}</style></defs><title>DonQuichotte_Logo</title><text class="a" transform="translate(364.53 171.05)">®</text><path class="b" d="M351.17,286.22c2.15-.5,4.23-2.38,4.6-6.45a7.13,7.13,0,0,0-1-4.56,8.59,8.59,0,0,1,.88.15c3.23,3.17,6.41,10.11,5.45,17.6a9.23,9.23,0,0,0-4.6,1.62l-5.74-.35.3-.71-2.23-1.12-1.83-.91.55-1.21.31,0,2.27.19.52-2.22Z" transform="translate(-82.28 -256.92)"/><path class="b" d="M523.29,301.66l-143,1.53c-3.55,0-14.41.89-17.32,2.45l.44-1.31-5.12,1.14-3-1.85-12.5.29a42.41,42.41,0,0,1-4,5.37,13.14,13.14,0,0,1-5.77-6.09H297.34l1.8-3.77h33.12V299a12.83,12.83,0,0,1,3.75-2.85l3.67-9.16-3-.26s2.16-6.46,6.71-9.81a9.76,9.76,0,0,1,5.59-2c2.58,0,4.51,1.52,4.23,4.67-.33,3.62-2.13,4.19-3.22,4.19a3.11,3.11,0,0,1-.85-.11l-1,4.07-2.17-.18L343,293.9c.75-.11,1.48-.23,2.3-.3l2.34,1.17s-.31.72-.86,1.87l10.53.64a6.73,6.73,0,0,1,4.18-1.7c1.55,0,2.67.89,4.4,1.37a73.8,73.8,0,0,0,17.46,2.46l139.9,1.51a.35.35,0,0,1,.34.37.37.37,0,0,1-.36.37" transform="translate(-82.28 -256.92)"/><path class="b" d="M423.64,297.06l-14.38-.21a5.47,5.47,0,0,1-.81-2,7.34,7.34,0,0,1,1.49-5.46c-2.28,1.19-3.57,2.63-4,5.12a7,7,0,0,0,0,2.41l-22.54-.24c-.27,0-.58,0-.87,0a59.89,59.89,0,0,0,3.12-5.15,35,35,0,0,1,5.94-7.9l2.29-1.85c1.08-.9,1.83-.83.65-1.54,2-1.17,3.58-2.53,5.75-3.32a45,45,0,0,1,5.84-1.74c2.91-.64,8.39-1.54,10,1.59-.12-.24,2.19-2.06,2.45-2.27,1.68-1.33,4.29-1.07,6.14-.88a16.09,16.09,0,0,0-3.55,2.85,6,6,0,0,1,2.8-.18,6.44,6.44,0,0,0-4,3.54,8.28,8.28,0,0,0,1.71,5.25c.89,1.19,2,1.58,3.22,2.32.38.22-1.21,4.33-1.24,5a21.25,21.25,0,0,0,0,4.2Z" transform="translate(-82.28 -256.92)"/><path class="b" d="M417.36,305.4l8.63-.06a8,8,0,0,0-.71,1c-.55,1-1.34,3.38-2.89,3.33a4.38,4.38,0,0,1-4.46-3.08s-.22-.48-.56-1.15" transform="translate(-82.28 -256.92)"/><path class="b" d="M366.16,270.93l-.16,3.23-1.19.08a3.35,3.35,0,0,0-.73,1.92,27.06,27.06,0,0,0,.82,4.09l-1.14.08s-2.92-2.52-3.33-4.37l-1.46-.2a10.08,10.08,0,0,0-3.16-3.48,13.47,13.47,0,0,0-3.8-.87s1.7-3.8,3.49-6.85c-4.09-3-6.46-5.74-5.77-7s4.41-.6,9.27,1.35a6.26,6.26,0,0,1,10.38,4.71c0,.18,0,.36,0,.54a43.91,43.91,0,0,1,6.48,5c-2.8-1.25-5.12-1.61-5.59-.76-.57,1,1.78,3.42,5.25,5.34l.52.26c-2.22-.12-5.76-1.18-9.85-3.1" transform="translate(-82.28 -256.92)"/><path class="b" d="M358.19,338.83s1,.12,1.61.22c4.78.75,8.35,1.27,11.77,1.62a102.43,102.43,0,0,0-5.7,19.58,102,102,0,0,1-3.5,16.21c1,3.49-.95,4.32-1,5.47,0,.85,0,3.08,0,3.08s4.86.3,7.25.26a5.39,5.39,0,0,0-1.83-5.14c-1.33-1.26-1.22-1.22.83-3.49-1.73-6.63,3.48-18.27,8-26.58.83-1.54,1.52-2.83,2.18-4,5,3.3,14.58,4.62,18.68,6.06.24,3.6-2.62,9-6,16.84l-.49.08c-1,.35-2,1.59-1.56,2.7-1.62-.17-4.77-.81-4.77-.81l-1.16,8.44s10.13-3.06,12.09-8.29c1.66-2.53,7.55-11.74,9.7-18.09,2.86-8.46-11.65-9.6-12.75-13.3,7.24-2.16,10.42-6.2,12.17-9.94,3.81-3.82,6.76-8.57,7.26-14.49a20.72,20.72,0,0,0-.67-7.75,11.32,11.32,0,0,0-.76-1.86l-29.28.31c-1.47,0-4,.15-6.58.4a17.94,17.94,0,0,1-8.11,1.9,4.73,4.73,0,0,1-2.8-1l-3.94.88-1.05.24-.92-.57-2.33-1.44-10.33.24a41.57,41.57,0,0,1-3.49,4.53l-1.33,1.49-1.8-.88a16.3,16.3,0,0,1-6.23-5.82h-6.12c-.1.05-.2.14-.3.2s-.47-.13-.7-.2h-4a10.89,10.89,0,0,0-5.47,4.05c-3.49,4.39-5.65,9.59-9.42,13.79-4,4.46-9.1,6.73-14.53,8.7,4.22,3.62,10.12,4,10.13,4,3.08.2,8-9.62,9.22-11.79,2.85-5,3.87-11.61,9.62-14.09a15.46,15.46,0,0,0-3.27,10.78c-.15,5.58,1.32,7.45-3.65,12.22l-6.22,5.67c-1.88,1.75-6.49,4.51-8.94,4.3-.16,4.7-3.09,10.85-4.9,15.4A150.27,150.27,0,0,1,286,374l-.09.17c1,3.5-.92,4.39-.64,5.48.21.84-.23,2.18-.29,3.07a71.86,71.86,0,0,0,7.24.26,5.38,5.38,0,0,0-1.83-5.13c-1.33-1.28-1.23-1.23.83-3.5,1-6.12,11.06-22,19.2-25.19a108,108,0,0,0,12.7-5.61c-.23,1.86-.43,3.72-.53,5.54,8.42-.43,19.67,8.31,21.4,17.6l-.21.31c-.42.93-.21,2.45.94,2.77-1.29,1.12-4,3.12-4,3.12l5.6,5.87s4.89-9.38,2.41-14c-2.88-4.85-10.8-14.22-16.06-20.9a9.8,9.8,0,0,1-1.9-4.55c5.25-2.44,10.2-2.58,15.6-2.38.94-.86,2-1.86,2.88-2.77,2-2.15,7.29-9.87,7.29-9.87s-2.43,4.6-4.63,8.64a45.75,45.75,0,0,1-2.47,4.06c-.68,1-1.44,2.07-2.18,3-2.59,3.29-3.5,5.17-2.77,7.25a8.68,8.68,0,0,1,2.09,1.77l-.56,1,.84,1.15,1.11-.3c.73,1.12,1.47,2.46,2.08,3.63,2.16,2.13,4,2.59,8.17-.35-5.18-4.31-6.12-7.2-1.84-13.07.43-.59,1.87-2.26,1.87-2.26" transform="translate(-82.28 -256.92)"/><path class="b" d="M95.19,413.32H83a.74.74,0,0,1-.75-.71V381.25a.74.74,0,0,1,.75-.71H95.19c9.89,0,15.08,2.62,15.08,16.37S105.08,413.32,95.19,413.32Zm-.58-29.19h-7.9v25.59h7.85c7.63,0,11.22-1.55,11.22-12.91S102.2,384.13,94.62,384.13Z" transform="translate(-82.28 -256.92)"/><path class="b" d="M125.66,413.9c-9.4,0-10.56-5.5-10.56-12.2s1.15-12.24,10.56-12.24,10.56,5.5,10.56,12.24S135.11,413.9,125.66,413.9Zm0-21.29c-6,0-6.25,3.5-6.25,9.09s.27,9,6.25,9,6.3-3.5,6.3-9S131.69,392.61,125.66,392.61Z" transform="translate(-82.28 -256.92)"/><path class="b" d="M160.79,413.32H158a.64.64,0,0,1-.71-.67V396.42c0-2.84-1.06-3.81-3.95-3.81a31.32,31.32,0,0,0-7.63,1.11v18.94a.61.61,0,0,1-.67.67h-2.75a.64.64,0,0,1-.71-.67V394.07c0-1.73.27-2.48,2.57-3.24a36.7,36.7,0,0,1,9.4-1.37c5.32,0,7.85,1.6,7.85,6.48v16.72A.61.61,0,0,1,160.79,413.32Z" transform="translate(-82.28 -256.92)"/><path class="b" d="M196.31,413.85l.89,4h7.5a.7.7,0,0,1,.71.71v2.53a.7.7,0,0,1-.71.71H200.3c-4.92,0-6.34-1.91-7.59-6.08l-.58-2c-10.51-.84-12.55-7.63-12.55-16.9,0-9.89,2.31-16.94,14.86-16.94s14.86,7.05,14.86,16.94C209.31,406.36,207.31,413.23,196.31,413.85Zm-1.86-30.21c-9.4,0-10.25,5.1-10.25,13.31s.84,13.26,10.25,13.26,10.29-5.1,10.29-13.31S203.85,383.65,194.45,383.65Z" transform="translate(-82.28 -256.92)"/><path class="b" d="M225,413.9c-7.67,0-9.94-3.1-9.94-9V390.74c0-.4.27-.58.62-.67l2.88-.62c.31-.09.62.22.62.62V405.2c0,3.86,1.37,5.59,5.81,5.59,5.28,0,5.77-2.57,5.77-5.68V390.79c0-.44.22-.58.62-.67l2.84-.67c.4-.09.66.22.66.62V404.8C234.9,409.46,233.83,413.9,225,413.9Z" transform="translate(-82.28 -256.92)"/><path class="b" d="M245.27,386.31h-2.62a.72.72,0,0,1-.75-.75v-4.83a.7.7,0,0,1,.75-.75h2.62a.67.67,0,0,1,.71.75v4.83A.67.67,0,0,1,245.27,386.31Zm.09,27h-2.79a.63.63,0,0,1-.67-.67V390.79a.63.63,0,0,1,.67-.67h2.79a.63.63,0,0,1,.67.67v21.87A.63.63,0,0,1,245.36,413.32Z" transform="translate(-82.28 -256.92)"/><path class="b" d="M270.07,411.81c.09.4.09.67-.4.89a20.84,20.84,0,0,1-7,1.15c-8.38,0-10.6-3.9-10.6-12.2s2.22-12.2,10.6-12.2a24.84,24.84,0,0,1,7,1.15.59.59,0,0,1,.49.62,1.43,1.43,0,0,1,0,.35l-.36,1.6c-.09.4-.35.58-.89.44a24.17,24.17,0,0,0-5.72-1c-5.19,0-6.79,2.22-6.79,9s1.6,9,6.79,9a24.26,24.26,0,0,0,5.81-.89c.31-.09.67-.13.8.4Z" transform="translate(-82.28 -256.92)"/><path class="b" d="M294.46,413.32h-2.75a.64.64,0,0,1-.71-.67V396.38c0-2.75-1-3.77-3.95-3.77a31.41,31.41,0,0,0-7.67,1.11v18.94a.61.61,0,0,1-.67.67H276a.64.64,0,0,1-.71-.67v-31.4c0-.4.22-.53.62-.62l2.88-.67c.4-.09.62.22.62.62v10.05a32.56,32.56,0,0,1,8.07-1.18c5.19,0,7.63,1.6,7.63,6.39v16.81A.6.6,0,0,1,294.46,413.32Z" transform="translate(-82.28 -256.92)"/><path class="b" d="M310.87,413.9c-9.4,0-10.56-5.5-10.56-12.2s1.15-12.24,10.56-12.24,10.56,5.5,10.56,12.24S320.32,413.9,310.87,413.9Zm0-21.29c-6,0-6.25,3.5-6.25,9.09s.27,9,6.25,9,6.3-3.5,6.3-9S316.9,392.61,310.87,392.61Z" transform="translate(-82.28 -256.92)"/><path class="b" d="M339.43,412.39a.58.58,0,0,1-.4.62,16.47,16.47,0,0,1-5.46.84c-4.52,0-6.74-1.91-6.74-6.34v-24c0-.44.22-.58.62-.67l2.88-.67c.31-.09.62.22.62.62V390h7.19a.62.62,0,0,1,.62.67v1.91a.62.62,0,0,1-.67.62H331v14.5c0,2.31,1.2,2.93,3.5,2.93a19.68,19.68,0,0,0,3.77-.53,1,1,0,0,1,.27,0c.22,0,.4.13.49.44Z" transform="translate(-82.28 -256.92)"/><path class="b" d="M356.28,412.39a.58.58,0,0,1-.4.62,16.47,16.47,0,0,1-5.46.84c-4.52,0-6.74-1.91-6.74-6.34v-24c0-.44.22-.58.62-.67l2.88-.67c.31-.09.62.22.62.62V390H355a.62.62,0,0,1,.62.67v1.91a.62.62,0,0,1-.67.62h-7.14v14.5c0,2.31,1.2,2.93,3.5,2.93a19.68,19.68,0,0,0,3.77-.53,1,1,0,0,1,.27,0c.22,0,.4.13.49.44Z" transform="translate(-82.28 -256.92)"/><path class="b" d="M380.24,403.38a.71.71,0,0,1-.62.67h-16c0,2.35.49,3.68,1.51,4.79,1.24,1.42,3.28,1.91,6.21,1.91a20.88,20.88,0,0,0,6.43-1.11,1.42,1.42,0,0,1,.31,0c.22,0,.36.13.44.44l.49,1.77c.09.36,0,.58-.44.75a22,22,0,0,1-7.72,1.33c-8.69,0-11.49-3.9-11.49-12.2,0-7.67,1.73-12.24,10.47-12.24,4.61,0,7.32,1.37,8.83,3.77,1.24,2,1.55,4.79,1.55,8Zm-4.75-7.19c-.71-2.75-2.35-3.59-5.68-3.59s-5,.89-5.72,3.59a21,21,0,0,0-.49,4.75l12.42,0A20.9,20.9,0,0,0,375.49,396.2Z" transform="translate(-82.28 -256.92)"/><polygon class="b" points="168.61 164.63 360.51 164.63 336.92 188.23 145.02 188.23 168.61 164.63"/></svg>