<?xml version="1.0" encoding="UTF-8" standalone="no"?>
<svg
   xmlns:svg="http://www.w3.org/2000/svg"
   xmlns="http://www.w3.org/2000/svg"
   version="1.1"
   width="935.82751"
   height="134.30727"
   id="svg3498">
  <defs
     id="defs3500" />
  <g
     transform="translate(117.91375,-465.20855)"
     id="layer1">
    <path
       d="m 564.02534,520.44586 c 0,0 16.0346,-46.54976 59.91522,-46.54976 43.87668,0 61.69467,35.18912 61.69467,57.68897 0,22.49589 -20.71252,44.76639 -48.10777,44.76639 -27.3992,0 -46.9966,-22.49589 -46.9966,-42.09725 0,-19.60136 17.14972,-33.4097 34.74625,-33.4097 17.59654,0 32.74143,14.92345 32.74143,26.50553 0,15.59172 -8.02324,21.60617 -20.71251,21.60617 -18.04733,0 -19.15453,-14.92344 -19.15453,-14.92344 l 26.94841,0 0,8.01928 4.45647,0 c 0,0 1.3326,-6.2359 1.3326,-10.91381 0,-4.67792 -3.56677,-26.28409 -22.93878,-26.28409 -13.5869,0 -28.5143,14.25517 -28.5143,34.5248 0,16.70684 13.14403,32.74144 34.5248,32.74144 25.39439,0 42.54409,-23.611 42.54409,-45.8815 0,-22.27445 -16.70288,-47.66488 -47.88631,-47.66488 -31.18344,0 -57.0207,28.73179 -57.0207,59.91128 0,31.1874 28.73178,61.03034 59.24696,61.03034 54.79049,0 66.594,-51.44913 66.594,-51.44913 0,0 -14.02978,41.87186 -62.36293,41.87186 -32.51998,0 -57.90646,-28.06351 -57.90646,-56.13099 0,-10.90985 8.90504,-46.54581 48.55064,-46.54581 30.51517,0 46.10689,28.28495 46.10689,40.97819 0,12.02891 -7.56849,34.30337 -34.74624,34.30337 -20.26569,0 -32.07316,-16.03856 -32.07316,-27.84209 0,-7.351 5.12078,-20.26962 18.26481,-20.26962 19.37596,0 20.49107,14.03374 20.49107,14.03374 l -26.94841,0 0,-7.35102 -3.7882,0 c 0,0 -2.00877,5.56763 -2.00877,10.69238 0,5.12079 3.34532,26.50552 22.05301,26.50552 19.60136,0 30.29374,-18.93308 30.29374,-33.63508 0,-14.69807 -12.47575,-32.96288 -36.0828,-32.96288 -20.26963,0 -41.65042,20.49108 -41.65042,46.32834 0,23.38955 18.70769,47.66488 48.55459,47.66488 29.84294,0 55.90559,-29.6215 55.90559,-59.69381 0,-30.06832 -24.05783,-60.80493 -61.25178,-60.80493 -55.23731,0 -64.81457,55.23731 -64.81457,55.23731 m 145.85752,72.91295 28.77528,0 -1.01229,-80.26395 0.34006,0 41.05728,80.26395 38.87056,0 0,-117.44999 -28.6092,0 0.50614,79.7578 -0.33611,0 -39.71282,-79.7578 -39.8789,0 0,117.44999 m -220.3166,-95.23485 8.24468,0 c 11.94982,0 22.88341,2.02064 22.88341,12.95423 0,13.29427 -12.78814,13.63038 -22.88341,13.63038 l -8.24468,0 0,-26.58461 z m -31.29811,95.2388 31.29811,0 0,-46.443 6.56015,0 c 11.61372,0 15.65499,5.04961 22.0451,25.24017 l 6.73019,21.20283 32.64653,0 -11.44369,-31.97034 c -5.88791,-14.30657 -6.56014,-23.22347 -16.65541,-25.91633 l 0,-0.33217 c 15.13697,-3.53512 22.54333,-13.96651 22.54333,-29.61755 0,-20.19055 -16.99548,-29.61358 -37.85826,-29.61358 l -55.86605,0 0,117.44997 m -75.88656,-0.004 31.29811,0 0,-94.23046 28.93741,0 0,-23.21953 -89.17688,0 0,23.21953 28.94136,0 0,94.23046 m -76.23454,-47.28131 -29.44751,0 15.14094,-45.93685 0.33611,0 13.97046,45.93685 z m -77.74112,47.28131 31.80031,0 9.25696,-25.07012 44.08626,0 8.75082,25.07012 34.3271,0 -45.26859,-117.44602 -38.36045,0 -44.59241,117.44602 m -111.91004,0 31.29416,0 0,-53.33926 0.34008,0 36.5138,53.33926 39.8789,0 -46.77912,-62.76231 43.41403,-54.68768 -37.69219,0 -35.33542,47.9575 -0.34008,0 0,-47.9575 -31.29416,0 0,117.44999 m -108.70311,0 84.64132,0 0,-22.21119 -53.34321,0 0,-26.58461 48.62971,0 0,-22.21119 -48.62971,0 0,-24.23181 51.48866,0 0,-22.21119 -82.78677,0 0,117.44999 m -125.70653,0 31.298116,0 0,-50.31424 37.016003,0 0,50.31424 31.30207,0 0,-117.44999 -31.30207,0 0,44.92456 -37.016003,0 0,-44.92456 -31.298116,2.5e-4 0,117.44999 m 681.93909,-72.91295 c 0,0 16.0346,-46.54976 59.91522,-46.54976 43.87668,0 61.69467,35.18912 61.69467,57.68897 0,22.49589 -20.71252,44.76639 -48.10777,44.76639 -27.3992,0 -46.9966,-22.49589 -46.9966,-42.09725 0,-19.60136 17.14972,-33.4097 34.74625,-33.4097 17.59654,0 32.74143,14.92345 32.74143,26.50552 0,15.59173 -8.02324,21.60618 -20.71251,21.60618 -18.04733,0 -19.15453,-14.92344 -19.15453,-14.92344 l 26.94841,0 0,8.01928 4.45647,0 c 0,0 1.3326,-6.2359 1.3326,-10.91382 0,-4.67791 -3.56677,-26.28408 -22.93878,-26.28408 -13.5869,0 -28.5143,14.25517 -28.5143,34.5248 0,16.70683 13.14403,32.74144 34.5248,32.74144 25.39439,0 42.54409,-23.61101 42.54409,-45.88151 0,-22.27445 -16.70288,-47.66487 -47.88631,-47.66487 -31.18344,0 -57.0207,28.73179 -57.0207,59.91127 0,31.18741 28.73178,61.03034 59.24696,61.03034 54.79049,0 66.594,-51.44912 66.594,-51.44912 0,0 -14.02978,41.87186 -62.36293,41.87186 -32.51998,0 -57.90646,-28.06351 -57.90646,-56.13099 0,-10.90985 8.90504,-46.54581 48.55064,-46.54581 30.51517,0 46.10689,28.28495 46.10689,40.97819 0,12.02891 -7.56849,34.30337 -34.74624,34.30337 -20.26569,0 -32.07316,-16.03856 -32.07316,-27.84209 0,-7.351 5.12078,-20.26962 18.26481,-20.26962 19.37596,0 20.49107,14.03374 20.49107,14.03374 l -26.94841,0 0,-7.35102 -3.7882,0 c 0,0 -2.00877,5.56763 -2.00877,10.69238 0,5.12079 3.34532,26.50552 22.05301,26.50552 19.60136,0 30.29374,-18.93308 30.29374,-33.63508 0,-14.69807 -12.47575,-32.96288 -36.0828,-32.96288 -20.26963,0 -41.65042,20.49108 -41.65042,46.32834 0,23.38955 18.70769,47.66488 48.55459,47.66488 29.84294,0 55.90559,-29.62151 55.90559,-59.69381 0,-30.06832 -24.05783,-60.80493 -61.25178,-60.80493 -55.23731,0 -64.81457,55.23731 -64.81457,55.23731 m 145.85752,72.91295 28.77528,0 -1.01229,-80.26395 0.34006,0 41.05728,80.26395 38.87056,0 0,-117.44999 -28.6092,0 0.50614,79.7578 -0.33612,0 -39.71281,-79.7578 -39.8789,0 0,117.44999 m -220.3166,-95.23485 8.24468,0 c 11.94982,0 22.88341,2.02064 22.88341,12.95422 0,13.29428 -12.78814,13.63039 -22.88341,13.63039 l -8.24468,0 0,-26.58461 z m -31.29811,95.2388 31.29811,0 0,-46.443 6.56015,0 c 11.61371,0 15.65499,5.04961 22.0451,25.24016 l 6.73019,21.20284 32.64652,0 -11.44368,-31.97034 c -5.88792,-14.30657 -6.56014,-23.22347 -16.65542,-25.91634 l 0,-0.33216 c 15.13698,-3.53512 22.54334,-13.96651 22.54334,-29.61755 0,-20.19055 -16.99549,-29.61359 -37.85826,-29.61359 l -55.86605,0 0,117.44998 m -75.88656,-0.004 31.29811,0 0,-94.23046 28.93741,0 0,-23.21953 -89.17689,0 0,23.21953 28.94137,0 0,94.23046 m -76.23454,-47.28131 -29.44751,0 15.14093,-45.93685 0.33612,0 13.97046,45.93685 z m -77.74113,47.28131 31.80032,0 9.25696,-25.07012 44.08626,0 8.75081,25.07012 34.3271,0 -45.26858,-117.44603 -38.36045,0 -44.59242,117.44603 m -111.91003,0 31.29416,0 0,-53.33926 0.34007,0 36.5138,53.33926 39.8789,0 -46.77911,-62.76231 43.41403,-54.68768 -37.69219,0 -35.33542,47.9575 -0.34008,0 0,-47.9575 -31.29416,0 0,117.44999 m -108.70311,0 84.64132,0 0,-22.21119 -53.34321,0 0,-26.58461 48.62971,0 0,-22.21119 -48.62971,0 0,-24.23181 51.48866,0 0,-22.21119 -82.78677,0 0,117.44999 m -125.70653,0 31.298116,0 0,-50.31424 37.016003,0 0,50.31424 31.30207,0 0,-117.44999 -31.30207,0 0,44.92456 -37.016003,0 0,-44.92456 -31.298116,0 0,117.44999"
       id="path246"
       style="fill:#003aad;fill-opacity:1;fill-rule:nonzero;stroke:none" />
  </g>
</svg>
