<?xml version="1.0" encoding="utf-8"?>
<!-- Generator: Adobe Illustrator 22.0.1, SVG Export Plug-In . SVG Version: 6.00 Build 0)  -->
<svg version="1.1" id="Ebene_1" xmlns="http://www.w3.org/2000/svg" xmlns:xlink="http://www.w3.org/1999/xlink" x="0px" y="0px"
	 viewBox="0 0 841.9 595.3" style="enable-background:new 0 0 841.9 595.3;" xml:space="preserve">
<style type="text/css">
	.st0{fill-rule:evenodd;clip-rule:evenodd;fill:#164194;}
	.st1{fill:#164194;}
</style>
<g>
	<path class="st0" d="M810.9,211.5c0,5.5-2,10.3-5.9,14.2c-3.9,3.9-8.6,5.9-14.2,5.9c-5.5,0-10.3-2-14.2-5.9
		c-3.9-3.9-5.9-8.7-5.9-14.2c0-5.5,2-10.3,5.9-14.2c3.9-3.9,8.7-5.9,14.2-5.9c5.5,0,10.3,2,14.2,5.9
		C809,201.3,810.9,206,810.9,211.5L810.9,211.5z M808.2,211.5c0-4.8-1.7-8.9-5.1-12.3c-3.4-3.4-7.5-5.2-12.3-5.2
		c-4.8,0-8.9,1.7-12.3,5.2c-3.4,3.4-5.1,7.5-5.1,12.3c0,4.8,1.7,8.9,5.1,12.3c3.4,3.4,7.5,5.2,12.3,5.2c4.8,0,8.9-1.7,12.3-5.2
		C806.5,220.4,808.2,216.3,808.2,211.5L808.2,211.5z M803.8,221.7h-5.2l-7.7-8.2h-3.8v8.2h-3.8v-21.2h7.2c1.5,0,2.7,0.1,3.6,0.2
		c0.9,0.1,1.9,0.4,2.8,0.9c1,0.5,1.7,1.2,2.1,1.9c0.5,0.7,0.7,1.7,0.7,2.8c0,1.5-0.4,2.8-1.3,3.8c-0.9,1-2.1,1.8-3.6,2.4
		L803.8,221.7L803.8,221.7z M795.6,206.6c0-0.6-0.1-1.1-0.3-1.5c-0.2-0.4-0.6-0.8-1.1-1.1c-0.5-0.3-1-0.4-1.5-0.5
		c-0.5-0.1-1.2-0.1-2-0.1h-3.5v7.2h2.9c1,0,1.8-0.1,2.5-0.2c0.7-0.2,1.3-0.4,1.7-0.8c0.5-0.4,0.8-0.8,1-1.3
		C795.5,207.9,795.6,207.3,795.6,206.6L795.6,206.6z"/>
	<g>
		<polygon class="st1" points="29,316.9 48.1,208 89,208 79.8,256.9 150,208 172.9,208 110.1,255.6 189.5,342.7 136.6,342.5 
			76.4,275 68.2,316.9 		"/>
	</g>
	<polygon class="st1" points="177.6,316.9 198.2,208 236.4,208 217.3,316.9 	"/>
	<path class="st1" d="M249,243.7l2.7-13.4h112.4l-15.9,86.3H235.1l10.2-54.6H318l3.5-18.4H249z M311,298.6l4.5-23.1h-33.7l-4.7,23.1
		H311z"/>
	<polygon class="st1" points="363.1,316.9 379.5,230.9 379.5,230.6 421.2,230.6 408.1,299.5 408.3,299.1 441.2,299.1 454.4,230.3 
		493.8,230.3 477.5,316.9 362.8,316.9 	"/>
	<path class="st1" d="M639.2,316.9l17.1-86.6h114.3l-8.2,42.2l-73.3-0.2l0.4,0.2l-5,26H757l-3.2,18.4H639.2z M725,257.1l3-16.1
		h-32.2l-3.5,16.1H725z"/>
	<g>
		<polygon class="st1" points="493,317 512.1,208.1 553.1,208.1 543.9,256.9 614.1,208.1 636.9,208.1 574.2,255.7 653.5,342.8 
			600.7,342.5 540.4,275 532.2,317 		"/>
	</g>
</g>
</svg>
