<svg id="Ebene_1" data-name="Ebene 1" xmlns="http://www.w3.org/2000/svg" viewBox="0 0 833.19 170.21"><defs><style>.cls-1,.cls-2{fill:#ee711b;}.cls-2{fill-rule:evenodd;}.cls-3{fill:#fff;}.cls-4{fill:#ee7d00;stroke:#ee7d00;stroke-miterlimit:10;stroke-width:0.25px;}</style></defs><title>Lapp_Logo_rgb</title><polygon class="cls-1" points="249.85 0.21 227.22 170.21 326.19 170.21 331.49 129.27 278.75 129.27 295.85 0.21 249.85 0.21 249.85 0.21"/><path class="cls-2" d="M427.62,205.65l-84,170h51.05L408.35,346h56.83l8.43,29.61h48.15l-43.82-170Zm-3.14,105.23c4.34-11.08,8.67-21.91,12.77-33.23,3.61-9.87,6.74-19.75,10.11-29.86l9.39,63.09Z" transform="translate(-3.87 -205.44)"/><path class="cls-2" d="M557.94,205.65l-22.16,170H582L589.48,320h21.43c18.3,0,36.36,0,51.05-12.76,18.78-16.38,19.75-42.62,19.75-49.12A85.53,85.53,0,0,0,680,242c-1.44-6.26-5.54-21.19-21.67-30.34-12.76-7.22-28.41-6-32.51-6Zm41.65,35.64h14c4.82,0,22.88-1.45,22.88,18.06,0,9.63-4.1,19.5-14,22.87-2.89,1-5.3,1.45-11.8,1.45H594.06l5.53-42.38Z" transform="translate(-3.87 -205.44)"/><path class="cls-2" d="M713.29,205.65l-22.15,170h46.23L744.84,320h21.43c18.3,0,36.36,0,51.05-12.76,18.78-16.38,19.74-42.62,19.74-49.12A85.77,85.77,0,0,0,835.38,242c-1.45-6.26-5.54-21.19-21.68-30.34-12.76-7.22-28.41-6-32.5-6ZM755,241.29h14c4.81,0,22.87-1.45,22.87,18.06,0,9.63-4.09,19.5-14,22.87-2.89,1-5.3,1.45-11.8,1.45H749.41L755,241.29Z" transform="translate(-3.87 -205.44)"/><path d="M3.87,290.33a84.9,84.9,0,1,1,84.9,84.9,84.9,84.9,0,0,1-84.9-84.9Z" transform="translate(-3.87 -205.44)"/><path class="cls-3" d="M36.93,299.61A23.83,23.83,0,1,1,67,284.29a23.82,23.82,0,0,1-30.05,15.32Z" transform="translate(-3.87 -205.44)"/><path class="cls-3" d="M80.37,342.28A23.85,23.85,0,1,1,75.09,309a23.9,23.9,0,0,1,5.28,33.31Z" transform="translate(-3.87 -205.44)"/><path class="cls-3" d="M135.51,314.11a23.88,23.88,0,1,1-33.32-5.28,23.91,23.91,0,0,1,33.32,5.28Z" transform="translate(-3.87 -205.44)"/><path class="cls-3" d="M124.19,254.34a23.86,23.86,0,1,1-15.32,30,23.83,23.83,0,0,1,15.32-30Z" transform="translate(-3.87 -205.44)"/><path class="cls-4" d="M64.91,244.5a23.86,23.86,0,1,1,23.86,23.85A23.85,23.85,0,0,1,64.91,244.5Z" transform="translate(-3.87 -205.44)"/></svg>