<?xml version="1.0" encoding="UTF-8" standalone="no"?>
<!-- Created with Inkscape (http://www.inkscape.org/) -->

<svg
   xmlns:dc="http://purl.org/dc/elements/1.1/"
   xmlns:cc="http://creativecommons.org/ns#"
   xmlns:rdf="http://www.w3.org/1999/02/22-rdf-syntax-ns#"
   xmlns:svg="http://www.w3.org/2000/svg"
   xmlns="http://www.w3.org/2000/svg"
   xmlns:sodipodi="http://sodipodi.sourceforge.net/DTD/sodipodi-0.dtd"
   xmlns:inkscape="http://www.inkscape.org/namespaces/inkscape"
   id="svg3110"
   version="1.1"
   inkscape:version="0.48.0 r9654"
   width="190.94625"
   height="35.43375"
   xml:space="preserve"
   sodipodi:docname="DAT_Logo_CMYK.pdf"><metadata
     id="metadata3116"><rdf:RDF><cc:Work
         rdf:about=""><dc:format>image/svg+xml</dc:format><dc:type
           rdf:resource="http://purl.org/dc/dcmitype/StillImage" /><dc:title></dc:title></cc:Work></rdf:RDF></metadata><defs
     id="defs3114"><clipPath
       clipPathUnits="userSpaceOnUse"
       id="clipPath3140"><path
         d="m 0.060005,28.347 152.696995,0 0,-28.287 -152.696995,0 0,28.287 z"
         id="path3142" /></clipPath></defs><sodipodi:namedview
     pagecolor="#ffffff"
     bordercolor="#666666"
     borderopacity="1"
     objecttolerance="10"
     gridtolerance="10"
     guidetolerance="10"
     inkscape:pageopacity="0"
     inkscape:pageshadow="2"
     inkscape:window-width="1280"
     inkscape:window-height="744"
     id="namedview3112"
     showgrid="false"
     inkscape:zoom="2.6709088"
     inkscape:cx="95.473122"
     inkscape:cy="17.716875"
     inkscape:window-x="-4"
     inkscape:window-y="-4"
     inkscape:window-maximized="1"
     inkscape:current-layer="g3118" /><g
     id="g3118"
     inkscape:groupmode="layer"
     inkscape:label="DAT_Logo_CMYK"
     transform="matrix(1.25,0,0,-1.25,0,35.43375)"><g
       id="g3120"
       transform="translate(29.292,14.174)"><path
         d="M 0,0 0.945,-0.945 -9.448,-11.34 -10.393,-10.394 0,0"
         style="fill:#009db3;fill-opacity:1;fill-rule:nonzero;stroke:none"
         id="path3122" /></g><g
       id="g3124"
       transform="translate(16.063,21.732)"><path
         d="m 0,0 0.945,0.945 9.45,-9.45 L 9.449,-9.449 0,0"
         style="fill:#ee3224;fill-opacity:1;fill-rule:nonzero;stroke:none"
         id="path3126" /></g><g
       id="g3128"
       transform="translate(14.174,19.842)"><path
         d="M 0,0 0.944,0.945 7.559,-5.669 6.614,-6.614 0,0"
         style="fill:#ee3224;fill-opacity:1;fill-rule:nonzero;stroke:none"
         id="path3130" /></g><g
       id="g3132"
       transform="translate(13.229,26.457)"><path
         d="M 0,0 0.945,-0.945 -3.7793,-5.67 -4.7246,-4.725 0,0"
         style="fill:#009db3;fill-opacity:1;fill-rule:nonzero;stroke:none"
         id="path3134" /></g><g
       id="g3136"><g
         id="g3138"
         clip-path="url(#clipPath3140)"><g
           id="g3144"
           transform="translate(0.94482,14.173)"><path
             d="M 0,0 13.228,-13.229 12.284,-14.173 -0.94482,-0.944 0,0"
             style="fill:#009db3;fill-opacity:1;fill-rule:nonzero;stroke:none"
             id="path3146" /></g></g></g><g
       id="g3148"
       transform="translate(6.6148,16.063)"><path
         d="M 0,0 6.614,6.614 7.559,5.67 0.9438,-0.944 0,0"
         style="fill:#ee3224;fill-opacity:1;fill-rule:nonzero;stroke:none"
         id="path3150" /></g><g
       id="g3152"
       transform="translate(14.173,2.834)"><path
         d="M 0,0 6.614,6.6143 7.559,5.6699 0.945,-0.9443 0,0"
         style="fill:#ee3224;fill-opacity:1;fill-rule:nonzero;stroke:none"
         id="path3154" /></g><g
       id="g3156"
       transform="translate(15.118,28.347)"><path
         d="M 0,0 10.395,-10.394 9.45,-11.339 -0.944,-0.944 0,0"
         style="fill:#009db3;fill-opacity:1;fill-rule:nonzero;stroke:none"
         id="path3158" /></g><g
       id="g3160"
       transform="translate(2.8345,16.063)"><path
         d="M 0,0 2.835,-2.834 1.8901,-3.779 -0.9448,-0.944 0,0"
         style="fill:#009db3;fill-opacity:1;fill-rule:nonzero;stroke:none"
         id="path3162" /></g><g
       id="g3164"
       transform="translate(46.661,14.155)"><path
         d="m 0,0 c 0,-2.261 -1.54,-3.541 -3.86,-3.541 l -1.58,0 0,7.121 1.58,0 C -1.54,3.58 0,2.279 0,0.04 L 0,0 z m 3.98,0.1 c 0,4.04 -2.9,6.92 -7.9,6.92 l -5.401,0 0,-14.0005 5.321,0 c 5.04,0 7.98,2.9995 7.98,7.0405 l 0,0.04"
         style="fill:#ee3224;fill-opacity:1;fill-rule:nonzero;stroke:none"
         id="path3166" /></g><g
       id="g3168"
       transform="translate(64.637,17.775)"><path
         d="m 0,0 4.201,0 0,-10.601 3.88,0 0,10.601 4.2,0 0,3.399 L 0,3.399 0,0"
         style="fill:#ee3224;fill-opacity:1;fill-rule:nonzero;stroke:none"
         id="path3170" /></g><g
       id="g3172"
       transform="translate(106.257,16.075)"><path
         d="m 0,0 -2.88,5.1 -8.139,0 -2.44,-8.1 -2.7,8.14 -3.34,0 -2.7,-8.14 -2.441,8.1 -4.099,0 4.679,-14.101 3.38,0 2.801,8.061 2.82,-8.061 3.38,0 4.573,13.779 5.125,-8.438 0,-5.2404 3.901,0 0,5.2994 L 7.24,5.1 2.9,5.1 0,0"
         style="fill:#ee3224;fill-opacity:1;fill-rule:nonzero;stroke:none"
         id="path3174" /></g><g
       id="g3176"
       transform="translate(118.417,21.175)"><path
         d="m 0,0 -3.881,0 0,-14 10.661,0 0,3.4 L 0,-10.6 0,0"
         style="fill:#ee3224;fill-opacity:1;fill-rule:nonzero;stroke:none"
         id="path3178" /></g><g
       id="g3180"
       transform="translate(130.536,12.694)"><path
         d="m 0,0 6.721,0 0,3.061 -6.721,0 0,2.12 7.421,0 0,3.299 -11.261,0 0,-13.9996 11.361,0 0,3.2996 L 0,-2.22 0,0"
         style="fill:#ee3224;fill-opacity:1;fill-rule:nonzero;stroke:none"
         id="path3182" /></g><g
       id="g3184"
       transform="translate(148.396,16.115)"><path
         d="m 0,0 c 0,-1.021 -0.759,-1.66 -2.08,-1.66 l -2.559,0 0,3.36 2.54,0 C -0.799,1.7 0,1.14 0,0.04 L 0,0 z m 1.021,-4.061 c 1.74,0.741 2.88,2.161 2.88,4.3 l 0,0.04 C 3.901,1.66 3.481,2.74 2.661,3.54 1.72,4.5 0.241,5.06 -1.899,5.06 l -6.621,0 0,-14.0005 3.881,0 0,4.2405 1.7,0 2.819,-4.2405 4.481,0 -3.34,4.8795"
         style="fill:#ee3224;fill-opacity:1;fill-rule:nonzero;stroke:none"
         id="path3186" /></g><g
       id="g3188"
       transform="translate(60.06,21.275)"><path
         d="m 0,0 -3.74,0 -1.482,-3.505 6.703,0 L 0,0"
         style="fill:#ee3224;fill-opacity:1;fill-rule:nonzero;stroke:none"
         id="path3190" /></g><g
       id="g3192"
       transform="translate(58.254,16.435)"><path
         d="m 0,0 1.466,-3.74 -3.14,0 1.485,3.74 -3.791,0 -3.915,-9.2598 4.081,0 1,2.5 5.4,0 1.02,-2.5 4.16,0 L 3.852,0 0,0"
         style="fill:#ee3224;fill-opacity:1;fill-rule:nonzero;stroke:none"
         id="path3194" /></g></g></svg>