<?xml version="1.0" encoding="UTF-8" standalone="no"?>
<svg
   xmlns:dc="http://purl.org/dc/elements/1.1/"
   xmlns:cc="http://creativecommons.org/ns#"
   xmlns:rdf="http://www.w3.org/1999/02/22-rdf-syntax-ns#"
   xmlns:svg="http://www.w3.org/2000/svg"
   xmlns="http://www.w3.org/2000/svg"
   xml:space="preserve"
   enable-background="new 0 0 841.89 595.28"
   viewBox="0 0 691.74199 425.47599"
   height="425.47601"
   width="691.742"
   y="0px"
   x="0px"
   id="Ebene_1"
   version="1.1"><metadata
     id="metadata3414"><rdf:RDF><cc:Work
         rdf:about=""><dc:format>image/svg+xml</dc:format><dc:type
           rdf:resource="http://purl.org/dc/dcmitype/StillImage" /><dc:title></dc:title></cc:Work></rdf:RDF></metadata><defs
     id="defs3412" /><g
     transform="translate(-75,-85.05)"
     id="g3396"><path
       style="fill:#f49f0d"
       id="path3398"
       d="m 99.171,387.947 c 0,0 -12.171,0 -12.171,12.173 l 0,9.552 c 0,0 0,12.169 12.171,12.169 l 642.327,0 c 0,0 12.177,0 12.177,-12.169 l 0,-9.552 c 0,0 0,-12.173 -12.177,-12.173 l -642.327,0 0,0 0,0 z" /><path
       style="fill:#f49f0d"
       id="path3400"
       d="M 302.343,253.008 C 302.343,192.5 247.736,147.339 188.794,147.189 129.854,147.339 75,192.5 75,253.008 c 0,60.449 54.795,105.96 113.432,106.096 58.64,-0.135 113.911,-45.647 113.911,-106.096 l 0,0 0,0 z m -38.176,0.276 c 0,40.979 -33.078,74.748 -75.262,74.894 -42.183,-0.146 -75.734,-33.916 -75.734,-74.894 0,-40.125 33.534,-73.968 75.547,-74.125 42.012,0.157 75.449,33.999 75.449,74.125 l 0,0 0,0 z" /><path
       style="fill:#f49f0d"
       id="path3402"
       d="m 766.742,253.008 c 0,-60.508 -54.6,-105.669 -113.546,-105.819 -58.938,0.15 -113.795,45.311 -113.795,105.819 0,60.449 54.802,105.96 113.435,106.096 58.64,-0.135 113.906,-45.647 113.906,-106.096 l 0,0 0,0 z m -38.177,0.276 c 0,40.979 -33.066,74.748 -75.255,74.894 -42.185,-0.146 -75.732,-33.916 -75.732,-74.894 0,-40.125 33.533,-73.968 75.545,-74.125 42.001,0.157 75.442,33.999 75.442,74.125 l 0,0 0,0 z" /><path
       style="fill:#f49f0d"
       id="path3404"
       d="m 520.628,205.89 c 0,-35.004 -24.206,-46.585 -60.008,-46.585 l -122.182,0.037 c -8.995,0 -16.377,7.412 -16.456,16.386 l -0.079,155.237 c 0,9.044 6.983,16.279 16.557,16.279 l 124.792,-0.015 c 33.953,0 66.336,-16.323 66.336,-54.484 0,-23.425 -11.589,-41.063 -34.482,-47.638 16.32,-7.899 25.522,-20.794 25.522,-39.217 l 0,0 0,0 z M 483,213 c 0,15.791 -10.798,22.366 -25.276,22.366 l -95.657,0 0,-43.951 92.499,0 C 469.304,191.416 483,195.099 483,213 l 0,0 0,0 z m 7.625,77.378 c 0,19.469 -14.21,24.741 -30.522,24.741 l -98.036,0 0,-51.589 98.819,0 c 17.639,0 29.739,7.633 29.739,26.848 l 0,0 0,0 z" /><path
       style="fill:#f49f0d"
       id="path3406"
       d="m 99.84,85.05 c 0,0 -12.169,0 -12.169,12.175 l 0,9.55 c 0,0 0,12.169 12.169,12.169 l 641.658,0 c 0,0 12.177,0 12.177,-12.169 l 0,-9.55 c 0,0 0,-12.175 -12.177,-12.175 l -641.658,0 0,0 0,0 z" /><path
       id="path3408"
       d="m 87,510.525 46.764,0 c 8.402,0 14.616,-2.188 14.616,-12.702 0,-7.213 -2.38,-10.65 -8.792,-11.448 l 0,-0.198 c 4.1,-1.188 7.074,-2.776 7.074,-10.979 0,-9.386 -5.688,-12.559 -17.394,-12.559 l -42.268,0 0,47.886 0,0 z m 14.684,-18.988 26.326,0 c 3.173,0 5.292,0.728 5.292,3.97 0,2.776 -2.12,3.501 -5.292,3.501 l -26.326,0 0,-7.471 0,0 z m 0,-17.393 25.995,0 c 2.713,0 4.3,0.988 4.3,3.768 0,2.71 -1.586,3.71 -4.3,3.71 l -25.995,0 0,-7.478 0,0 z m 55.562,36.381 53.245,0 0,-11.518 -38.563,0 0,-7.674 35.715,0 0,-9.915 -35.715,0 0,-7.673 37.701,0 0,-11.105 -52.383,0 0,47.885 0,0 z m 57.276,-35.989 20.638,0 0,35.989 14.686,0 0,-35.989 20.636,0 0,-11.896 -55.96,0 0,11.896 0,0 z m 49.609,0 20.638,0 0,35.989 14.682,0 0,-35.989 20.638,0 0,-11.896 -55.958,0 0,11.896 0,0 z m 61.71,35.989 53.245,0 0,-11.518 -38.561,0 0,-7.674 35.715,0 0,-9.915 -35.715,0 0,-7.673 37.703,0 0,-11.105 -52.387,0 0,47.885 0,0 z m 76.793,-35.989 22.952,0 c 4.626,0 6.747,0.791 6.747,5.03 l 0,1.592 c 0,3.434 -1.464,5.019 -5.427,5.019 l -24.272,0 0,-11.641 0,0 z m -14.685,35.989 14.686,0 0,-12.44 23.085,0 c 4.563,0 6.019,1.657 6.019,6.676 l 0,5.765 14.681,0 0,-8.143 c 0,-7.872 -3.637,-9.787 -8.004,-10.581 l 0,-0.125 c 6.75,-1.596 8.209,-5.36 8.209,-11.78 l 0,-3.044 c 0,-8.596 -3.051,-14.213 -14.36,-14.213 l -44.314,0 0,47.885 -0.002,0 z m 68.591,0 14.283,0 0,-34.394 0.132,0 19.254,34.394 10.979,0 19.25,-34.394 0.125,0 0,34.394 14.295,0 0,-47.885 -22.563,0 -16.6,30.816 -16.596,-30.816 -22.559,0 0,47.885 0,0 z m 80.897,0 16.401,0 4.29,-8.467 29.766,0 4.566,8.467 16.338,0 -26.32,-47.886 -19.121,0 -25.92,47.886 0,0 z m 35.449,-36.779 9.526,17.993 -18.783,0 9.257,-17.993 0,0 z m 39.817,36.779 14.688,0 0,-34.794 0.125,0 27.588,34.794 22.747,0 0,-47.885 -14.681,0 0,34.787 -0.132,0 -27.578,-34.787 -22.758,0 0,47.885 10e-4,0 z m 75.071,0 14.688,0 0,-34.794 0.129,0 27.589,34.794 22.746,0 0,-47.885 -14.684,0 0,34.787 -0.133,0 -27.581,-34.787 -22.754,0 0,47.885 0,0 z" /></g></svg>