<svg xmlns="http://www.w3.org/2000/svg" xmlns:xlink="http://www.w3.org/1999/xlink" width="112" height="140" viewBox="0 0 112 140"><defs><clipPath id="b"><rect width="112" height="140"/></clipPath></defs><g id="a" clip-path="url(#b)"><rect width="112" height="140" fill="rgba(0,0,0,0)"/><g transform="translate(-2217 -214.87)"><rect width="72" height="100" transform="translate(2237 234.87)" fill="#fff"/><rect width="30.487" height="14.279" transform="translate(2238.382 274.737)" fill="#009453"/><rect width="30.487" height="12.238" transform="translate(2238.381 321.259)" fill="#009453"/><path d="M37.119,148.543H45.83v-23.9H5.656v8.653H37.119Z" transform="translate(2232.726 140.473)" fill="#008bd2"/><rect width="8.711" height="12.238" transform="translate(2269.845 321.259)" fill="#008bd2"/><path d="M46.807,118.505h8.711V84.979H5.656v8.653H46.807Z" transform="translate(2232.726 170.511)" fill="#005ca9"/><rect width="8.711" height="12.238" transform="translate(2279.533 321.259)" fill="#005ca9"/><path d="M56.494,88.467H65.2V45.316H5.655V53.97H56.494Z" transform="translate(2232.726 200.549)" fill="#951b81"/><rect width="8.711" height="12.238" transform="translate(2289.22 321.259)" fill="#951b81"/><path d="M5.655,5.656v8.653H66.182V58.429h8.711V5.656Z" transform="translate(2232.726 230.587)" fill="#e50043"/><rect width="8.711" height="12.238" transform="translate(2298.908 321.259)" fill="#e50043"/><rect width="69.237" height="2.751" transform="translate(2238.381 314.422)"/><path d="M22.33,244.612a4.774,4.774,0,0,0-3.965-1.655H11.483l-1.935,7.176H5.656v3.695h2.9l-1.828,6.778h4.212l1.813-6.717h1.7l1.569,6.717h4.627l-1.867-7.34a6.719,6.719,0,0,0,4.142-4.578,4.578,4.578,0,0,0-.591-4.076m-3.509,3.659a2.52,2.52,0,0,1-2.568,1.852H13.766l.886-3.286H17.6a1.463,1.463,0,0,1,1.15.38,1.307,1.307,0,0,1,.072,1.055" transform="translate(2232.726 50.865)"/><path d="M71.832,260.605h4.213l4.761-17.649H76.593Z" transform="translate(2182.713 50.865)"/><path d="M246.393,256.725l3.715-13.769h-4.214l-4.759,17.649h11.721v-3.88Z" transform="translate(2054.763 50.865)"/><path d="M187.177,242.956h-3.212l-11.277,17.649h4.641l1.968-3.2h5.053l.242,3.2h4.337Zm-5.792,10.729,2.632-4.339.21,4.339Z" transform="translate(2106.492 50.865)"/><path d="M119.306,242.956h-9.853l-1.045,3.879h3.1L107.8,260.6h4.216l3.714-13.77h2.533Z" transform="translate(2155.533 50.865)"/><path d="M152.866,242.956l-1.046,3.879h2.843l-3.714,13.77h4.215l3.715-13.77h2.757l1.047-3.879Z" transform="translate(2122.921 50.865)"/><rect width="72" height="100" transform="translate(2237 234.87)" fill="none"/></g></g></svg>