<svg id="Markenzeichen" xmlns="http://www.w3.org/2000/svg" viewBox="0 0 121.89 21.84"><title>Siedle-Markenzeichen-Schwarz_RGB_100</title><path d="M32.21,24.45V22.39a14.82,14.82,0,0,0-4.15-.49c-4.44,0-6.22,2.59-6.22,5.19,0,3.7,3,4.91,5.28,6.05s4.34,2.24,4.34,4.65-1.84,4.06-4.53,4.06a13.55,13.55,0,0,1-5-1V43a19.09,19.09,0,0,0,4.73.52c2.88,0,6.74-1.56,6.74-5.79s-3.5-5.29-6-6.72-3.77-2.16-3.77-4.11c0-2.24,1.78-3.48,4.1-3.48A9.66,9.66,0,0,1,32.21,24.45Zm11.6,0V22.39a14.78,14.78,0,0,0-4.14-.49c-4.45,0-6.23,2.59-6.23,5.19,0,3.7,3.05,4.91,5.28,6.05s4.35,2.24,4.35,4.65-1.85,4.06-4.54,4.06a13.62,13.62,0,0,1-5-1V43a19.19,19.19,0,0,0,4.73.52c2.89,0,6.75-1.56,6.75-5.79s-3.5-5.29-6-6.72-3.78-2.16-3.78-4.11c0-2.24,1.79-3.48,4.1-3.48A9.61,9.61,0,0,1,43.81,24.45Zm11.61,0V22.39a14.82,14.82,0,0,0-4.15-.49c-4.44,0-6.22,2.59-6.22,5.19,0,3.7,3,4.91,5.28,6.05s4.34,2.24,4.34,4.65-1.84,4.06-4.53,4.06a13.62,13.62,0,0,1-5-1V43a19.09,19.09,0,0,0,4.73.52c2.88,0,6.74-1.56,6.74-5.79s-3.5-5.29-6-6.72-3.77-2.16-3.77-4.11c0-2.24,1.78-3.48,4.1-3.48A9.66,9.66,0,0,1,55.42,24.45Zm21.23.75,0-2.75a19.08,19.08,0,0,0-4.77-.62c-4,0-6.77,1.81-6.77,5.26,0,3.7,2.78,5.23,5,6.37s4.73,2.73,4.73,4.75-1.1,3.28-3.79,3.28a12.74,12.74,0,0,1-5.64-1.85l0,3.12a17.64,17.64,0,0,0,5.38.91c3.12,0,7.33-1.4,7.33-6,0-4.23-2.85-5.23-5.35-6.65-3.08-1.76-4.62-2.88-4.62-4.25,0-2.24,1.39-3,3.23-3A12.83,12.83,0,0,1,76.65,25.2Zm7.95-3H81.32V43.31H84.6Zm4.57,0V43.31h11.08V41.2H92.38V33.4H99.6V31.31H92.38v-7H100V22.24Zm18.64,0h-4.67V43.31h4.54c4.63,0,9.46-.91,9.46-11S110.69,22.24,107.81,22.24Zm5.4,15.46c-.83,2.27-2.33,3.5-4.37,3.5h-2.49v-17h2a4.55,4.55,0,0,1,4.27,2.16c.73,1.22,1.08,3.15,1.08,6.1A16.36,16.36,0,0,1,113.21,37.7Zm6.53-15.46V43.31h11V41h-7.62V22.24Zm12.9,0V43.31h11.09V41.2h-7.88V33.4h7.23V31.31h-7.23v-7h7.62V22.24Z" transform="translate(-21.84 -21.83)"/></svg>