<?xml version="1.0" encoding="utf-8"?>
<!-- Generator: Adobe Illustrator 26.0.3, SVG Export Plug-In . SVG Version: 6.00 Build 0)  -->
<svg version="1.1" id="Ebene_1" xmlns="http://www.w3.org/2000/svg" xmlns:xlink="http://www.w3.org/1999/xlink" x="0px" y="0px"
	 viewBox="0 0 170.08 39.21" style="enable-background:new 0 0 170.08 39.21;" xml:space="preserve">
<style type="text/css">
	.st0{fill:#00477A;}
</style>
<g>
	<path class="st0" d="M14.1,38.06h5.14v-6.13l-1.59,0c-2.16,0-3.94-1.95-3.99-4.35V14.1h9.25V8.49h-9.25V0H5.3v8.49H0v5.61h5.3
		v15.27C5.3,34.16,9.25,38.06,14.1,38.06z"/>
	<path class="st0" d="M36.5,16.85c2.83,0,5.31,2.54,5.31,5.43v15.78h8.4V19.29c0-5.78-4.86-10.48-10.84-10.48
		c-2.89,0-5.69,1.2-7.51,3.22l-0.71,0.78V0h-8.36v38.06h8.36V22.08C31.15,19.2,33.55,16.85,36.5,16.85z"/>
	<path class="st0" d="M70.41,30.38c-1.37,1.36-3.02,2.07-4.79,2.07c-4.03,0-7.3-3.81-7.3-8.5c0-4.71,3.28-8.54,7.3-8.54
		c2.75,0,5.25,1.76,6.51,4.59l0.26,0.57h-4.68l-5.22,5.33h18.22c0.07-0.58,0.11-1.22,0.11-1.99c0-8.33-6.9-15.1-15.38-15.1
		c-8.46,0-15.34,6.78-15.34,15.1c0,8.35,6.88,15.14,15.34,15.14c5.97,0,11.35-3.39,13.88-8.68H70.41z"/>
	<path class="st0" d="M97.99,39.21L97.99,39.21c3.53,0,7.12-1.61,9.86-4.43c2.87-2.95,4.45-6.81,4.45-10.87
		c0-8.33-6.54-15.1-14.59-15.1c-2.97,0-5.79,0.87-8.14,2.52l-0.64,0.45V0h-8.36v38.06h8.36v-3.12l0.69,0.69
		C91.99,37.97,94.89,39.21,97.99,39.21z M96.4,15.53c4.07,0,7.38,3.83,7.38,8.54c0,4.77-3.24,8.5-7.38,8.5
		c-4.17,0-7.38-3.65-7.46-8.5C88.94,19.28,92.21,15.53,96.4,15.53z"/>
	<path class="st0" d="M132.42,30.47c-1.3,1.32-3.03,2.08-4.76,2.08c-4.05,0-7.34-3.81-7.34-8.5c0-4.71,3.29-8.54,7.34-8.54
		c2.73,0,5.21,1.76,6.47,4.59l0.26,0.57h-4.68L124.48,26h18.29c0.05-0.48,0.04-0.97,0.04-1.49l0-0.5c0-8.33-6.88-15.1-15.34-15.1
		c-8.48,0-15.38,6.78-15.38,15.1c0,8.35,6.9,15.14,15.38,15.14c5.97,0,11.35-3.39,13.89-8.68H132.42z"/>
	<path class="st0" d="M156.37,16.85c2.9,0,5.35,2.48,5.35,5.43v15.78h8.36V19.29c0-5.78-4.86-10.48-10.84-10.48
		c-2.88,0-5.67,1.22-7.47,3.25l-0.71,0.8V8.49h-8.4v29.57l8.4,0V22.08C151.06,19.24,153.49,16.85,156.37,16.85z"/>
</g>
</svg>
